<svg width="20" height="20" viewBox="0 0 20 20" fill="none" xmlns="http://www.w3.org/2000/svg">
<g clip-path="url(#clip0_358_165)">
<path d="M7.62067 20C6.13819 20.0004 4.68888 19.5612 3.45605 18.7378C2.22321 17.9145 1.26223 16.7441 0.694632 15.3746C0.127039 14.005 -0.021666 12.4979 0.267325 11.0439C0.556316 9.58987 1.27002 8.25419 2.31817 7.2058L7.93817 1.5833C8.96216 0.609516 10.3261 0.0744386 11.7391 0.0922266C13.1521 0.110015 14.5021 0.67926 15.5013 1.67851C16.5004 2.67776 17.0695 4.0279 17.0872 5.44087C17.1048 6.85384 16.5696 8.21776 15.5957 9.24163L9.97734 14.8608C9.34867 15.468 8.50666 15.804 7.63267 15.7964C6.75868 15.7888 5.92264 15.4382 5.30461 14.8202C4.68659 14.2022 4.33602 13.3661 4.32843 12.4921C4.32083 11.6181 4.65681 10.7761 5.26401 10.1475L10.589 4.8233L12.3557 6.5908L7.03151 11.9166C6.95192 11.9935 6.88843 12.0855 6.84476 12.1871C6.80108 12.2888 6.77809 12.3981 6.77713 12.5088C6.77617 12.6194 6.79726 12.7292 6.83916 12.8316C6.88106 12.934 6.94293 13.0271 7.02118 13.1053C7.09942 13.1835 7.19247 13.2454 7.29488 13.2873C7.39729 13.3292 7.50703 13.3503 7.61768 13.3493C7.72832 13.3484 7.83768 13.3254 7.93934 13.2817C8.04102 13.238 8.13297 13.1746 8.20984 13.095L13.8332 7.47746C14.1117 7.20841 14.3339 6.88657 14.4868 6.53073C14.6397 6.17488 14.7201 5.79216 14.7235 5.40488C14.7269 5.01761 14.6531 4.63355 14.5064 4.2751C14.3598 3.91665 14.1432 3.591 13.8693 3.31715C13.5955 3.04329 13.2698 2.82672 12.9114 2.68007C12.5529 2.53342 12.1689 2.45962 11.7816 2.46298C11.3943 2.46635 11.0116 2.54681 10.6557 2.69967C10.2999 2.85253 9.97806 3.07473 9.70901 3.3533L4.08317 8.97246C3.17238 9.91548 2.66841 11.1785 2.6798 12.4895C2.6912 13.8005 3.21704 15.0545 4.14408 15.9816C5.07112 16.9086 6.32518 17.4344 7.63617 17.4458C8.94715 17.4572 10.2102 16.9533 11.1532 16.0425L16.4773 10.7175L18.2498 12.485L12.9248 17.81C12.2285 18.5063 11.4014 19.0582 10.4912 19.434C9.58096 19.8099 8.60545 20.0022 7.62067 20Z" fill="#F62727"/>
</g>
<defs>
<clipPath id="clip0_358_165">
<rect width="20" height="20" fill="white"/>
</clipPath>
</defs>
</svg>
