<svg width="24" height="25" viewBox="0 0 24 25" fill="none" xmlns="http://www.w3.org/2000/svg">
<path fill-rule="evenodd" clip-rule="evenodd" d="M12 0.242676C5.37527 0.242676 0 5.61795 0 12.2427C0 18.8674 5.37527 24.2427 12 24.2427C18.6117 24.2427 24 18.8674 24 12.2427C24 5.61795 18.6117 0.242676 12 0.242676ZM19.9262 5.77413C21.3579 7.51816 22.217 9.74375 22.243 12.1516C21.9046 12.0865 18.5206 11.3967 15.1106 11.8262C15.0325 11.657 14.9675 11.4748 14.8894 11.2926C14.6811 10.798 14.4469 10.2904 14.2126 9.80885C17.9869 8.27308 19.705 6.06046 19.9262 5.77413ZM12 2.01274C14.603 2.01274 16.9848 2.98888 18.7939 4.58975C18.6117 4.85005 17.0629 6.91947 13.4186 8.28605C11.7397 5.20146 9.87855 2.67652 9.5922 2.28606C10.3601 2.10385 11.1671 2.01274 12 2.01274ZM7.63995 2.97586C7.91325 3.34029 9.73538 5.87825 11.4404 8.89775C6.65076 10.1733 2.42083 10.1473 1.96529 10.1473C2.62907 6.97153 4.77657 4.32944 7.63995 2.97586ZM1.74404 12.2557C1.74404 12.1516 1.74404 12.0475 1.74404 11.9434C2.18655 11.9563 7.15835 12.0214 12.2733 10.4857C12.5727 11.0583 12.846 11.644 13.1063 12.2296C12.9761 12.2687 12.8329 12.3078 12.7028 12.3468C7.41865 14.0518 4.60738 18.7112 4.3731 19.1017C2.7462 17.2926 1.74404 14.8848 1.74404 12.2557ZM12 22.4986C9.6312 22.4986 7.44469 21.6917 5.71367 20.3381C5.89588 19.9607 7.97827 15.952 13.757 13.9347C13.783 13.9216 13.7961 13.9216 13.8221 13.9087C15.2668 17.644 15.8525 20.7806 16.0087 21.6787C14.7722 22.2123 13.4186 22.4986 12 22.4986ZM17.7136 20.7416C17.6096 20.1168 17.0629 17.1234 15.7223 13.4401C18.9371 12.9325 21.7484 13.7655 22.0998 13.8826C21.6573 16.7329 20.0173 19.1928 17.7136 20.7416Z" fill="white"/>
</svg>
