<svg width="24" height="25" viewBox="0 0 24 25" fill="none" xmlns="http://www.w3.org/2000/svg">
<g clip-path="url(#clip0_303_3277)">
<path fill-rule="evenodd" clip-rule="evenodd" d="M0.562933 2.9378C0 4.0215 0 5.44522 0 8.29268V16.1927C0 19.0401 0 20.4639 0.562933 21.5475C1.03731 22.4608 1.78191 23.2054 2.69513 23.6797C3.77882 24.2427 5.20255 24.2427 8.05 24.2427H15.95C18.7975 24.2427 20.2212 24.2427 21.3049 23.6797C22.2181 23.2054 22.9627 22.4608 23.4371 21.5475C24 20.4639 24 19.0401 24 16.1927V8.29268C24 5.44522 24 4.0215 23.4371 2.9378C22.9627 2.02459 22.2181 1.27999 21.3049 0.805609C20.2212 0.242676 18.7975 0.242676 15.95 0.242676H8.05C5.20255 0.242676 3.77882 0.242676 2.69513 0.805609C1.78191 1.27999 1.03731 2.02459 0.562933 2.9378ZM8.57419 6.74269C9.02452 6.73433 9.4742 6.7805 9.91344 6.88019C10.2833 6.96093 10.6344 7.11118 10.9481 7.32294C11.2379 7.53352 11.4672 7.81662 11.6129 8.14382C11.7805 8.54617 11.8613 8.97931 11.8501 9.415C11.8692 9.8934 11.747 10.3668 11.4988 10.7763C11.2377 11.163 10.8769 11.4718 10.4545 11.67C11.0277 11.8245 11.527 12.1785 11.8625 12.6683C12.1846 13.1872 12.3465 13.7896 12.3279 14.4001C12.3386 14.8868 12.2379 15.3696 12.0337 15.8115C11.8449 16.197 11.5685 16.533 11.2266 16.7926C10.8745 17.0493 10.4784 17.2392 10.0578 17.3529C9.62166 17.4735 9.17109 17.5341 8.71856 17.533H3.75V6.74269H8.57419ZM8.2875 11.1069C8.64133 11.1215 8.98963 11.0156 9.27544 10.8065C9.41231 10.6847 9.51879 10.5325 9.58636 10.3621C9.65392 10.1918 9.6807 10.008 9.66456 9.82544C9.67372 9.61224 9.63127 9.39997 9.54081 9.20669C9.46408 9.0528 9.34477 8.92418 9.19706 8.83613C9.04746 8.7392 8.87938 8.67436 8.70344 8.64569C8.51254 8.60871 8.31829 8.59189 8.12387 8.5955H6.00087V11.1166H8.2875V11.1069ZM8.41125 15.7008C8.62523 15.7037 8.83877 15.6806 9.04719 15.6321C9.23765 15.59 9.41828 15.5118 9.57931 15.4018C9.73706 15.2917 9.86452 15.1437 9.94987 14.9714C10.0488 14.7516 10.0943 14.5115 10.0826 14.2708C10.104 14.0514 10.075 13.8301 9.99762 13.6237C9.92028 13.4173 9.79671 13.2313 9.63638 13.0801C9.29655 12.8298 8.88008 12.7058 8.45869 12.7294H6.00087V15.7008H8.41125ZM15.5337 15.6609C15.7104 15.8247 15.9185 15.9508 16.1454 16.0317C16.3724 16.1125 16.6133 16.1464 16.8537 16.1312C17.2349 16.1408 17.6086 16.0249 17.9173 15.8012C18.1685 15.6379 18.3587 15.3962 18.4584 15.1137H20.2534C20.0622 15.9179 19.5951 16.6297 18.9334 17.1253C18.2987 17.5466 17.5485 17.76 16.7871 17.7358C16.2436 17.7429 15.7042 17.6408 15.201 17.4354C14.7458 17.2455 14.3375 16.9586 14.0047 16.5946C13.6732 16.2131 13.4185 15.7712 13.2547 15.2931C13.0708 14.7587 12.9808 14.1965 12.9886 13.6314C12.9853 13.0758 13.0783 12.5238 13.2636 12C13.5126 11.2631 13.9886 10.624 14.6233 10.1744C15.2581 9.72478 16.0189 9.48782 16.7967 9.4975C17.3709 9.4855 17.9387 9.61989 18.4467 9.888C18.9058 10.1398 19.3019 10.4924 19.6051 10.9193C19.9153 11.3672 20.1376 11.87 20.2603 12.4008C20.3948 12.9709 20.4428 13.5579 20.4026 14.1423H15.0559C15.0126 14.6912 15.1839 15.2357 15.5337 15.6609ZM17.8795 11.5573C17.7299 11.4076 17.5499 11.2917 17.3517 11.2175C17.1536 11.1433 16.9418 11.1124 16.7307 11.1269C16.4506 11.1162 16.1725 11.1783 15.9236 11.307C15.7262 11.4157 15.552 11.5619 15.4107 11.7374C15.2855 11.9019 15.1922 12.0885 15.1357 12.2874C15.0847 12.4533 15.0529 12.6244 15.0408 12.7975H18.3525C18.3236 12.3463 18.1593 11.9142 17.8809 11.5579L17.8795 11.5573ZM18.7636 7.4632H14.6139V8.52401H18.7636V7.4632Z" fill="white"/>
</g>
<defs>
<clipPath id="clip0_303_3277">
<rect width="24" height="24" fill="white" transform="translate(0 0.242676)"/>
</clipPath>
</defs>
</svg>
