<svg width="24" height="25" viewBox="0 0 24 25" fill="none" xmlns="http://www.w3.org/2000/svg">
<g clip-path="url(#clip0_303_3256)">
<path d="M12 0.242676C5.37264 0.242676 0 5.61532 0 12.2427C0 17.8702 3.87456 22.5924 9.10128 23.8894V15.9099H6.62688V12.2427H9.10128V10.6625C9.10128 6.5782 10.9498 4.68508 14.9597 4.68508C15.72 4.68508 17.0318 4.83436 17.5685 4.98316V8.30716C17.2853 8.2774 16.7933 8.26252 16.1822 8.26252C14.2147 8.26252 13.4544 9.00796 13.4544 10.9457V12.2427H17.3741L16.7006 15.9099H13.4544V24.1548C19.3963 23.4372 24.0005 18.378 24.0005 12.2427C24 5.61532 18.6274 0.242676 12 0.242676Z" fill="white"/>
</g>
<defs>
<clipPath id="clip0_303_3256">
<rect width="24" height="24" fill="white" transform="translate(0 0.242676)"/>
</clipPath>
</defs>
</svg>
