<svg width="24" height="25" viewBox="0 0 24 25" fill="none" xmlns="http://www.w3.org/2000/svg">
<g clip-path="url(#clip0_303_3074)">
<g clip-path="url(#clip1_303_3074)">
<path d="M23.9765 7.29782C23.9203 6.0226 23.7141 5.1459 23.4187 4.38622C23.1139 3.57984 22.6451 2.85789 22.0308 2.25773C21.4307 1.64824 20.704 1.17463 19.9069 0.874641C19.1429 0.579231 18.2707 0.373013 16.9955 0.316788C15.7108 0.255801 15.3029 0.241699 12.0444 0.241699C8.78596 0.241699 8.3781 0.255801 7.09811 0.312026C5.82289 0.368251 4.94619 0.574653 4.18669 0.869879C3.38013 1.17463 2.65819 1.64347 2.05803 2.25773C1.44853 2.85789 0.975104 3.5846 0.674933 4.38164C0.379524 5.1459 0.173305 6.01784 0.117081 7.29306C0.0560942 8.57781 0.0419922 8.98567 0.0419922 12.2441C0.0419922 15.5026 0.0560942 15.9105 0.112319 17.1905C0.168544 18.4657 0.374946 19.3424 0.670355 20.1021C0.975104 20.9084 1.44853 21.6304 2.05803 22.2306C2.65819 22.84 3.3849 23.3137 4.18193 23.6136C4.94619 23.9091 5.81813 24.1153 7.09354 24.1715C8.37334 24.2279 8.78138 24.2418 12.0399 24.2418C15.2983 24.2418 15.7062 24.2279 16.9862 24.1715C18.2614 24.1153 19.1381 23.9091 19.8976 23.6136C21.5105 22.99 22.7858 21.7148 23.4094 20.1021C23.7046 19.3378 23.911 18.4657 23.9672 17.1905C24.0234 15.9105 24.0375 15.5026 24.0375 12.2441C24.0375 8.98567 24.0328 8.57781 23.9765 7.29782ZM21.8153 17.0967C21.7636 18.2688 21.5668 18.9017 21.4027 19.3237C20.9994 20.3693 20.1696 21.1991 19.124 21.6024C18.702 21.7665 18.0645 21.9633 16.897 22.0148C15.6311 22.0712 15.2514 22.0851 12.0492 22.0851C8.84694 22.0851 8.46253 22.0712 7.20122 22.0148C6.02911 21.9633 5.39617 21.7665 4.97421 21.6024C4.4539 21.4101 3.98029 21.1053 3.59588 20.7068C3.19736 20.3176 2.89261 19.8488 2.70031 19.3285C2.53621 18.9065 2.33933 18.2688 2.28787 17.1015C2.23146 15.8356 2.21754 15.4557 2.21754 12.2535C2.21754 9.05123 2.23146 8.66681 2.28787 7.40569C2.33933 6.23358 2.53621 5.60064 2.70031 5.17868C2.89261 4.65819 3.19736 4.18476 3.60064 3.80016C3.98963 3.40164 4.45848 3.09689 4.97897 2.90478C5.40093 2.74068 6.03863 2.5438 7.20599 2.49216C8.47187 2.43593 8.85171 2.42183 12.0538 2.42183C15.2608 2.42183 15.6404 2.43593 16.9017 2.49216C18.0739 2.5438 18.7068 2.74068 19.1288 2.90478C19.6491 3.09689 20.1227 3.40164 20.5071 3.80016C20.9056 4.18934 21.2104 4.65819 21.4027 5.17868C21.5668 5.60064 21.7636 6.23816 21.8153 7.40569C21.8715 8.67158 21.8856 9.05123 21.8856 12.2535C21.8856 15.4557 21.8715 15.8308 21.8153 17.0967Z" fill="#F8F8F8"/>
<path d="M12.0452 6.07861C8.64149 6.07861 5.87988 8.84004 5.87988 12.2439C5.87988 15.6478 8.64149 18.4092 12.0452 18.4092C15.4491 18.4092 18.2105 15.6478 18.2105 12.2439C18.2105 8.84004 15.4491 6.07861 12.0452 6.07861ZM12.0452 16.2432C9.83705 16.2432 8.04591 14.4523 8.04591 12.2439C8.04591 10.0356 9.83705 8.24464 12.0452 8.24464C14.2535 8.24464 16.0445 10.0356 16.0445 12.2439C16.0445 14.4523 14.2535 16.2432 12.0452 16.2432Z" fill="#F8F8F8"/>
<path d="M19.8935 5.83483C19.8935 6.62967 19.249 7.27415 18.454 7.27415C17.6591 7.27415 17.0146 6.62967 17.0146 5.83483C17.0146 5.0398 17.6591 4.39551 18.454 4.39551C19.249 4.39551 19.8935 5.0398 19.8935 5.83483Z" fill="#F8F8F8"/>
</g>
</g>
<defs>
<clipPath id="clip0_303_3074">
<rect width="24" height="24" fill="white" transform="translate(0 0.242676)"/>
</clipPath>
<clipPath id="clip1_303_3074">
<rect width="24.0002" height="24.0002" fill="white" transform="translate(0 0.241699)"/>
</clipPath>
</defs>
</svg>
