<svg width="24" height="25" viewBox="0 0 24 25" fill="none" xmlns="http://www.w3.org/2000/svg">
<path d="M22.2234 0.242676H1.77187C0.792187 0.242676 0 1.01611 0 1.97236V22.5083C0 23.4646 0.792187 24.2427 1.77187 24.2427H22.2234C23.2031 24.2427 24 23.4646 24 22.513V1.97236C24 1.01611 23.2031 0.242676 22.2234 0.242676ZM7.12031 20.6942H3.55781V9.23799H7.12031V20.6942ZM5.33906 7.67705C4.19531 7.67705 3.27188 6.75361 3.27188 5.61455C3.27188 4.47549 4.19531 3.55205 5.33906 3.55205C6.47813 3.55205 7.40156 4.47549 7.40156 5.61455C7.40156 6.74893 6.47813 7.67705 5.33906 7.67705ZM20.4516 20.6942H16.8937V15.1255C16.8937 13.7989 16.8703 12.088 15.0422 12.088C13.1906 12.088 12.9094 13.5364 12.9094 15.0317V20.6942H9.35625V9.23799H12.7687V10.8036H12.8156C13.2891 9.90361 14.4516 8.95205 16.1813 8.95205C19.7859 8.95205 20.4516 11.3239 20.4516 14.4083V20.6942Z" fill="white"/>
</svg>
