<svg width="24" height="25" viewBox="0 0 24 25" fill="none" xmlns="http://www.w3.org/2000/svg">
<path d="M23.9995 12.0703C23.9995 15.2496 23.4667 17.8285 22.8092 17.8285C22.1517 17.8285 21.6191 15.2503 21.6191 12.0703C21.6191 8.89025 22.152 6.31201 22.8092 6.31201C23.4665 6.31201 23.9995 8.89002 23.9995 12.0703Z" fill="white"/>
<path d="M20.9632 12.0703C20.9632 15.6196 19.4479 18.4981 17.5788 18.4981C15.7096 18.4981 14.1943 15.6196 14.1943 12.0703C14.1943 8.52101 15.7094 5.64258 17.5785 5.64258C19.4477 5.64258 20.9629 8.52009 20.9629 12.0703" fill="white"/>
<path d="M13.5374 12.0704C13.5374 15.8411 10.5069 18.8978 6.76884 18.8978C3.03073 18.8978 0 15.8404 0 12.0704C0 8.30035 3.0305 5.24268 6.76884 5.24268C10.5072 5.24268 13.5374 8.29966 13.5374 12.0704Z" fill="white"/>
</svg>
