<svg width="64" height="88" viewBox="0 0 64 88" fill="none" xmlns="http://www.w3.org/2000/svg">
<rect width="64" height="88" rx="12" fill="#F5F6F9"/>
<g clip-path="url(#clip0_190_840)">
<g clip-path="url(#clip1_190_840)">
<path d="M21.3686 32.1214C21.3686 32.6296 21.4213 33.0417 21.5134 33.3439C21.6186 33.6461 21.7502 33.9758 21.9344 34.3329C22.0002 34.4428 22.0265 34.5527 22.0265 34.6489C22.0265 34.7862 21.9476 34.9236 21.7765 35.061L20.9476 35.6379C20.8292 35.7203 20.7107 35.7615 20.6055 35.7615C20.4739 35.7615 20.3423 35.6928 20.2107 35.5692C20.0265 35.3632 19.8686 35.1434 19.737 34.9236C19.6055 34.6901 19.4739 34.4291 19.3292 34.1132C18.3028 35.3769 17.0134 36.0088 15.4607 36.0088C14.3555 36.0088 13.4739 35.6791 12.8292 35.0197C12.1844 34.3604 11.8555 33.4813 11.8555 32.3824C11.8555 31.2148 12.2502 30.267 13.0528 29.5527C13.8555 28.8384 14.9213 28.4813 16.2765 28.4813C16.7239 28.4813 17.1844 28.5225 17.6713 28.5912C18.1581 28.6599 18.6581 28.7697 19.1844 28.8934V27.8906C19.1844 26.8467 18.9739 26.1186 18.566 25.6928C18.1449 25.267 17.4344 25.061 16.4213 25.061C15.9607 25.061 15.487 25.1159 15.0002 25.2395C14.5134 25.3631 14.0397 25.5142 13.5792 25.7066C13.3686 25.8027 13.2107 25.8577 13.1186 25.8851C13.0265 25.9126 12.9607 25.9263 12.9081 25.9263C12.7239 25.9263 12.6318 25.789 12.6318 25.5005V24.8274C12.6318 24.6077 12.6581 24.4428 12.7239 24.3467C12.7897 24.2505 12.9081 24.1544 13.0923 24.0582C13.5528 23.811 14.1055 23.6049 14.7502 23.4401C15.3949 23.2615 16.0792 23.1791 16.8028 23.1791C18.3686 23.1791 19.5134 23.55 20.2502 24.2917C20.9739 25.0335 21.3423 26.1599 21.3423 27.6708V32.1214H21.3686ZM16.0265 34.2093C16.4607 34.2093 16.9081 34.1269 17.3818 33.9621C17.8555 33.7972 18.2765 33.495 18.6318 33.0829C18.8423 32.8219 19.0002 32.5335 19.0792 32.2038C19.1581 31.8741 19.2107 31.4758 19.2107 31.0088V30.4318C18.8292 30.3357 18.4213 30.2533 18.0002 30.1983C17.5792 30.1434 17.1713 30.1159 16.7634 30.1159C15.8818 30.1159 15.237 30.2945 14.8028 30.6653C14.3686 31.0362 14.1581 31.5582 14.1581 32.245C14.1581 32.8906 14.316 33.3714 14.6449 33.7011C14.9607 34.0445 15.4213 34.2093 16.0265 34.2093ZM26.5923 35.6928C26.3555 35.6928 26.1976 35.6516 26.0923 35.5555C25.987 35.473 25.8949 35.2807 25.816 35.0197L22.7239 24.4016C22.6449 24.1269 22.6055 23.9483 22.6055 23.8522C22.6055 23.6324 22.7107 23.5088 22.9213 23.5088H24.2107C24.4607 23.5088 24.6318 23.55 24.7239 23.6461C24.8292 23.7285 24.9081 23.9208 24.987 24.1818L27.1976 33.2752L29.2502 24.1818C29.316 23.9071 29.3949 23.7285 29.5002 23.6461C29.6055 23.5637 29.7897 23.5088 30.0265 23.5088H31.0792C31.3292 23.5088 31.5002 23.55 31.6055 23.6461C31.7107 23.7285 31.8028 23.9208 31.8555 24.1818L33.9344 33.3851L36.2107 24.1818C36.2897 23.9071 36.3818 23.7285 36.4739 23.6461C36.5791 23.5637 36.7502 23.5088 36.987 23.5088H38.2107C38.4213 23.5088 38.5397 23.6186 38.5397 23.8522C38.5397 23.9208 38.5265 23.9895 38.5134 24.0719C38.5002 24.1544 38.4739 24.2642 38.4213 24.4153L35.2502 35.0335C35.1713 35.3082 35.0792 35.4868 34.9739 35.5692C34.8686 35.6516 34.6976 35.7066 34.4739 35.7066H33.3423C33.0923 35.7066 32.9213 35.6653 32.816 35.5692C32.7107 35.473 32.6186 35.2945 32.566 35.0197L30.5265 26.1599L28.5002 35.006C28.4344 35.2807 28.3555 35.4593 28.2502 35.5555C28.1449 35.6516 27.9607 35.6928 27.7239 35.6928H26.5923ZM43.5002 36.0637C42.816 36.0637 42.1318 35.9813 41.4739 35.8164C40.816 35.6516 40.3028 35.473 39.9607 35.267C39.7502 35.1434 39.6055 35.006 39.5528 34.8824C39.5002 34.7588 39.4739 34.6214 39.4739 34.4978V33.7972C39.4739 33.5088 39.5792 33.3714 39.7765 33.3714C39.8555 33.3714 39.9344 33.3851 40.0134 33.4126C40.0923 33.4401 40.2107 33.495 40.3423 33.55C40.7897 33.756 41.2765 33.9208 41.7897 34.0307C42.316 34.1406 42.8291 34.1956 43.3555 34.1956C44.1844 34.1956 44.8292 34.0445 45.2765 33.7423C45.7239 33.4401 45.9607 33.0005 45.9607 32.4373C45.9607 32.0527 45.8423 31.7368 45.6055 31.4758C45.3686 31.2148 44.9213 30.9813 44.2765 30.7615L42.3686 30.1434C41.4081 29.8274 40.6976 29.3604 40.2634 28.7423C39.8291 28.1379 39.6055 27.4648 39.6055 26.7505C39.6055 26.1736 39.7239 25.6653 39.9607 25.2258C40.1976 24.7862 40.5134 24.4016 40.9081 24.0994C41.3028 23.7835 41.7502 23.55 42.2765 23.3851C42.8028 23.2203 43.3555 23.1516 43.9344 23.1516C44.2239 23.1516 44.5265 23.1653 44.816 23.2066C45.1186 23.2478 45.3949 23.3027 45.6713 23.3577C45.9344 23.4263 46.1844 23.495 46.4213 23.5774C46.6581 23.6599 46.8423 23.7423 46.9739 23.8247C47.1581 23.9346 47.2897 24.0445 47.3686 24.1681C47.4476 24.278 47.487 24.4291 47.487 24.6214V25.267C47.487 25.5555 47.3818 25.7066 47.1844 25.7066C47.0792 25.7066 46.9081 25.6516 46.6844 25.5417C45.9344 25.1846 45.0923 25.006 44.1581 25.006C43.4081 25.006 42.816 25.1296 42.4081 25.3906C42.0002 25.6516 41.7897 26.05 41.7897 26.6131C41.7897 26.9978 41.9213 27.3274 42.1844 27.5884C42.4476 27.8494 42.9344 28.1104 43.6318 28.3439L45.5002 28.9621C46.4476 29.278 47.1318 29.7175 47.5397 30.2807C47.9476 30.8439 48.1449 31.4895 48.1449 32.2038C48.1449 32.7945 48.0265 33.3302 47.8028 33.7972C47.566 34.2642 47.2502 34.6763 46.8423 35.006C46.4344 35.3494 45.9476 35.5967 45.3818 35.7752C44.7897 35.9675 44.1713 36.0637 43.5002 36.0637Z" fill="#93929D"/>
<path fill-rule="evenodd" clip-rule="evenodd" d="M45.9871 42.7394C41.6581 46.0773 35.3687 47.8493 29.9608 47.8493C22.3818 47.8493 15.5529 44.9235 10.395 40.0609C9.9871 39.6762 10.3555 39.1543 10.8424 39.4565C16.4213 42.8356 23.3029 44.8823 30.4213 44.8823C35.2239 44.8823 40.5003 43.8383 45.3555 41.6955C46.0792 41.3521 46.6976 42.19 45.9871 42.7394Z" fill="#93929D"/>
<path fill-rule="evenodd" clip-rule="evenodd" d="M47.79 40.5966C47.2374 39.8548 44.1321 40.2395 42.7242 40.418C42.3032 40.473 42.2374 40.0884 42.6189 39.7999C45.0926 37.9867 49.1584 38.5087 49.6321 39.1131C50.1058 39.7312 49.5005 43.9757 47.1847 46.0087C46.8295 46.3246 46.4874 46.1598 46.6453 45.7477C47.1716 44.3878 48.3426 41.3246 47.79 40.5966Z" fill="#93929D"/>
</g>
</g>
<path d="M18.74 73L21.956 64.6H23.084L26.3 73H25.076L24.272 70.912H20.72L19.916 73H18.74ZM21.092 69.928H23.9L22.496 66.04L21.092 69.928ZM28.4402 73L26.1842 64.6H27.3842L29.1122 71.2L31.0802 64.6H32.0882L34.0922 71.2L35.8322 64.6H36.9842L34.7282 73H33.6002L31.5602 66.4L29.5682 73H28.4402ZM41.0666 73.12C40.3946 73.12 39.8346 73.016 39.3866 72.808C38.9466 72.6 38.6066 72.32 38.3666 71.968C38.1266 71.608 37.9666 71.212 37.8866 70.78H39.0146C39.1026 71.148 39.3026 71.464 39.6146 71.728C39.9266 71.984 40.4106 72.112 41.0666 72.112C41.7386 72.112 42.2466 71.984 42.5906 71.728C42.9426 71.472 43.1186 71.156 43.1186 70.78C43.1186 70.468 43.0466 70.22 42.9026 70.036C42.7586 69.844 42.5186 69.684 42.1826 69.556C41.8546 69.42 41.4066 69.288 40.8386 69.16C40.2146 69.024 39.7026 68.864 39.3026 68.68C38.9026 68.496 38.6066 68.248 38.4146 67.936C38.2226 67.624 38.1266 67.212 38.1266 66.7C38.1266 66.284 38.2426 65.912 38.4746 65.584C38.7146 65.248 39.0546 64.98 39.4946 64.78C39.9346 64.58 40.4586 64.48 41.0666 64.48C41.6666 64.48 42.1666 64.58 42.5666 64.78C42.9666 64.98 43.2786 65.248 43.5026 65.584C43.7266 65.912 43.8746 66.284 43.9466 66.7H42.8186C42.7386 66.364 42.5666 66.08 42.3026 65.848C42.0466 65.608 41.6346 65.488 41.0666 65.488C40.4906 65.488 40.0426 65.608 39.7226 65.848C39.4106 66.08 39.2546 66.364 39.2546 66.7C39.2546 67.14 39.4186 67.464 39.7466 67.672C40.0746 67.872 40.5986 68.052 41.3186 68.212C41.8386 68.324 42.2826 68.452 42.6506 68.596C43.0266 68.74 43.3306 68.912 43.5626 69.112C43.8026 69.304 43.9746 69.536 44.0786 69.808C44.1906 70.08 44.2466 70.404 44.2466 70.78C44.2466 71.212 44.1186 71.608 43.8626 71.968C43.6146 72.32 43.2546 72.6 42.7826 72.808C42.3106 73.016 41.7386 73.12 41.0666 73.12Z" fill="#17171C"/>
<defs>
<clipPath id="clip0_190_840">
<rect width="40" height="40" fill="white" transform="translate(12 12)"/>
</clipPath>
<clipPath id="clip1_190_840">
<rect width="40" height="25" fill="white" transform="translate(10 23.0005)"/>
</clipPath>
</defs>
</svg>
