<svg width="72" height="92" viewBox="0 0 72 92" fill="none" xmlns="http://www.w3.org/2000/svg">
<rect width="72" height="92" rx="12" fill="#F5F6F9"/>
<g clip-path="url(#clip0_191_1928)">
<g clip-path="url(#clip1_191_1928)">
<path fill-rule="evenodd" clip-rule="evenodd" d="M29.8633 46.4724C29.8633 46.4724 28.3114 47.3723 30.9689 47.6759C34.189 48.0422 35.8345 47.9894 39.3819 47.3214C39.3819 47.3214 40.3164 47.9038 41.6193 48.4083C33.6643 51.8037 23.6156 48.2115 29.8633 46.4724Z" fill="#93929D"/>
<path fill-rule="evenodd" clip-rule="evenodd" d="M28.8901 42.0408C28.8901 42.0408 27.1493 43.3248 29.8088 43.5986C33.2489 43.9524 35.9645 43.9815 40.6663 43.08C40.6663 43.08 41.3151 43.7365 42.3368 44.0954C32.7203 46.8977 22.0095 44.3158 28.8901 42.0408Z" fill="#93929D"/>
<path fill-rule="evenodd" clip-rule="evenodd" d="M37.0845 34.5223C39.0456 36.7713 36.5703 38.7934 36.5703 38.7934C36.5703 38.7934 41.5469 36.2344 39.2619 33.0283C37.1269 30.0398 35.4901 28.5553 44.3515 23.4355C44.3515 23.4355 30.4413 26.8958 37.0845 34.5223Z" fill="#93929D"/>
<path fill-rule="evenodd" clip-rule="evenodd" d="M47.6055 49.7507C47.6055 49.7507 48.7544 50.6942 46.3402 51.4239C41.7497 52.8091 27.2302 53.2269 23.1974 51.4793C21.7487 50.8507 24.4667 49.9794 25.3218 49.7953C26.2135 49.6032 26.7226 49.6383 26.7226 49.6383C25.1103 48.5072 16.3017 51.8597 22.2488 52.8212C38.4668 55.4401 51.8117 51.6416 47.6055 49.7507Z" fill="#93929D"/>
<path fill-rule="evenodd" clip-rule="evenodd" d="M30.61 37.4485C30.61 37.4485 23.2254 39.1964 27.995 39.8317C30.0095 40.1002 34.023 40.0384 37.7642 39.7257C40.8209 39.4702 43.8884 38.9236 43.8884 38.9236C43.8884 38.9236 42.8114 39.3838 42.0316 39.914C34.5312 41.8793 20.0445 40.964 24.2157 38.9547C27.7416 37.2554 30.61 37.4485 30.61 37.4485Z" fill="#93929D"/>
<path fill-rule="evenodd" clip-rule="evenodd" d="M43.8574 44.8253C51.4813 40.8796 47.9559 37.0873 45.4954 37.5981C44.8937 37.7232 44.6238 37.8315 44.6238 37.8315C44.6238 37.8315 44.848 37.4816 45.2748 37.3311C50.1426 35.627 53.8853 42.3589 43.7051 45.025C43.7051 45.025 43.8221 44.9194 43.8574 44.8253Z" fill="#93929D"/>
<path fill-rule="evenodd" clip-rule="evenodd" d="M39.2623 15.167C39.2623 15.167 43.4836 19.3749 35.2572 25.8436C28.6603 31.0346 33.7531 33.9933 35.2549 37.3754C31.4037 33.9141 28.579 30.8667 30.4737 28.0309C33.256 23.8688 40.9651 21.8502 39.2623 15.167Z" fill="#93929D"/>
<path fill-rule="evenodd" clip-rule="evenodd" d="M31.3596 55.5209C38.676 55.9869 49.9143 55.2616 50.1802 51.8123C50.1802 51.8123 49.669 53.1198 44.1331 54.1573C37.8878 55.3287 30.1831 55.1923 25.6152 54.4409C25.6152 54.4409 26.551 55.2126 31.3596 55.5209Z" fill="#93929D"/>
</g>
</g>
<path d="M25.32 77.12C24.768 77.12 24.308 77.028 23.94 76.844C23.572 76.652 23.296 76.388 23.112 76.052C22.928 75.708 22.824 75.304 22.8 74.84H23.904C23.936 75.24 24.06 75.552 24.276 75.776C24.492 76 24.84 76.112 25.32 76.112C25.656 76.112 25.936 76.052 26.16 75.932C26.384 75.804 26.552 75.588 26.664 75.284C26.776 74.972 26.832 74.544 26.832 74V68.6H27.96V74C27.96 74.744 27.864 75.348 27.672 75.812C27.48 76.268 27.188 76.6 26.796 76.808C26.412 77.016 25.92 77.12 25.32 77.12ZM31.9283 77.12C31.4643 77.12 31.0683 77.036 30.7402 76.868C30.4203 76.692 30.1763 76.456 30.0083 76.16C29.8403 75.856 29.7563 75.516 29.7563 75.14C29.7563 74.508 29.9403 74.052 30.3083 73.772C30.6843 73.492 31.2203 73.352 31.9163 73.352H33.9803V72.92C33.9803 72.376 33.8563 72 33.6083 71.792C33.3683 71.584 33.0043 71.48 32.5163 71.48C32.0603 71.48 31.7283 71.568 31.5203 71.744C31.3123 71.912 31.1963 72.104 31.1723 72.32H30.1163C30.1403 71.976 30.2563 71.672 30.4643 71.408C30.6723 71.136 30.9563 70.92 31.3163 70.76C31.6763 70.6 32.0963 70.52 32.5763 70.52C33.0803 70.52 33.5163 70.6 33.8843 70.76C34.2523 70.912 34.5363 71.156 34.7363 71.492C34.9363 71.82 35.0363 72.256 35.0363 72.8V75.38C35.0363 75.716 35.0363 76.012 35.0363 76.268C35.0443 76.516 35.0643 76.76 35.0963 77H34.1723C34.1483 76.816 34.1323 76.644 34.1243 76.484C34.1163 76.316 34.1123 76.128 34.1123 75.92C33.9443 76.256 33.6723 76.54 33.2963 76.772C32.9203 77.004 32.4643 77.12 31.9283 77.12ZM32.1562 76.16C32.4923 76.16 32.7963 76.1 33.0683 75.98C33.3483 75.86 33.5683 75.684 33.7283 75.452C33.8963 75.22 33.9803 74.936 33.9803 74.6V74.168H32.0963C31.7043 74.168 31.3963 74.248 31.1723 74.408C30.9483 74.56 30.8363 74.804 30.8363 75.14C30.8363 75.436 30.9403 75.68 31.1483 75.872C31.3643 76.064 31.7003 76.16 32.1562 76.16ZM38.587 77L35.947 70.64H37.123L39.187 75.92L41.059 70.64H42.187L39.787 77H38.587ZM44.8306 77.12C44.3666 77.12 43.9706 77.036 43.6426 76.868C43.3226 76.692 43.0786 76.456 42.9106 76.16C42.7426 75.856 42.6586 75.516 42.6586 75.14C42.6586 74.508 42.8426 74.052 43.2106 73.772C43.5866 73.492 44.1226 73.352 44.8186 73.352H46.8826V72.92C46.8826 72.376 46.7586 72 46.5106 71.792C46.2706 71.584 45.9066 71.48 45.4186 71.48C44.9626 71.48 44.6306 71.568 44.4226 71.744C44.2146 71.912 44.0986 72.104 44.0746 72.32H43.0186C43.0426 71.976 43.1586 71.672 43.3666 71.408C43.5746 71.136 43.8586 70.92 44.2186 70.76C44.5786 70.6 44.9986 70.52 45.4786 70.52C45.9826 70.52 46.4186 70.6 46.7866 70.76C47.1546 70.912 47.4386 71.156 47.6386 71.492C47.8386 71.82 47.9386 72.256 47.9386 72.8V75.38C47.9386 75.716 47.9386 76.012 47.9386 76.268C47.9466 76.516 47.9666 76.76 47.9986 77H47.0746C47.0506 76.816 47.0346 76.644 47.0266 76.484C47.0186 76.316 47.0146 76.128 47.0146 75.92C46.8466 76.256 46.5746 76.54 46.1986 76.772C45.8226 77.004 45.3666 77.12 44.8306 77.12ZM45.0586 76.16C45.3946 76.16 45.6986 76.1 45.9706 75.98C46.2506 75.86 46.4706 75.684 46.6306 75.452C46.7986 75.22 46.8826 74.936 46.8826 74.6V74.168H44.9986C44.6066 74.168 44.2986 74.248 44.0746 74.408C43.8506 74.56 43.7386 74.804 43.7386 75.14C43.7386 75.436 43.8426 75.68 44.0506 75.872C44.2666 76.064 44.6026 76.16 45.0586 76.16Z" fill="#17171C"/>
<defs>
<clipPath id="clip0_191_1928">
<rect width="40" height="40" fill="white" transform="translate(16 16)"/>
</clipPath>
<clipPath id="clip1_191_1928">
<rect width="31.8506" height="59.0173" fill="white" transform="translate(19.333 15.167)"/>
</clipPath>
</defs>
</svg>
