<svg width="318" height="196" viewBox="0 0 318 196" fill="none" xmlns="http://www.w3.org/2000/svg">
<g clip-path="url(#clip0_170_367)">
<path d="M174.162 9.00043C173.968 9.21906 173.859 9.53486 173.956 9.81421C174.029 10.045 174.234 10.2029 174.44 10.3365C174.731 10.5308 176.171 10.9316 175.687 9.8628C175.651 9.78992 175.638 9.71705 175.638 9.64417C175.651 9.44983 175.856 9.34052 176.014 9.23121C176.268 9.06116 176.474 8.7818 176.462 8.46601C176.45 8.16236 176.159 7.85871 175.868 7.91944C175.76 7.94373 175.675 8.00446 175.578 8.05304C175.118 8.34455 174.513 8.58747 174.162 9.00043Z" fill="#CE2028"/>
<path d="M81.8132 17.9757C81.68 17.6964 81.6195 17.3077 81.8495 17.1133C82.0069 16.9797 82.249 17.004 82.4063 17.1255C82.5637 17.247 82.6605 17.4534 82.6969 17.6478C82.7332 17.8057 82.7816 18.0243 82.9511 18.0364C83.1811 18.0607 83.4111 17.6356 83.5442 17.8178C83.6653 17.9879 83.4111 18.17 83.2416 18.3037C83.0842 18.4251 82.9632 18.7166 83.1447 18.8016C83.3505 18.8867 83.4595 18.5587 83.6169 18.4008C83.859 18.1579 84.3553 18.3037 84.549 18.0243C84.6821 17.83 84.5732 17.5749 84.4884 17.3563C84.4037 17.1376 84.3674 16.8461 84.5611 16.7125C84.7911 16.5546 85.0816 16.7976 85.1784 17.0526C85.2753 17.3077 85.3116 17.6113 85.5295 17.7814C85.7232 17.9271 86.0016 17.915 86.2316 17.8421C86.4616 17.7692 86.6674 17.6356 86.9095 17.5627C87.2 17.4777 87.5026 17.4777 87.7932 17.3806C88.0595 17.2834 88.2895 17.1012 88.5437 16.9676C88.7979 16.834 89.0763 16.7611 89.3548 16.6761C90.1053 16.4696 90.8437 16.2631 91.5942 16.0566C91.8121 15.9959 92.03 15.9352 92.2479 15.9959C92.6111 16.0931 92.8169 16.4696 92.9016 16.8218C92.9984 17.1741 93.0348 17.5627 93.2284 17.8785C93.3858 18.1215 93.64 18.3037 93.8337 18.5223C94.0274 18.7531 94.1484 19.081 94.0032 19.3361C93.9305 19.4697 93.7974 19.5547 93.6884 19.6397C93.2284 19.992 92.8774 20.4656 92.6716 21.0001C92.6232 21.1215 92.5869 21.243 92.599 21.3644C92.6353 21.6681 92.9863 21.8381 93.1074 22.1175C93.3011 22.579 92.829 23.1499 93.059 23.5872C93.1921 23.8422 93.519 23.9758 93.5553 24.2673C93.5795 24.4981 93.3979 24.7289 93.4826 24.9354C93.5432 25.0933 93.7248 25.154 93.87 25.2512C94.4269 25.6155 94.5237 26.5751 95.1895 26.6601C95.3469 26.6844 95.5042 26.648 95.6495 26.6723C96.0853 26.7451 96.2911 27.231 96.4605 27.6439C96.63 28.0448 96.9932 28.312 97.429 28.3605C98.8695 28.5063 99.8742 27.9476 101.061 28.0933C101.291 28.1176 101.533 28.1662 101.763 28.1298C101.993 28.0933 102.235 27.9597 102.307 27.7411C102.356 27.5953 102.332 27.4253 102.295 27.2796C102.041 26.235 101.738 25.5062 101.629 24.4374C101.617 24.3402 101.545 23.9515 101.593 23.8787C101.642 23.8179 101.811 23.8179 101.896 23.8058C102.465 23.6965 102.271 24.5467 102.84 24.5953C103.167 24.6196 102.985 24.0001 102.997 23.6722C102.997 23.5629 103.191 23.5872 103.288 23.6479C103.385 23.7086 103.469 23.7936 103.591 23.7815C103.881 23.7572 103.76 23.2471 103.99 23.0649C104.184 22.907 104.474 23.1135 104.595 23.3321C104.716 23.5507 104.813 23.8422 105.055 23.9151C105.249 23.9758 105.479 23.8544 105.527 23.66C105.624 23.32 105.213 22.9799 105.309 22.6276C105.37 22.3969 105.648 22.2754 105.891 22.3118C106.133 22.3483 106.338 22.494 106.532 22.6398C106.932 22.9434 107.319 23.2592 107.767 23.4657C108.723 23.9151 109.861 23.8544 110.829 24.2916C111.749 24.7046 112.561 25.5427 113.553 25.4455C113.783 25.4212 114.001 25.3483 114.231 25.3362C114.945 25.2876 115.793 25.6277 116.095 26.2836C116.168 26.4293 116.216 26.5872 116.386 26.5751C116.555 26.5629 116.701 26.4658 116.822 26.3565C116.882 26.3079 116.955 26.2471 117.039 26.235C117.173 26.2228 117.282 26.32 117.366 26.4172C117.487 26.5386 117.596 26.6601 117.717 26.7816C117.814 26.8787 117.911 26.988 117.959 27.1217C118.008 27.2553 118.008 27.3889 118.008 27.5225C117.996 28.2026 117.984 28.895 117.838 29.563C117.79 29.8181 117.717 30.0853 117.717 30.3525C117.717 30.6197 117.814 30.8991 118.032 31.057C118.105 31.1055 118.202 31.142 118.286 31.1055C118.407 31.057 118.432 30.8869 118.553 30.8383C118.686 30.7897 118.807 30.9112 118.892 31.0205C119.025 31.1784 119.182 31.3363 119.388 31.4213C119.594 31.4942 119.836 31.4699 119.981 31.312C120.042 31.2513 120.078 31.1663 120.138 31.1177C120.259 31.0205 120.429 31.0691 120.586 31.1055C121.252 31.2634 122.015 31.1663 122.511 30.6804C122.717 30.474 122.898 30.1946 123.189 30.1703C123.407 30.146 123.625 30.2796 123.709 30.474C123.806 30.6683 123.782 30.9112 123.673 31.0934C123.588 31.2513 123.455 31.3606 123.346 31.5064C123.237 31.64 123.165 31.8222 123.213 31.9922C123.262 32.1501 123.419 32.2594 123.588 32.2837C123.758 32.308 123.927 32.2594 124.073 32.1865C124.569 31.9558 124.944 31.5064 125.198 31.0205C125.368 30.7047 125.634 30.0731 125.925 30.2796C126.082 30.3889 126.034 30.644 126.094 30.8262C126.118 30.9112 126.155 30.9962 126.227 31.0327C126.385 31.1298 126.494 30.8262 126.675 30.8019C127.486 30.6926 127.777 30.2553 128.285 30.0731C129.266 29.7209 129.508 28.397 130.476 28.0083C131.215 27.7047 132.05 28.0812 132.837 27.984C133.454 27.899 133.987 27.5346 134.507 27.1824C136.178 26.0285 137.836 24.8625 139.507 23.7086C140.306 23.1499 142.545 20.0041 142.812 19.7855C143.151 19.494 143.405 19.1174 143.659 18.7531C143.816 18.5101 143.986 18.2429 143.949 17.9636C143.889 17.5749 143.465 17.3441 143.296 16.9797C143.175 16.7247 143.09 16.4575 143.042 16.1903C143.029 16.1174 143.005 16.0324 143.017 15.9473C143.054 15.7044 143.308 15.5708 143.55 15.5465C143.792 15.5344 144.022 15.6072 144.264 15.6194C144.518 15.6315 144.736 15.5587 144.978 15.5222C145.208 15.4858 145.451 15.5344 145.681 15.5465C146.988 15.6437 148.283 15.1821 149.578 15.3765C149.651 15.3886 149.724 15.4008 149.772 15.4493C149.821 15.4979 149.845 15.5708 149.869 15.6315C150.002 16.0809 150.014 16.6032 150.329 16.9433C150.559 17.1862 150.886 17.2955 151.201 17.3684C151.552 17.4656 151.915 17.5385 152.278 17.6113C152.568 17.6599 152.859 17.7085 153.149 17.6721C153.44 17.6356 153.731 17.5263 153.924 17.3077C154.118 17.0891 154.203 16.7733 154.421 16.5668C154.614 16.3967 154.893 16.3117 155.026 16.0931C155.135 15.8987 155.086 15.6558 154.989 15.4736C154.881 15.2793 154.711 15.1335 154.566 14.9878C153.839 14.2712 153.295 13.3845 152.75 12.51C152.629 12.3157 152.508 12.1092 152.459 11.8906C152.411 11.6719 152.435 11.4047 152.581 11.2347C152.859 10.9067 153.234 10.5788 153.319 10.1537C153.392 9.72858 153.137 9.21844 152.702 9.16986C152.508 9.14557 152.242 9.18201 152.169 8.99982C152.145 8.92694 152.169 8.84192 152.205 8.76904C152.302 8.61114 152.459 8.52612 152.617 8.42895C153.053 8.18603 153.488 7.93097 153.924 7.68805C154.421 7.40869 154.929 7.11719 155.425 6.83783C155.619 6.72851 155.825 6.60705 156.055 6.57062C156.261 6.53418 156.466 6.55847 156.672 6.53418C157.108 6.4613 157.459 6.14551 157.834 5.91473C158.863 5.25885 160.134 5.16168 161.357 5.0888C161.466 5.07666 161.575 5.07666 161.672 5.1131C161.768 5.14953 161.841 5.22241 161.914 5.29529C162.192 5.5625 162.495 5.87829 162.471 6.25482C162.458 6.4613 162.349 6.64349 162.241 6.82568C161.841 7.49371 161.405 8.23462 161.514 8.99982C161.587 9.47351 161.672 9.47351 161.599 10.1294C161.502 10.9796 162.519 10.761 162.688 10.676C164.771 9.58282 166.272 10.4209 166.393 10.4695C169.346 11.8177 169.346 10.0565 169.286 9.76501C169.213 9.46136 169.104 9.13342 169.249 8.86621C169.467 8.45325 170.073 8.50183 170.484 8.2832C171.114 7.94311 171.211 7.02002 171.779 6.58276C171.937 6.4613 172.131 6.38843 172.288 6.26697C172.603 6.03619 172.772 5.65967 172.966 5.31958C173.256 4.7973 173.619 4.29931 174.055 3.8742C174.334 3.59485 174.648 3.32763 175.024 3.18188C175.399 3.03613 175.835 3.02398 176.174 3.23047C176.331 3.32763 176.464 3.46124 176.622 3.55841C177.021 3.78918 177.554 3.71631 177.917 4.00781C178.292 4.32361 178.377 4.96734 178.837 5.1131C178.994 5.16168 179.164 5.14953 179.309 5.19812C179.636 5.33172 179.733 5.75683 179.721 6.10907C179.696 6.4613 179.624 6.84997 179.781 7.16577C179.829 7.27508 179.914 7.36011 179.938 7.46942C180.011 7.73663 179.793 8.00384 179.563 8.1496C179.333 8.30749 179.055 8.41681 178.909 8.64758C178.752 8.90265 178.776 9.24274 178.825 9.54639C178.861 9.82575 178.897 10.093 178.934 10.3723C178.958 10.5181 178.97 10.6638 179.043 10.7974C179.164 11.0403 179.587 11.2104 179.491 11.4533C179.382 11.7205 178.934 11.4169 178.692 11.259C178.111 10.8703 177.469 10.5788 176.827 10.2994C176.646 10.2266 176.464 10.1415 176.271 10.1658C176.125 10.178 176.004 10.2509 175.895 10.348C175.617 10.6031 175.484 11.0161 175.593 11.3804C175.689 11.7448 176.016 12.0363 176.392 12.1092C176.609 12.1456 176.827 12.1092 177.045 12.0849C178.123 11.9391 179.285 11.5869 180.289 11.9877C180.507 12.0728 180.725 12.0728 180.943 11.9877C181.173 11.9149 181.379 11.7813 181.621 11.7327C182.166 11.6112 182.698 11.9027 183.134 12.2428C183.509 12.5343 183.848 12.8744 184.163 13.2388C184.284 13.3724 184.393 13.5303 184.563 13.591C184.732 13.6639 184.962 13.6032 185.023 13.4331C185.144 13.0809 184.454 12.7651 184.647 12.4371C184.768 12.2549 185.047 12.3278 185.241 12.4371C185.434 12.5464 185.676 12.6679 185.846 12.5222C185.991 12.4007 185.955 12.1821 185.991 11.9999C186.052 11.7448 186.257 11.5505 186.463 11.3804C186.851 11.0525 187.226 10.7245 187.613 10.4088C188.061 10.0322 188.509 9.64356 188.848 9.16986C189.187 8.68402 189.393 8.08887 189.296 7.518C189.259 7.27508 189.163 7.03216 189.175 6.7771C189.199 6.35199 189.538 6.0119 189.853 5.73254C190.083 5.52606 190.313 5.30743 190.543 5.10095C190.676 4.97949 190.821 4.85803 190.991 4.7973C191.16 4.73657 191.378 4.77301 191.487 4.91876C191.681 5.17383 191.414 5.53821 191.475 5.854C191.547 6.24267 192.044 6.35199 192.431 6.31555C192.818 6.27911 193.254 6.1698 193.581 6.37628C193.932 6.60705 193.981 7.08075 194.126 7.46942C194.307 7.97955 194.683 8.39252 194.973 8.85406C195.264 9.31561 195.494 9.86218 195.348 10.3845C195.264 10.6638 195.082 10.9067 194.913 11.1497C194.453 11.7934 194.053 12.4736 193.726 13.2023C193.581 13.5303 193.436 13.9068 193.533 14.259C193.605 14.5505 193.823 14.7813 194.029 14.9878C194.961 15.9716 195.905 16.9554 196.837 17.9393C196.995 18.0972 196.946 18.4008 196.971 18.6195C197.043 19.3361 197.104 20.0527 197.176 20.7693C197.201 21.0244 197.225 21.2916 197.382 21.4859C197.564 21.7167 197.878 21.8017 198.169 21.8503C198.351 21.8746 198.532 21.8989 198.714 21.8503C198.871 21.8139 199.028 21.7288 199.162 21.6438C199.501 21.4495 199.839 21.243 200.13 20.9879C200.215 20.915 200.299 20.8422 200.384 20.7814C200.699 20.5993 201.111 20.6843 201.425 20.8786C201.74 21.0729 201.97 21.3644 202.224 21.6317C202.478 21.8989 202.769 22.1539 202.999 22.4454C203.217 22.7491 203.386 23.1135 203.338 23.49C203.289 23.8787 203.035 24.2066 202.902 24.5831C202.769 24.9718 202.503 25.3605 202.454 25.7613C202.418 26.0407 202.466 26.3686 202.721 26.4901C202.926 26.5872 203.168 26.5022 203.362 26.3807C203.556 26.2593 203.725 26.0892 203.931 26.0164C204.258 25.9192 204.609 26.065 204.899 26.2471C205.19 26.4293 205.456 26.6723 205.783 26.7694C206.11 26.8666 206.449 26.8301 206.788 26.7816C207.212 26.733 207.647 26.6723 208.071 26.6237C208.241 26.5994 208.41 26.5751 208.555 26.5022C208.737 26.3929 208.858 26.1986 208.955 26.0042C209.064 25.7856 209.148 25.567 209.221 25.3362C209.245 25.239 209.282 25.1297 209.366 25.0568C209.487 24.9597 209.669 24.9961 209.826 25.0325C210.371 25.1783 210.916 25.324 211.461 25.4698C211.715 25.5427 211.969 25.6034 212.199 25.737C212.429 25.8706 212.623 26.0528 212.828 26.2229C213.034 26.3807 213.276 26.5144 213.518 26.6115C213.567 26.6358 213.615 26.648 213.664 26.6358C213.736 26.6237 213.785 26.5508 213.821 26.4901C214.124 25.9921 214.523 25.5427 214.971 25.1661C215.213 24.9718 215.479 24.8139 215.685 24.5831C215.891 24.3524 216.157 24.1337 216.46 24.158C216.617 24.1702 216.787 24.2673 216.932 24.2066C217.029 24.1702 217.089 24.0852 217.15 24.0001C217.356 23.6965 217.525 23.3807 217.792 23.1256C218.046 22.8706 218.409 22.6884 218.76 22.7369C219.051 22.7734 219.305 22.9677 219.547 23.1499C220.322 23.7572 221.084 24.3888 221.798 25.069C222.101 25.3605 222.404 25.6641 222.573 26.0528C222.864 26.7087 222.718 27.4739 222.634 28.1905C222.585 28.5792 222.549 28.98 222.609 29.3687C222.67 29.7573 222.827 30.1339 223.118 30.4011C223.614 30.8626 224.377 30.8869 224.934 31.2756C225.721 31.81 226.701 31.9436 227.536 32.393C227.887 32.5752 228.238 32.806 228.396 33.1582C228.468 33.3283 228.505 33.5347 228.626 33.6684C228.759 33.8141 228.965 33.8505 229.171 33.887C230.03 34.0327 230.914 34.1785 231.785 34.1056C232.342 34.057 232.887 33.9234 233.444 33.8627C234.001 33.802 234.582 33.8141 235.078 34.057C235.586 34.2999 235.998 34.7979 235.998 35.3566C235.998 35.5388 235.949 35.7332 235.986 35.9154C235.998 36.0004 236.034 36.0854 236.046 36.1704C236.083 36.4984 235.768 36.8749 235.974 37.13C236.143 37.3364 236.494 37.215 236.664 37.0085C236.833 36.802 236.942 36.5348 237.172 36.3891C237.572 36.134 238.189 36.3891 238.528 36.0611C238.709 35.8911 238.843 35.5631 239.073 35.6482C239.145 35.6724 239.194 35.7332 239.23 35.7818C239.593 36.2433 239.751 36.8749 240.223 37.2271C240.38 37.3486 240.574 37.4215 240.707 37.5672C240.84 37.713 240.913 37.9437 240.792 38.1016C240.719 38.1988 240.586 38.2352 240.489 38.3081C240.211 38.5389 240.283 39.0369 240.005 39.2555C239.872 39.3527 239.69 39.377 239.521 39.3891C238.988 39.462 238.443 39.7292 238.213 40.215C238.141 40.3851 237.923 40.5308 237.862 40.713C237.789 40.9317 237.947 41.1746 238.141 41.296C238.346 41.4175 238.576 41.4418 238.806 41.4782C239.036 41.5147 239.278 41.5875 239.436 41.7454C239.702 42.0248 239.63 42.5471 239.291 42.7293C238.891 42.9479 238.383 42.6807 237.935 42.7414C237.656 42.7779 237.402 42.96 237.269 43.203C237.233 43.2758 237.196 43.3487 237.196 43.4216C237.196 43.6645 237.463 43.8224 237.535 44.0532C237.62 44.3204 237.426 44.5876 237.221 44.7819C237.172 44.8305 237.124 44.867 237.099 44.9277C237.087 44.9884 237.1 45.0492 237.112 45.1099C237.172 45.3164 237.221 45.5229 237.281 45.7293C237.329 45.8994 237.366 46.0816 237.281 46.2273C237.172 46.4338 236.882 46.4581 236.664 46.3852C236.446 46.3123 236.252 46.1666 236.034 46.0937C235.816 46.0208 235.526 46.0573 235.417 46.2638C235.296 46.5067 235.489 46.786 235.514 47.0532C235.538 47.3205 235.393 47.5877 235.223 47.7942C235.054 48.0006 234.836 48.1828 234.703 48.4257C234.606 48.5958 234.557 48.8023 234.642 48.9845C234.775 49.276 235.175 49.3003 235.441 49.4703C235.732 49.6525 235.865 50.0533 235.744 50.3813C235.659 50.612 235.514 50.7942 235.429 51.025C235.356 51.2072 235.381 51.4137 235.368 51.6201C235.356 51.9845 235.284 52.3368 235.151 52.6768C235.078 52.8469 234.993 53.0169 234.872 53.1627C234.739 53.3084 234.569 53.4178 234.412 53.5392C233.795 54.0008 233.311 54.5959 232.814 55.1789C232.705 55.3125 232.596 55.4461 232.56 55.6162C232.524 55.7984 232.596 55.9806 232.705 56.1263C232.826 56.2721 233.008 56.3814 233.189 56.3328C233.492 56.2356 233.528 55.7619 233.819 55.6405C234.073 55.5312 234.327 55.7498 234.521 55.9441C234.618 56.0413 234.703 56.1385 234.763 56.2478C234.908 56.5636 234.763 56.9522 234.545 57.2195C234.327 57.4867 234.025 57.681 233.795 57.9482C233.444 58.3733 233.298 58.932 233.177 59.4786C233.105 59.7823 233.032 60.0738 232.972 60.3774C232.923 60.5596 232.887 60.7904 232.814 60.9604C232.79 61.009 232.766 61.0697 232.717 61.1062C232.669 61.1426 232.608 61.1548 232.548 61.1548C232.221 61.1791 231.918 61.0333 231.652 60.8511C231.567 60.7904 231.495 60.7296 231.398 60.7054C231.301 60.6811 231.192 60.7054 231.144 60.7904C231.119 60.839 231.107 60.8997 231.107 60.9483C231.083 61.3005 231.035 61.6649 230.841 61.9564C230.732 62.1143 230.587 62.2479 230.454 62.3815C229.994 62.8673 229.643 63.4868 229.049 63.8147C228.856 63.924 228.638 63.9969 228.444 64.1184C227.936 64.4585 227.803 65.2358 227.645 65.8188C227.585 66.0374 227.524 66.2561 227.536 66.4868C227.548 66.7541 227.633 67.0091 227.73 67.252C227.984 67.9444 228.263 68.661 228.819 69.159C229.183 69.4869 229.631 69.6934 230.091 69.8634C230.575 70.0578 231.107 70.2643 231.337 70.7258C231.398 70.8473 231.422 70.993 231.362 71.1145C231.253 71.3331 230.902 71.3331 230.768 71.5517C230.647 71.7339 230.756 71.989 230.914 72.1469C231.059 72.3048 231.253 72.4262 231.362 72.6206C231.519 72.9242 231.386 73.2886 231.192 73.568C230.998 73.8473 230.744 74.066 230.587 74.3696C230.429 74.6611 230.405 75.0741 230.659 75.3048C230.986 75.5842 231.495 75.3777 231.809 75.0741C232.027 74.8676 232.282 74.6004 232.572 74.6854C232.887 74.7826 233.044 75.2927 233.371 75.232C233.601 75.1955 233.674 74.904 233.734 74.6733C233.867 74.1996 234.194 73.7866 234.618 73.5558C234.775 73.4708 234.945 73.3979 235.078 73.2765C235.211 73.155 235.296 72.9728 235.441 72.8635C235.671 72.6935 236.022 72.742 236.192 72.9728C236.434 73.2886 236.301 73.8109 236.591 74.0781C236.748 74.2239 236.991 74.2481 237.16 74.3939C237.378 74.5761 237.426 74.8919 237.632 75.0862C237.898 75.3534 238.346 75.317 238.685 75.1591C239.024 75.0012 239.315 74.7461 239.654 74.6004C239.872 74.5032 240.186 74.4911 240.283 74.6975C240.319 74.7704 240.319 74.8433 240.344 74.9162C240.428 75.1105 240.707 75.1469 240.888 75.0498C241.07 74.9405 241.118 74.6975 241.276 74.5518C241.554 74.2846 242.014 74.3089 242.402 74.2724C242.511 74.2603 242.632 74.2603 242.704 74.3332C242.777 74.3939 242.801 74.5032 242.825 74.6004C242.886 74.8919 242.946 75.1955 243.007 75.487C243.031 75.6085 243.055 75.73 243.128 75.815C243.201 75.9 243.346 75.9486 243.443 75.8879C243.564 75.8028 243.552 75.6085 243.673 75.5235C243.818 75.4142 244.024 75.5721 244.108 75.73C244.193 75.8879 244.278 76.0943 244.459 76.1186C244.581 76.1429 244.702 76.0579 244.786 75.985C245.186 75.6449 245.488 75.0862 246.009 75.0498C246.154 75.0376 246.299 75.0741 246.433 75.0255C246.566 74.9648 246.651 74.8312 246.784 74.7583C247.098 74.5761 247.486 74.8069 247.752 75.0619C248.006 75.317 248.297 75.6328 248.66 75.5964C249.011 75.5721 249.265 75.232 249.604 75.1591C249.737 75.1348 249.858 75.1469 249.992 75.1712C250.597 75.2927 251.166 75.6449 251.553 76.1308C251.723 76.3494 251.868 76.6166 251.868 76.896C251.868 77.1875 251.711 77.4668 251.638 77.7462C251.529 78.1349 251.577 78.5721 251.759 78.9365C251.795 78.9972 251.832 79.058 251.892 79.0701C252.025 79.0944 252.098 78.9244 252.086 78.7907C252.074 78.6571 252.025 78.4993 252.122 78.4021C252.255 78.2442 252.497 78.4142 252.655 78.5478C253.078 78.8879 253.696 78.9608 254.18 78.7179C254.507 78.56 254.87 78.645 255.233 78.6207C255.56 78.5964 255.887 78.5964 256.202 78.7057C256.516 78.815 256.795 79.0215 256.916 79.3252C257.037 79.6167 257.001 79.9568 257.109 80.2604C257.315 80.7827 257.921 81.0499 258.138 81.56C258.247 81.8151 258.235 82.1066 258.32 82.3738C258.526 82.969 259.192 83.3091 259.434 83.8921C259.531 84.1471 259.555 84.4386 259.712 84.6694C259.833 84.8516 260.039 84.9609 260.196 85.1067C260.39 85.2889 260.535 85.5318 260.596 85.7868C260.608 85.8354 260.62 85.884 260.596 85.9326C260.572 85.9812 260.523 86.0176 260.475 86.0541C260.293 86.1512 260.051 86.1391 259.882 86.2727C259.688 86.4427 259.882 86.8193 260.112 86.9529C260.281 87.05 260.499 87.0743 260.596 87.2444C260.656 87.3658 260.632 87.5116 260.644 87.6452C260.656 87.7788 260.765 87.9367 260.898 87.8881C260.983 87.8638 261.019 87.7788 261.056 87.7059C261.177 87.463 261.395 87.2444 261.661 87.2201C261.794 87.2079 261.927 87.2444 262.061 87.293C262.472 87.4266 262.859 87.5966 263.223 87.8152C263.404 87.9245 263.598 88.0339 263.804 88.0582C263.997 88.0703 264.191 87.9974 264.385 87.9367C264.808 87.8152 265.268 87.8031 265.692 87.9124C266.031 87.9974 265.995 88.4833 265.874 88.8112C265.656 89.3821 264.869 89.5885 264.651 90.1594C264.542 90.4509 264.591 90.791 264.494 91.0947C264.373 91.4347 264.046 91.6898 263.683 91.7141C263.537 91.7262 263.38 91.6898 263.235 91.7262C262.896 91.8113 262.763 92.2121 262.557 92.4914C262.278 92.868 261.831 93.0744 261.419 93.2931C261.056 93.4874 260.705 93.706 260.451 94.034C260.196 94.3619 260.063 94.7992 260.196 95.1879C260.305 95.4794 260.547 95.7101 260.777 95.9166C261.02 96.1231 261.274 96.3296 261.407 96.6089C261.54 96.8883 261.528 97.277 261.286 97.4713C261.141 97.5928 261.128 97.8964 261.286 98.0179C261.431 98.1393 261.637 98.1879 261.806 98.2851C262.521 98.6859 262.448 99.7669 262.993 100.374C263.041 100.423 263.102 100.484 263.162 100.508C263.392 100.593 263.598 100.362 263.779 100.18C263.937 100.022 264.155 99.8884 264.385 99.9005C264.639 99.9248 264.893 100.131 265.135 100.046C265.268 99.9977 265.353 99.8884 265.474 99.8155C265.753 99.6576 266.104 99.8033 266.382 99.9612C266.661 100.119 266.987 100.289 267.278 100.18C267.387 100.131 267.472 100.058 267.581 100.01C267.98 99.8033 268.464 100.034 268.839 100.289C269.203 100.556 269.59 100.872 270.038 100.86C270.171 100.86 270.292 100.824 270.413 100.848C270.534 100.872 270.667 100.969 270.655 101.091C270.643 101.249 270.449 101.322 270.316 101.407C270.05 101.552 269.893 101.868 269.929 102.172C269.965 102.488 270.183 102.767 270.207 103.083C270.219 103.216 270.183 103.35 270.195 103.496C270.232 103.751 270.437 103.969 270.679 104.067C270.922 104.164 271.188 104.176 271.442 104.152C271.757 104.127 272.12 104.103 272.314 104.358C272.374 104.443 272.411 104.54 272.435 104.65C272.665 105.524 272.483 106.362 272.156 107.188C272.072 107.419 271.963 107.638 271.914 107.88C271.854 108.16 271.866 108.451 271.854 108.731C271.829 109.083 271.769 109.435 271.648 109.763C271.587 109.945 271.503 110.127 271.369 110.273C271.127 110.528 270.74 110.65 270.619 110.978C270.534 111.221 270.631 111.5 270.801 111.706C270.97 111.913 271.188 112.059 271.382 112.241C271.551 112.399 271.696 112.581 271.769 112.787C271.89 113.128 271.854 113.565 272.132 113.796C272.979 114.524 273.887 115.277 274.045 116.383C274.069 116.577 274.069 116.808 273.948 116.966C273.706 117.269 273.064 116.893 272.725 117.075C272.398 117.257 272.435 117.937 272.096 118.095C271.842 118.217 271.539 117.962 271.273 118.047C271.103 118.107 271.321 118.375 271.454 118.484C271.587 118.593 271.733 118.775 271.624 118.921C271.551 119.018 271.406 119.018 271.309 118.958C271.212 118.897 271.152 118.788 271.091 118.69C270.788 118.192 270.413 117.755 269.965 117.379C269.796 117.233 269.602 117.087 269.372 117.051C269.142 117.014 268.912 117.075 268.694 117.148C268.488 117.209 268.271 117.281 268.125 117.451C268.004 117.597 267.956 117.779 267.907 117.949C267.75 118.435 267.496 118.897 267.157 119.273C267.06 119.383 266.951 119.492 266.891 119.638C266.721 120.124 267.302 120.585 267.266 121.107C267.242 121.35 267.084 121.569 266.915 121.739C266.455 122.213 265.837 122.553 265.196 122.711C264.651 122.844 264.094 122.869 263.549 123.002C263.005 123.136 262.46 123.403 262.182 123.889C262 124.193 261.939 124.581 261.661 124.824C261.358 125.091 260.911 125.067 260.511 125.091C260.438 125.091 260.354 125.103 260.293 125.164C260.233 125.225 260.233 125.334 260.233 125.419C260.208 125.747 260.003 126.063 259.712 126.209C259.639 126.245 259.567 126.269 259.531 126.342C259.422 126.5 259.591 126.695 259.736 126.804C259.906 126.925 260.075 127.047 260.196 127.217C260.342 127.411 260.414 127.654 260.475 127.885C260.681 128.626 260.874 129.355 260.935 130.12C260.959 130.351 260.947 130.618 260.765 130.764C260.535 130.946 260.208 130.812 259.942 130.727C259.664 130.642 259.276 130.642 259.204 130.921C259.167 131.055 259.216 131.213 259.131 131.322C259.034 131.432 258.841 131.383 258.707 131.298C258.574 131.225 258.417 131.128 258.284 131.201C258.223 131.237 258.175 131.298 258.151 131.359C257.921 131.82 258.441 132.27 258.417 132.792C258.405 132.998 257.933 133.156 258.029 133.338C258.175 133.618 258.417 133.8 258.405 134.128C258.393 134.468 258.344 134.82 258.163 135.112C257.981 135.403 257.606 135.585 257.291 135.476C257.025 135.379 256.843 135.1 256.577 134.99C256.407 134.917 256.202 134.917 256.081 134.796C255.887 134.614 255.984 134.274 256.141 134.055C256.298 133.836 256.516 133.63 256.553 133.363C256.577 133.193 256.528 133.035 256.468 132.877C256.383 132.622 256.311 132.379 256.226 132.124C256.177 131.99 256.141 131.844 256.044 131.735C255.935 131.602 255.778 131.529 255.608 131.48C255.221 131.371 254.809 131.395 254.398 131.419C254.337 131.419 254.277 131.432 254.241 131.456C254.083 131.553 254.192 131.796 254.228 131.978C254.289 132.282 254.083 132.573 253.889 132.828C253.744 133.011 253.587 133.205 253.369 133.266C253.127 133.326 252.873 133.205 252.643 133.096C252.255 132.901 251.868 132.695 251.493 132.5C251.384 132.44 251.263 132.379 251.166 132.282C250.742 131.844 251.093 130.97 250.621 130.581C250.597 130.557 250.561 130.533 250.524 130.533C250.464 130.533 250.427 130.593 250.403 130.63C250.173 130.982 249.774 131.286 249.362 131.176C249.241 131.14 249.132 131.079 249.023 131.031C248.636 130.861 248.188 130.861 247.801 131.043C247.692 131.091 247.595 131.152 247.522 131.249C247.437 131.359 247.413 131.492 247.389 131.626C247.268 132.221 247.147 132.816 247.147 133.436C247.147 134.055 247.244 134.76 246.82 135.221C246.602 135.452 246.336 135.598 246.021 135.646C245.077 135.792 244.181 136.278 243.527 136.994C243.418 137.116 243.322 137.237 243.261 137.383C243.152 137.675 243.213 137.99 243.164 138.294C243.128 138.561 243.007 138.804 242.825 138.998C242.704 139.12 242.559 139.241 242.511 139.399C242.474 139.521 242.511 139.642 242.547 139.764C242.595 139.946 242.644 140.128 242.632 140.322C242.619 140.505 242.547 140.711 242.377 140.808C242.147 140.954 241.857 140.857 241.603 140.93C241.312 141.003 241.106 141.258 240.925 141.501C240.755 141.719 240.586 141.974 240.634 142.254C240.695 142.594 241.046 142.776 241.264 143.043C241.53 143.383 241.542 143.881 241.3 144.233C241.227 144.343 241.034 144.416 241.058 144.549C241.239 145.873 239.654 146.152 239.048 146.529C238.952 146.59 238.843 146.675 238.806 146.784C238.697 147.051 238.964 147.306 239.169 147.513C239.702 148.072 239.908 148.922 239.69 149.651C239.629 149.857 239.533 150.051 239.363 150.185C239.109 150.379 238.734 150.391 238.504 150.622C238.274 150.865 238.298 151.278 238.08 151.521C237.596 152.08 236.494 151.436 236.022 151.995C235.841 152.213 235.841 152.541 235.853 152.821C235.877 153.234 235.889 153.647 235.913 154.047C235.925 154.205 235.925 154.363 235.841 154.497C235.78 154.606 235.671 154.679 235.586 154.764C235.223 155.177 235.502 155.869 235.223 156.343C235.078 156.586 234.812 156.732 234.582 156.902C234.352 157.084 234.158 157.363 234.243 157.63C234.291 157.788 234.473 158.031 234.594 158.092C235.102 158.359 235.756 158.311 236.192 158.687C236.627 159.064 236.809 159.805 236.409 160.218C236.022 160.631 235.272 160.048 234.812 160.375C234.569 160.546 234.921 160.946 234.957 161.238C234.993 161.529 234.618 161.578 234.521 161.857C234.412 162.173 234.933 162.44 234.775 162.732C234.642 162.963 234.388 163.096 234.231 163.315C234.013 163.618 234.013 164.019 234.073 164.396C234.218 165.21 234.63 165.975 234.715 166.801C234.739 167.056 234.739 167.359 234.933 167.529C235.151 167.724 235.489 167.675 235.756 167.566C236.022 167.457 236.301 167.311 236.579 167.347C236.966 167.396 237.233 167.772 237.354 168.149C237.475 168.525 237.487 168.926 237.632 169.291C237.935 170.032 238.746 170.542 238.855 171.343C238.867 171.453 238.879 171.586 238.964 171.659C239.048 171.732 239.182 171.72 239.291 171.744C239.617 171.817 239.763 172.23 239.714 172.57C239.666 172.91 239.484 173.214 239.424 173.542C239.363 173.87 239.472 174.295 239.787 174.404C240.247 174.562 240.634 173.979 241.106 173.882C241.639 173.76 242.111 174.258 242.377 174.744C242.547 175.06 242.692 175.412 242.656 175.764C242.607 176.238 242.281 176.627 242.002 177.015C241.736 177.404 241.506 177.914 241.712 178.352C241.857 178.667 242.184 178.837 242.486 178.995C242.958 179.238 243.6 179.275 243.903 179.712C244.254 180.198 243.782 180.963 243.951 181.534C244.012 181.752 244.145 181.959 244.181 182.19C244.217 182.42 244.121 182.7 243.891 182.748C243.721 182.785 243.539 182.676 243.37 182.7C243.152 182.736 243.019 182.955 242.971 183.174C242.922 183.392 242.91 183.623 242.801 183.805C242.716 183.939 242.583 184.036 242.498 184.169C242.268 184.534 242.438 185.044 242.244 185.433C242.099 185.724 241.796 185.882 241.518 186.04C241.239 186.198 240.937 186.404 240.876 186.72C240.804 187.036 241.143 187.412 241.421 187.255C241.494 187.218 241.542 187.157 241.603 187.109C241.845 186.951 242.208 187.206 242.159 187.485C242.135 187.619 242.038 187.728 242.002 187.862C241.917 188.166 242.184 188.469 242.159 188.773C242.147 189.064 241.893 189.283 241.651 189.429C241.409 189.574 241.118 189.684 240.937 189.902C240.755 190.133 240.695 190.437 240.501 190.655C240.319 190.85 240.065 190.935 239.811 191.008C239.024 191.251 238.116 191.481 237.426 191.032C237.039 190.789 236.797 190.364 236.422 190.109C236.046 189.854 235.405 189.854 235.247 190.291C235.187 190.461 235.223 190.643 235.247 190.813C235.296 191.178 235.284 191.579 235.066 191.882C234.86 192.186 234.388 192.332 234.097 192.113C233.892 191.955 233.734 191.615 233.48 191.676C233.335 191.712 233.25 191.846 233.153 191.955C232.778 192.344 232.124 192.247 231.664 191.955C231.204 191.676 230.829 191.251 230.345 191.02C229.57 190.668 228.565 190.959 228.093 191.664C227.754 192.162 227.028 192.356 226.81 192.915C226.774 193 226.749 193.085 226.774 193.17C226.798 193.328 226.943 193.425 227.016 193.57C227.173 193.85 227.04 194.19 226.919 194.469C226.834 194.664 226.749 194.87 226.653 195.064C226.604 195.174 226.532 195.307 226.398 195.307C226.338 195.307 226.277 195.271 226.229 195.222C226.023 195.028 225.951 194.749 225.817 194.494C225.624 194.117 225.309 193.813 224.934 193.643C224.522 193.461 224.062 193.425 223.626 193.291C223.324 193.194 222.973 193.06 222.694 193.218C222.258 193.461 222.404 194.166 222.065 194.554C221.859 194.785 221.52 194.846 221.205 194.882C220.733 194.943 220.261 194.992 219.801 194.882C219.547 194.822 219.293 194.712 219.051 194.797C218.833 194.87 218.699 195.077 218.603 195.271C218.506 195.477 218.421 195.696 218.252 195.842C218.094 196 217.816 196.06 217.646 195.927C217.501 195.805 217.489 195.611 217.453 195.429C217.428 195.247 216.508 194.481 216.436 194.105C216.315 193.449 217.332 193.024 217.259 192.368C217.198 191.797 216.387 191.554 216.303 190.983C216.242 190.607 216.557 190.218 216.436 189.854C216.363 189.623 216.145 189.477 215.988 189.295C215.588 188.834 215.613 188.153 215.407 187.583C215.189 186.951 214.693 186.477 214.208 186.016C213.518 185.36 212.816 184.68 211.957 184.279C211.642 184.133 211.303 184.024 211.025 183.805C210.795 183.623 210.504 183.344 210.25 183.501C210.056 183.623 210.068 183.902 210.044 184.133C209.972 184.874 209.173 185.457 208.446 185.287C208.277 185.25 208.107 185.165 207.998 185.044C207.865 184.886 207.817 184.655 207.793 184.449C207.744 184.169 207.708 183.878 207.659 183.599C207.623 183.392 207.599 183.186 207.659 182.991C207.72 182.821 207.853 182.676 207.986 182.542C208.313 182.202 208.628 181.874 208.955 181.534C209.112 181.364 209.294 181.169 209.294 180.939C209.306 180.246 208.313 180.064 207.72 179.712C207.03 179.311 206.473 178.667 206.158 177.926C206.025 177.611 205.856 177.21 205.505 177.186C205.359 177.173 205.226 177.246 205.105 177.331C204.851 177.501 204.645 177.744 204.512 178.024C204.452 178.145 204.403 178.279 204.318 178.4C204.234 178.509 204.101 178.594 203.955 178.57C203.592 178.497 203.653 177.793 203.289 177.756C203.108 177.732 202.963 177.902 202.793 177.963C202.454 178.084 202.139 177.756 201.801 177.647C201.595 177.574 201.377 177.586 201.171 177.598C200.626 177.623 200.082 177.647 199.549 177.781C199.464 177.805 199.367 177.829 199.283 177.781C199.234 177.756 199.198 177.708 199.174 177.659C199.004 177.38 198.956 177.028 199.028 176.712C199.089 176.457 199.222 176.214 199.21 175.959C199.198 175.679 199.016 175.436 198.835 175.23C198.798 175.181 198.762 175.145 198.702 175.121C198.508 175.036 198.338 175.315 198.338 175.534C198.338 175.752 198.375 176.007 198.205 176.141C198.048 176.25 197.83 176.177 197.673 176.068C197.515 175.959 197.382 175.813 197.188 175.777C197.043 175.74 196.886 175.789 196.728 175.777C196.535 175.764 196.365 175.643 196.281 175.473C196.111 175.157 196.268 174.768 196.389 174.441C196.523 174.1 196.607 173.687 196.353 173.432C195.76 172.825 195.518 171.926 195.094 171.185C194.997 171.028 194.864 170.845 194.683 170.87C194.586 170.882 194.513 170.967 194.416 171.015C194.211 171.125 193.968 171.04 193.751 170.955C192.673 170.53 191.584 170.104 190.506 169.679C190.131 169.534 189.719 169.351 189.526 168.999C189.393 168.756 189.381 168.465 189.296 168.197C189.078 167.542 188.315 167.129 187.649 167.299C187.419 167.359 187.177 167.481 186.947 167.42C186.79 167.372 186.669 167.25 186.512 167.202C186.282 167.129 186.027 167.262 185.846 167.432C185.664 167.602 185.555 167.821 185.386 168.015C184.72 168.78 183.473 168.781 182.602 168.27C182.323 168.1 181.996 167.882 181.694 168.003C181.464 168.088 181.331 168.355 181.088 168.416C180.834 168.477 180.58 168.258 180.52 168.003C180.459 167.748 180.556 167.481 180.689 167.25C180.822 167.019 180.992 166.825 181.113 166.582C181.415 165.987 181.331 165.27 181.246 164.602C181.173 164.044 181.076 163.448 180.665 163.06C180.411 162.817 180.314 162.537 180.265 162.173C180.229 161.918 180.193 161.651 180.168 161.396C180.144 161.226 180.132 161.031 180.253 160.91C180.326 160.825 180.435 160.801 180.532 160.74C180.665 160.643 180.725 160.497 180.798 160.351C181.088 159.72 181.367 159.088 181.657 158.456C181.791 158.177 181.912 157.886 181.972 157.57C182.033 157.217 181.996 156.865 181.96 156.513C181.887 155.966 181.766 155.359 181.294 155.068C181.088 154.946 180.834 154.898 180.653 154.74C180.35 154.485 180.326 154.023 180.132 153.683C179.854 153.185 179.261 152.979 178.704 152.869C178.147 152.772 177.566 152.723 177.082 152.432C176.948 152.359 176.839 152.25 176.755 152.128C176.694 152.031 176.658 151.934 176.634 151.825C176.537 151.485 176.501 151.12 176.525 150.756C176.549 150.246 176.791 149.845 177.191 149.529C177.59 149.213 178.05 148.934 178.244 148.46C178.522 147.792 178.135 147.039 178.111 146.31C178.098 145.812 178.28 145.314 178.595 144.938C178.764 144.731 179.394 144.646 179.491 144.403C179.6 144.112 179.091 143.699 178.946 143.432C178.801 143.165 178.595 142.922 178.425 142.667C178.268 142.399 178.147 142.096 178.195 141.792C178.244 141.488 178.522 141.209 178.837 141.246C178.97 141.258 179.103 141.343 179.236 141.331C179.454 141.318 179.599 141.1 179.66 140.893C179.854 140.31 179.575 139.715 179.309 139.156C179.212 138.962 179.309 138.792 179.466 138.634C179.612 138.476 179.817 138.391 180.023 138.33C180.229 138.27 180.483 138.245 180.653 138.379C180.798 138.501 180.858 138.695 180.931 138.865C181.004 139.035 181.113 139.193 181.246 139.326C181.306 139.387 181.391 139.448 181.476 139.448C181.609 139.448 181.706 139.314 181.706 139.193C181.718 139.059 181.645 138.938 181.585 138.828C181.512 138.719 181.439 138.61 181.415 138.488C181.331 138.136 181.645 137.723 181.452 137.407C181.403 137.322 181.318 137.274 181.246 137.201C180.979 136.922 181.016 136.436 181.246 136.12C181.476 135.804 181.839 135.622 182.214 135.488C182.359 135.44 182.517 135.391 182.626 135.282C182.832 135.075 182.795 134.541 182.505 134.529C181.306 134.504 181.996 133.46 181.706 133.193C181.561 133.047 181.343 133.338 181.185 133.472C180.846 133.764 180.374 133.606 179.951 133.448C179.539 133.302 179.176 133.193 178.897 132.84C178.752 132.646 178.558 132.428 178.328 132.476C178.123 132.525 178.038 132.755 177.941 132.938C177.529 133.764 176.597 134.164 175.762 134.553C175.496 134.687 175.217 134.82 175.024 135.051C174.806 135.306 174.721 135.646 174.648 135.986C174.576 136.314 174.491 136.642 174.503 136.982C174.503 137.079 174.515 137.177 174.503 137.274C174.431 137.614 174.031 137.747 173.704 137.845C172.845 138.088 171.985 138.476 171.416 139.169C170.787 139.934 170.133 140.857 170.133 141.853C170.133 142.399 171.114 142.521 171.198 143.055C171.223 143.225 171.186 143.407 171.15 143.578C171.065 144.015 170.569 146.638 170.617 147.051C170.629 147.148 171.138 148.339 170.496 148.594C170.339 148.655 170.169 148.557 170 148.545C168.947 148.448 168.16 149.529 167.143 149.772C166.308 149.966 165.376 149.578 164.589 149.942C163.899 150.27 163.475 151.132 162.713 151.205C162.313 151.242 161.853 151.072 161.551 151.339C161.345 151.533 161.345 151.861 161.26 152.14C161.115 152.59 160.679 152.906 160.219 153.039C159.759 153.173 159.275 153.173 158.803 153.185C158.561 153.185 158.306 153.197 158.088 153.306C157.883 153.404 157.725 153.586 157.556 153.732C157.253 153.999 156.902 154.193 156.515 154.315C156.442 154.339 156.369 154.351 156.297 154.339C156.176 154.315 156.091 154.193 156.006 154.096C155.704 153.719 155.244 153.477 154.772 153.416C154.312 153.367 153.936 152.93 153.488 152.869C153.21 152.833 152.932 152.869 152.641 152.881C151.999 152.918 151.346 152.894 150.716 152.784C150.583 152.76 150.438 152.736 150.317 152.663C149.942 152.432 149.893 151.813 149.482 151.667C149.264 151.594 149.009 151.679 148.779 151.618C148.501 151.545 148.319 151.254 148.041 151.181C147.751 151.096 147.46 151.266 147.182 151.387C146.782 151.57 146.334 151.679 145.898 151.606C145.523 151.545 145.148 151.351 144.797 151.472C144.555 151.557 144.385 151.764 144.179 151.91C143.78 152.189 143.272 152.238 142.799 152.262C142.4 152.286 142.013 152.323 141.613 152.347C141.444 152.359 141.238 152.359 141.141 152.201C141.105 152.14 141.093 152.055 141.093 151.983C141.081 151.606 141.081 151.145 140.754 150.962C140.524 150.841 140.173 150.732 140.039 150.489C140.003 150.428 139.979 150.367 139.918 150.331C139.882 150.306 139.834 150.306 139.797 150.306C139.555 150.306 139.325 150.379 139.083 150.367C138.841 150.355 138.575 150.221 138.526 149.991C138.478 149.736 138.684 149.505 138.865 149.323C139.119 149.043 139.325 148.715 139.483 148.363C139.555 148.205 139.592 147.987 139.434 147.902C139.325 147.841 139.18 147.902 139.047 147.914C138.829 147.926 138.647 147.744 138.526 147.561C138.405 147.379 138.321 147.173 138.151 147.027C138.054 146.954 137.945 146.906 137.861 146.821C137.679 146.638 137.667 146.347 137.679 146.092C137.679 145.91 137.691 145.715 137.812 145.594C137.909 145.497 138.042 145.46 138.151 145.399C138.405 145.266 138.563 145.011 138.659 144.731C138.744 144.464 138.781 144.173 138.829 143.893C138.865 143.687 138.914 143.48 139.047 143.31C139.168 143.14 139.398 143.031 139.592 143.092C139.749 143.14 139.858 143.274 140.003 143.335C140.257 143.444 140.56 143.322 140.766 143.14C140.972 142.958 141.117 142.703 141.286 142.497C141.541 142.181 141.892 141.938 142.267 141.804C142.497 141.719 142.739 141.671 142.957 141.573C143.175 141.464 143.381 141.294 143.429 141.051C143.489 140.76 143.32 140.468 143.151 140.225C142.86 139.788 142.545 139.351 142.134 139.035C142.013 138.95 141.892 138.865 141.807 138.743C141.722 138.61 141.71 138.44 141.686 138.282C141.662 137.917 141.625 137.565 141.601 137.201C141.589 136.982 141.771 136.873 141.855 136.666C141.916 136.533 141.904 136.375 141.879 136.229C141.855 135.986 141.807 135.743 141.746 135.5C141.71 135.367 141.674 135.221 141.577 135.112C141.492 135.002 141.335 134.942 141.202 134.99C141.117 135.027 141.056 135.1 140.984 135.148C140.802 135.282 140.56 135.282 140.342 135.245C140.124 135.209 139.906 135.136 139.688 135.124C139.471 135.124 139.228 135.221 139.132 135.415C139.095 135.488 139.083 135.573 139.047 135.646C138.974 135.756 138.841 135.816 138.708 135.828C138.575 135.828 138.442 135.792 138.321 135.743C138.042 135.658 137.752 135.549 137.582 135.318C137.425 135.112 137.376 134.832 137.413 134.565C137.449 134.31 137.57 134.067 137.715 133.836C137.861 133.594 138.03 133.363 138.212 133.156C138.466 132.865 138.781 132.561 138.817 132.172C138.853 131.772 138.587 131.407 138.587 131.006C138.587 130.739 138.696 130.496 138.781 130.241C138.938 129.78 138.974 129.282 138.902 128.796C138.853 128.431 138.611 128.043 138.756 127.703C138.998 127.12 139.846 126.986 140.124 126.415C140.197 126.269 140.233 126.099 140.294 125.954C140.451 125.541 140.826 125.261 141.189 125.006C141.516 124.776 141.843 124.557 142.17 124.35C142.4 124.205 142.666 124.022 142.715 123.755C142.739 123.597 142.691 123.452 142.642 123.306C142.557 123.087 142.473 122.869 142.364 122.65C142.206 122.346 141.976 122.006 141.625 121.994C141.432 121.994 141.262 122.091 141.068 122.091C140.838 122.091 140.621 121.946 140.475 121.763C140.33 121.581 140.221 121.362 140.088 121.18C139.943 120.974 139.725 120.792 139.483 120.792C139.216 120.792 138.962 121.035 138.974 121.314C138.986 121.666 139.337 121.909 139.543 122.188C139.858 122.601 139.858 123.257 139.471 123.61C139.349 123.719 139.18 123.804 139.011 123.792C138.877 123.78 138.756 123.719 138.647 123.658C138.308 123.452 138.006 123.184 137.764 122.869C137.606 122.662 137.461 122.431 137.243 122.286C137.122 122.201 136.965 122.14 136.88 122.006C136.819 121.909 136.807 121.788 136.807 121.666C136.807 121.253 136.88 120.84 137.025 120.439C137.158 120.087 137.025 119.65 136.735 119.395C136.577 119.261 136.347 119.213 136.178 119.079C135.912 118.873 135.815 118.484 135.524 118.338C135.173 118.168 134.701 118.423 134.386 118.205C134.193 118.071 134.144 117.816 134.035 117.609C133.769 117.063 131.578 115.241 131.36 114.464C131.312 114.294 131.275 114.111 131.118 114.014C130.973 113.917 130.767 113.966 130.609 114.063C130.295 114.257 130.101 114.621 129.786 114.816C129.072 115.265 128.116 114.706 127.305 114.925C126.566 115.119 125.852 115.472 125.332 116.03C125.126 116.249 124.956 116.504 124.702 116.662C124.363 116.868 123.927 116.832 123.54 116.783C123.419 116.771 123.286 116.747 123.189 116.674C122.947 116.48 123.019 116.091 122.85 115.824C122.705 115.605 122.438 115.532 122.221 115.399C121.869 115.192 121.652 114.828 121.397 114.512C121.143 114.196 120.78 113.917 120.368 113.953C119.703 114.026 119.545 115.302 118.892 115.229C118.637 115.192 118.928 114.743 118.928 114.488C118.928 114.16 118.444 113.966 118.214 114.196C118.165 114.245 118.129 114.306 118.081 114.342C117.923 114.451 117.717 114.33 117.56 114.221C117.221 114.014 116.773 113.893 116.458 114.111C116.374 114.172 116.301 114.257 116.216 114.306C115.781 114.597 115.103 114.245 114.727 114.597C114.413 114.901 114.582 115.447 114.413 115.86C114.34 116.03 114.219 116.164 114.134 116.334C114.037 116.553 114.025 116.808 114.025 117.051C114.025 117.451 114.171 117.877 114.013 118.241C113.965 118.362 113.747 118.253 113.686 118.132C113.626 118.01 113.638 117.877 113.602 117.743C113.565 117.597 113.456 117.464 113.311 117.415C113.166 117.366 112.984 117.439 112.924 117.573C112.851 117.743 112.972 117.937 113.117 118.071C113.251 118.205 113.42 118.326 113.456 118.508C113.505 118.763 113.226 119.006 112.972 118.982C112.682 118.945 112.512 118.654 112.367 118.423C112.149 118.071 111.967 117.682 111.749 117.318C111.326 116.601 110.866 115.909 110.382 115.241C110.297 115.132 110.212 115.022 110.164 114.889C109.946 114.354 110.309 113.698 110.055 113.176C109.97 112.994 109.813 112.86 109.728 112.678C109.607 112.411 109.679 112.107 109.788 111.852C109.909 111.597 110.079 111.354 110.2 111.099C110.43 110.589 110.418 110.018 110.503 109.459C110.539 109.216 110.587 108.974 110.587 108.719C110.575 108.5 110.527 108.281 110.478 108.075C110.369 107.638 110.454 107.152 110.345 106.714C110.236 106.301 110.261 106.046 110.103 105.646C110.018 105.439 109.934 105.038 109.897 104.82C109.861 104.613 109.994 104.297 109.958 104.091C109.897 103.787 109.232 103.702 108.953 103.569C108.239 103.216 108.372 102.111 107.9 101.467C107.67 101.152 107.355 100.921 107.125 100.605C107.053 100.508 106.992 100.411 106.907 100.338C106.823 100.265 106.689 100.216 106.581 100.253C106.496 100.277 106.435 100.35 106.387 100.423C106.229 100.641 106.072 100.896 105.818 100.957C105.576 101.018 105.334 100.896 105.152 100.726C104.983 100.556 104.862 100.326 104.728 100.119C104.668 100.022 104.595 99.9369 104.498 99.8762C104.402 99.8155 104.268 99.8033 104.184 99.8762C104.111 99.9369 104.075 100.034 104.002 100.095C103.905 100.18 103.772 100.18 103.639 100.168C103.3 100.156 102.961 100.143 102.622 100.131C102.271 100.119 101.859 100.131 101.654 100.423C101.593 100.508 101.533 100.569 101.436 100.617C101.169 100.763 100.843 100.957 100.673 101.2C100.625 101.261 100.588 101.358 100.516 101.37C100.419 101.394 100.346 101.297 100.31 101.212C100.189 100.933 100.165 100.617 100.141 100.313C100.128 100.143 100.116 99.9734 100.165 99.8155C100.237 99.524 100.455 99.2932 100.685 99.111C100.915 98.9167 101.169 98.7466 101.339 98.5037C101.508 98.2608 101.581 97.9086 101.424 97.6535C101.291 97.447 101.048 97.3498 100.806 97.3134C100.564 97.2891 100.322 97.3134 100.08 97.2891C99.8016 97.2648 99.5232 97.1919 99.2811 97.0583C99.1358 96.9855 99.0026 96.8883 98.8453 96.9004C98.6153 96.9126 98.4579 97.1191 98.3369 97.3134C98.1069 97.6778 97.8648 98.0543 97.8284 98.4794C97.8163 98.6373 97.8284 98.8195 97.7437 98.9531C97.659 99.0867 97.5016 99.1475 97.3563 99.196C96.1942 99.6211 95.0563 100.083 93.9305 100.581C93.7126 100.678 93.4705 100.811 93.2648 100.921C93.2284 100.945 93.1558 100.969 93.0226 100.848C92.6474 100.508 92.5505 99.8641 92.0663 99.6819C91.5821 99.4875 90.9526 99.7669 90.5411 99.439C90.299 99.2568 90.2142 98.9167 89.9842 98.7223C89.6695 98.443 89.1732 98.4916 88.8221 98.2608C88.5558 98.0908 88.4105 97.7992 88.2048 97.5563C87.9142 97.2162 87.4784 96.9855 87.2848 96.5725C87.0305 96.0138 87.3332 95.3579 87.2969 94.7506C87.2848 94.4591 87.1879 94.1797 87.1879 93.9004C87.1879 93.621 87.2969 93.3417 87.3332 93.0623C87.4421 92.4307 87.2605 91.787 87.0911 91.1675C86.8732 90.378 86.9337 89.5278 86.5221 88.8355C86.3526 88.5561 86.1105 88.2889 86.05 87.961C86.0258 87.8274 86.0379 87.6938 86.0137 87.5723C85.9411 87.2808 85.6748 87.0865 85.5053 86.8436C85.3479 86.6249 85.2632 86.3456 85.2753 86.0662C85.2753 85.9205 85.3116 85.7626 85.3116 85.6168C85.3116 85.3617 85.2026 85.131 85.1058 84.9002C85.009 84.6694 84.9121 84.4386 84.9121 84.1836C84.9121 83.9285 85.0453 83.6734 85.2753 83.5763C85.3721 83.5398 85.4932 83.5398 85.6021 83.5155C85.8563 83.467 86.0621 83.2848 86.2679 83.1147C86.4253 82.9811 86.5947 82.7625 86.4616 82.6046C86.4011 82.5317 86.3163 82.5074 86.2316 82.4588C85.9774 82.3252 85.8805 81.9973 85.9411 81.7058C86.0016 81.4264 86.3284 81.2685 86.4011 80.9892C86.4616 80.7341 86.159 80.5155 85.9411 80.3454C85.82 80.2483 85.7837 80.1147 85.7111 79.9811C85.59 79.7624 85.4326 79.5074 85.1784 79.4831C85.0332 79.4709 84.8879 79.5438 84.7548 79.6045C84.3795 79.7503 83.9679 79.7139 83.5684 79.6774C83.3748 79.6531 83.1447 79.6045 83.0721 79.4345C82.9874 79.2523 83.0963 78.9608 82.9147 78.8636C82.8542 78.8272 82.7695 78.8393 82.6969 78.8393C82.4063 78.8272 82.1521 78.5721 82.0916 78.2806C82.0432 77.9891 82.249 77.9041 82.479 77.7219C82.6 77.6247 82.6969 77.5883 82.7211 77.4304C82.7453 77.2725 82.249 76.8838 82.1279 76.7745C81.2684 75.9364 81.6921 75.8028 81.2442 75.2806C80.8811 74.8797 80.8326 74.2846 80.53 73.8352C80.2516 73.4222 79.9005 72.9971 79.9126 72.4991C79.9248 72.3048 79.949 72.0376 79.7674 71.9647C79.5495 71.8675 79.3921 72.1833 79.2469 72.3655C78.9926 72.6813 78.4116 72.657 78.1937 72.3048C78.109 72.1712 78.0726 72.0133 77.9758 71.8797C77.879 71.7461 77.6853 71.6732 77.5642 71.7704C77.3947 71.9161 77.5642 72.1955 77.5642 72.4262C77.5521 72.8514 76.9347 72.9364 76.6684 73.2643C76.499 73.4829 76.4626 73.8109 76.2205 73.9202C76.0511 73.9931 75.8453 73.9202 75.7121 73.7987C75.579 73.6773 75.4821 73.5072 75.3732 73.3615C75.1553 73.0578 74.7558 72.7906 74.429 72.9728C74.2111 73.0943 74.1384 73.3615 73.9811 73.5558C73.7753 73.8352 73.4 73.9809 73.0611 73.9202C72.7584 73.8595 72.4679 73.653 72.1532 73.6773C71.8869 73.7016 71.669 73.8959 71.4632 74.066C71.0516 74.4425 70.6279 74.819 70.2163 75.1955C70.0469 75.3413 69.8774 75.4992 69.7805 75.7057C69.6716 75.9121 69.5869 76.2158 69.3569 76.2279C69.1511 76.2522 69.0058 76.0215 68.909 75.8393C68.8121 75.6449 68.6426 75.4385 68.4369 75.487C68.3521 75.5113 68.2916 75.5721 68.2311 75.6328C68.0979 75.7664 67.9526 75.9121 67.8195 76.0458C67.6016 76.2644 67.3716 76.5559 67.4684 76.8474C67.5653 77.1389 67.9769 77.3697 67.8437 77.6369C67.7105 77.9041 67.2626 77.7219 66.9963 77.8798C66.7784 78.0134 66.7784 78.3049 66.7905 78.56C66.8269 79.2159 67.529 80.0296 66.839 80.309C66.4516 80.4669 66.4153 80.224 66.1611 80.2847C65.8948 80.3454 65.8948 80.5519 65.8948 80.8191C65.8948 81.0256 66.2458 81.4264 65.5679 81.6208C65.2774 81.7058 64.9505 81.5479 64.8295 81.2807C64.6963 81.0135 64.7205 80.6612 64.4905 80.4669C64.4058 80.394 64.2969 80.3697 64.2 80.3454C64.0184 80.309 63.8248 80.2969 63.6432 80.3333C63.51 80.3576 63.3769 80.394 63.2437 80.3819C63.0863 80.3697 62.9411 80.2969 62.8079 80.1997C62.3358 79.8839 62.0211 79.3495 61.9484 78.7907C61.9484 78.7422 61.9363 78.6936 61.9121 78.6571C61.8758 78.5843 61.7911 78.56 61.7063 78.56C61.3916 78.5478 61.1737 78.8515 60.8953 78.9972C60.75 79.0701 60.5321 79.1308 60.3748 79.0823C60.2053 79.0337 59.8542 78.815 59.7332 78.6693C59.4426 78.3292 57.9779 78.4264 58.1595 76.2522C58.1716 76.1551 58.1716 76.0579 58.1474 75.9607C58.0869 75.6571 57.76 75.4992 57.4816 75.3777C57.1669 75.2441 56.8158 75.0741 56.7069 74.7461C56.5616 74.3332 56.8037 73.8109 56.5132 73.4829C56.4042 73.3736 56.259 73.3129 56.1258 73.2522C55.6295 73.0093 55.2663 72.572 54.9153 72.1469C54.8063 72.0133 54.6974 71.8797 54.6369 71.7218C54.5279 71.4181 54.6126 71.0902 54.649 70.7744C54.6853 70.4829 54.649 70.1671 54.4795 69.9242C54.31 69.6812 53.9832 69.657 53.7048 69.7298C53.4505 69.7906 53.2326 69.827 52.9784 69.8756C52.7242 69.9242 52.4216 69.8999 52.2642 69.6934C52.0948 69.4626 52.1311 69.0497 51.8526 69.0011C51.6711 68.9646 51.5258 69.1225 51.4048 69.2561C51.0779 69.5841 50.5937 69.7663 50.1458 69.6934C49.6858 69.6327 49.2742 69.2926 49.1411 68.8432C49.0684 68.576 49.0926 68.2966 49.02 68.0294C48.899 67.6043 48.5237 67.2642 48.4874 66.8148C48.4753 66.7055 48.4874 66.5962 48.4269 66.5111C48.2695 66.2561 47.8458 66.4261 47.6037 66.2439C47.4342 66.1225 47.4221 65.8674 47.5069 65.6852C47.5916 65.4909 47.7369 65.3451 47.8579 65.1872C48.0758 64.9079 48.2332 64.5556 48.1484 64.2034C48.1 63.9969 47.979 63.8147 47.9426 63.6082C47.8942 63.341 48.0032 63.0738 47.9548 62.8188C47.9305 62.673 47.8458 62.5394 47.8095 62.3937C47.7369 62.0536 47.9184 61.7013 47.8458 61.3612C47.7974 61.1305 47.6521 60.924 47.6763 60.6932C47.7005 60.4746 47.8821 60.2438 47.7611 60.0738C47.5795 59.8187 47.0953 60.1223 46.9016 59.8794C46.829 59.7823 46.8411 59.6365 46.8774 59.5272C46.9742 59.2114 47.1921 58.9442 47.4826 58.7741C47.6158 58.7013 47.7732 58.6405 47.8821 58.5434C48.0879 58.349 48.2695 58.1426 48.439 57.9118C48.6326 57.6689 48.4511 57.2802 48.7053 57.098C48.8021 57.0251 48.9232 56.9887 49.0079 56.9158C49.2258 56.7215 49.1895 56.3571 49.0563 56.102C48.9232 55.8348 48.7174 55.6162 48.6326 55.3368C48.56 55.0818 48.5842 54.8024 48.4995 54.5595C48.4148 54.3166 48.2332 54.1344 48.0758 53.94C47.9184 53.7457 47.7853 53.5028 47.8337 53.2477C47.8579 53.102 47.9426 52.9683 47.8942 52.8347C47.8458 52.7011 47.7005 52.6404 47.5795 52.5797C46.8653 52.2639 46.2479 51.7416 45.8242 51.0857C45.7032 50.8914 45.5821 50.6606 45.6305 50.4298C45.6548 50.3327 45.7032 50.2355 45.7395 50.1383C45.909 49.5796 45.6305 49.0209 45.6305 48.4379C45.6305 45.8265 44.7105 44.2961 44.2869 43.6402C44.1295 43.3973 43.9721 43.1544 43.9479 42.8629C43.8753 42.1463 44.6016 41.6483 45.2311 41.3082C48.1848 39.7414 51.1384 38.1745 54.08 36.6077C57.2516 34.9194 60.4595 33.2189 63.159 30.8505C64.2726 29.8788 65.3137 28.7735 66.6574 28.1541C67.42 27.8018 68.2553 27.6318 69.0058 27.2674C69.7805 26.8909 70.4342 26.3322 71.1 25.7856C72.5526 24.5588 74.0174 23.32 75.47 22.0932C75.9179 21.7167 76.3779 21.328 76.8984 21.0487C77.3947 20.7936 77.9395 20.6357 78.4721 20.4292C79.7432 20.0162 82.5274 19.4818 81.8132 17.9757Z" fill="#FFD5CF"/>
<circle cx="154.636" cy="66.8298" r="5.12566" fill="#F62727"/>
<circle cx="154.581" cy="66.8784" r="8.91895" stroke="#F62727"/>
<rect x="77" y="87.0005" width="173" height="40" rx="20" fill="#F62727"/>
<path d="M94.6 113V101.8H98.6C99.9333 101.8 100.904 102.083 101.512 102.648C102.131 103.203 102.44 103.918 102.44 104.792C102.44 105.368 102.28 105.864 101.96 106.28C101.64 106.686 101.245 106.979 100.776 107.16C101.437 107.31 101.96 107.614 102.344 108.072C102.728 108.52 102.92 109.107 102.92 109.832C102.92 110.44 102.787 110.984 102.52 111.464C102.253 111.934 101.827 112.307 101.24 112.584C100.653 112.862 99.88 113 98.92 113H94.6ZM96.104 111.688H98.92C99.88 111.688 100.536 111.518 100.888 111.176C101.24 110.824 101.416 110.36 101.416 109.784C101.416 109.198 101.24 108.734 100.888 108.392C100.536 108.04 99.8747 107.864 98.904 107.864H96.104V111.688ZM96.104 106.616H98.6C99.496 106.616 100.109 106.451 100.44 106.12C100.771 105.79 100.936 105.368 100.936 104.856C100.936 104.334 100.771 103.912 100.44 103.592C100.109 103.272 99.496 103.112 98.6 103.112H96.104V106.616ZM108.519 113.16C107.804 113.16 107.132 113.006 106.503 112.696C105.884 112.387 105.383 111.912 104.999 111.272C104.625 110.632 104.439 109.822 104.439 108.84V108.52C104.439 107.582 104.62 106.808 104.983 106.2C105.345 105.582 105.825 105.123 106.423 104.824C107.02 104.515 107.665 104.36 108.359 104.36C109.607 104.36 110.572 104.702 111.255 105.384C111.937 106.067 112.279 107.032 112.279 108.28V109.176H105.847C105.847 109.838 105.98 110.366 106.247 110.76C106.524 111.155 106.865 111.443 107.271 111.624C107.687 111.795 108.103 111.88 108.519 111.88C109.159 111.88 109.649 111.774 109.991 111.56C110.343 111.347 110.593 111.054 110.743 110.68H112.119C111.948 111.491 111.527 112.11 110.855 112.536C110.193 112.952 109.415 113.16 108.519 113.16ZM108.439 105.64C108.001 105.64 107.585 105.726 107.191 105.896C106.796 106.056 106.471 106.312 106.215 106.664C105.969 107.016 105.847 107.47 105.847 108.024H110.951C110.94 107.438 110.817 106.974 110.583 106.632C110.359 106.28 110.06 106.03 109.687 105.88C109.313 105.72 108.897 105.64 108.439 105.64ZM116.84 113.08C116.253 113.08 115.773 112.99 115.4 112.808C115.037 112.616 114.771 112.323 114.6 111.928C114.44 111.523 114.36 111 114.36 110.36V101.8H115.768V110.36C115.768 110.915 115.859 111.294 116.04 111.496C116.221 111.699 116.541 111.8 117 111.8C117.117 111.8 117.219 111.8 117.304 111.8C117.389 111.79 117.475 111.779 117.56 111.768V113.016C117.507 113.027 117.432 113.038 117.336 113.048C117.251 113.059 117.16 113.064 117.064 113.064C116.979 113.075 116.904 113.08 116.84 113.08ZM122.609 116.36C121.787 116.36 121.121 116.254 120.609 116.04C120.097 115.827 119.718 115.539 119.473 115.176C119.227 114.814 119.073 114.408 119.009 113.96H120.481C120.587 114.302 120.79 114.574 121.089 114.776C121.387 114.979 121.894 115.08 122.609 115.08C123.473 115.08 124.107 114.872 124.513 114.456C124.918 114.04 125.121 113.448 125.121 112.68V111.32C124.875 111.886 124.497 112.307 123.985 112.584C123.483 112.862 122.891 113 122.209 113C121.515 113 120.902 112.84 120.369 112.52C119.835 112.2 119.419 111.726 119.121 111.096C118.833 110.467 118.689 109.688 118.689 108.76V108.44C118.689 107.566 118.838 106.83 119.137 106.232C119.446 105.624 119.862 105.16 120.385 104.84C120.918 104.52 121.526 104.36 122.209 104.36C122.934 104.36 123.563 104.526 124.097 104.856C124.63 105.176 125.003 105.598 125.217 106.12V104.52H126.529V112.68C126.529 113.832 126.193 114.734 125.521 115.384C124.849 116.035 123.878 116.36 122.609 116.36ZM122.529 111.752C123.041 111.752 123.489 111.646 123.873 111.432C124.267 111.219 124.571 110.926 124.785 110.552C125.009 110.168 125.121 109.731 125.121 109.24V107.96C125.121 107.523 125.009 107.128 124.785 106.776C124.571 106.424 124.267 106.142 123.873 105.928C123.489 105.715 123.041 105.608 122.529 105.608C121.846 105.608 121.27 105.859 120.801 106.36C120.331 106.862 120.097 107.555 120.097 108.44V108.76C120.097 109.731 120.331 110.472 120.801 110.984C121.27 111.496 121.846 111.752 122.529 111.752ZM129.253 113V104.52H130.661V113H129.253ZM129.957 103.4C129.679 103.4 129.45 103.31 129.269 103.128C129.087 102.947 128.997 102.718 128.997 102.44C128.997 102.163 129.087 101.934 129.269 101.752C129.45 101.571 129.679 101.48 129.957 101.48C130.234 101.48 130.463 101.571 130.645 101.752C130.826 101.934 130.917 102.163 130.917 102.44C130.917 102.718 130.826 102.947 130.645 103.128C130.463 103.31 130.234 103.4 129.957 103.4ZM136.366 113.16C135.342 113.16 134.574 112.867 134.062 112.28C133.55 111.694 133.294 110.787 133.294 109.56V104.52H134.702V109.48C134.702 110.27 134.862 110.867 135.182 111.272C135.512 111.678 136.046 111.88 136.782 111.88C137.315 111.88 137.752 111.763 138.094 111.528C138.435 111.294 138.686 110.995 138.846 110.632C139.006 110.259 139.086 109.875 139.086 109.48V104.52H140.494V113H139.182V111.4C138.99 111.87 138.654 112.28 138.174 112.632C137.694 112.984 137.091 113.16 136.366 113.16ZM143.061 113V104.52H144.373V106.12C144.555 105.598 144.864 105.176 145.301 104.856C145.749 104.526 146.256 104.36 146.821 104.36C147.557 104.36 148.123 104.52 148.517 104.84C148.912 105.15 149.184 105.55 149.333 106.04C149.611 105.518 149.963 105.107 150.389 104.808C150.827 104.51 151.349 104.36 151.957 104.36C152.832 104.36 153.515 104.627 154.005 105.16C154.496 105.683 154.741 106.51 154.741 107.64V113H153.333V107.96C153.333 107.118 153.184 106.52 152.885 106.168C152.597 105.816 152.155 105.64 151.557 105.64C151.216 105.64 150.896 105.736 150.597 105.928C150.299 106.11 150.059 106.376 149.877 106.728C149.696 107.07 149.605 107.48 149.605 107.96V113H148.197V107.96C148.197 107.118 148.048 106.52 147.749 106.168C147.451 105.816 147.008 105.64 146.421 105.64C146.08 105.64 145.76 105.736 145.461 105.928C145.163 106.11 144.923 106.376 144.741 106.728C144.56 107.07 144.469 107.48 144.469 107.96V113H143.061ZM156.818 115.4L157.458 113V111.24H159.218V113L157.618 115.4H156.818ZM166.334 113V101.8H170.334C171.668 101.8 172.638 102.083 173.246 102.648C173.865 103.203 174.174 103.918 174.174 104.792C174.174 105.368 174.014 105.864 173.694 106.28C173.374 106.686 172.98 106.979 172.51 107.16C173.172 107.31 173.694 107.614 174.078 108.072C174.462 108.52 174.654 109.107 174.654 109.832C174.654 110.44 174.521 110.984 174.254 111.464C173.988 111.934 173.561 112.307 172.974 112.584C172.388 112.862 171.614 113 170.654 113H166.334ZM167.838 111.688H170.654C171.614 111.688 172.27 111.518 172.622 111.176C172.974 110.824 173.15 110.36 173.15 109.784C173.15 109.198 172.974 108.734 172.622 108.392C172.27 108.04 171.609 107.864 170.638 107.864H167.838V111.688ZM167.838 106.616H170.334C171.23 106.616 171.844 106.451 172.174 106.12C172.505 105.79 172.67 105.368 172.67 104.856C172.67 104.334 172.505 103.912 172.174 103.592C171.844 103.272 171.23 103.112 170.334 103.112H167.838V106.616ZM176.733 113V104.52H178.045V106.12C178.173 105.779 178.349 105.48 178.573 105.224C178.797 104.958 179.069 104.75 179.389 104.6C179.72 104.44 180.088 104.36 180.493 104.36C180.706 104.36 180.877 104.371 181.005 104.392C181.144 104.414 181.266 104.44 181.373 104.472V105.784C181.234 105.731 181.096 105.694 180.957 105.672C180.829 105.651 180.648 105.64 180.413 105.64C179.986 105.64 179.602 105.742 179.261 105.944C178.92 106.147 178.648 106.43 178.445 106.792C178.242 107.144 178.141 107.56 178.141 108.04V113H176.733ZM185.96 113.16C184.936 113.16 184.168 112.867 183.656 112.28C183.144 111.694 182.888 110.787 182.888 109.56V104.52H184.296V109.48C184.296 110.27 184.456 110.867 184.776 111.272C185.106 111.678 185.64 111.88 186.376 111.88C186.909 111.88 187.346 111.763 187.688 111.528C188.029 111.294 188.28 110.995 188.44 110.632C188.6 110.259 188.68 109.875 188.68 109.48V104.52H190.088V113H188.776V111.4C188.584 111.87 188.248 112.28 187.768 112.632C187.288 112.984 186.685 113.16 185.96 113.16ZM195.615 113.16C195.05 113.16 194.559 113.096 194.143 112.968C193.727 112.83 193.38 112.648 193.103 112.424C192.826 112.2 192.602 111.939 192.431 111.64C192.271 111.331 192.159 111.011 192.095 110.68H193.503C193.578 111.022 193.775 111.32 194.095 111.576C194.426 111.822 194.932 111.944 195.615 111.944C196.404 111.944 196.954 111.822 197.263 111.576C197.572 111.32 197.727 111.022 197.727 110.68C197.727 110.446 197.658 110.243 197.519 110.072C197.391 109.891 197.156 109.736 196.815 109.608C196.484 109.48 196.01 109.374 195.391 109.288C194.922 109.224 194.5 109.134 194.127 109.016C193.754 108.888 193.434 108.723 193.167 108.52C192.9 108.318 192.692 108.072 192.543 107.784C192.404 107.496 192.335 107.155 192.335 106.76C192.335 106.334 192.458 105.939 192.703 105.576C192.948 105.214 193.316 104.92 193.807 104.696C194.298 104.472 194.9 104.36 195.615 104.36C196.287 104.36 196.842 104.478 197.279 104.712C197.727 104.936 198.074 105.235 198.319 105.608C198.564 105.982 198.73 106.392 198.815 106.84H197.407C197.322 106.467 197.14 106.163 196.863 105.928C196.586 105.694 196.17 105.576 195.615 105.576C194.922 105.576 194.436 105.694 194.159 105.928C193.882 106.152 193.743 106.43 193.743 106.76C193.743 107.144 193.892 107.432 194.191 107.624C194.5 107.816 195.06 107.966 195.871 108.072C196.394 108.136 196.858 108.232 197.263 108.36C197.668 108.478 198.01 108.643 198.287 108.856C198.564 109.059 198.772 109.31 198.911 109.608C199.06 109.907 199.135 110.264 199.135 110.68C199.135 111.128 199.007 111.539 198.751 111.912C198.495 112.286 198.106 112.59 197.583 112.824C197.071 113.048 196.415 113.16 195.615 113.16ZM204.099 113.16C203.534 113.16 203.043 113.096 202.627 112.968C202.211 112.83 201.865 112.648 201.587 112.424C201.31 112.2 201.086 111.939 200.915 111.64C200.755 111.331 200.643 111.011 200.579 110.68H201.987C202.062 111.022 202.259 111.32 202.579 111.576C202.91 111.822 203.417 111.944 204.099 111.944C204.889 111.944 205.438 111.822 205.747 111.576C206.057 111.32 206.211 111.022 206.211 110.68C206.211 110.446 206.142 110.243 206.003 110.072C205.875 109.891 205.641 109.736 205.299 109.608C204.969 109.48 204.494 109.374 203.875 109.288C203.406 109.224 202.985 109.134 202.611 109.016C202.238 108.888 201.918 108.723 201.651 108.52C201.385 108.318 201.177 108.072 201.027 107.784C200.889 107.496 200.819 107.155 200.819 106.76C200.819 106.334 200.942 105.939 201.187 105.576C201.433 105.214 201.801 104.92 202.291 104.696C202.782 104.472 203.385 104.36 204.099 104.36C204.771 104.36 205.326 104.478 205.763 104.712C206.211 104.936 206.558 105.235 206.803 105.608C207.049 105.982 207.214 106.392 207.299 106.84H205.891C205.806 106.467 205.625 106.163 205.347 105.928C205.07 105.694 204.654 105.576 204.099 105.576C203.406 105.576 202.921 105.694 202.643 105.928C202.366 106.152 202.227 106.43 202.227 106.76C202.227 107.144 202.377 107.432 202.675 107.624C202.985 107.816 203.545 107.966 204.355 108.072C204.878 108.136 205.342 108.232 205.747 108.36C206.153 108.478 206.494 108.643 206.771 108.856C207.049 109.059 207.257 109.31 207.395 109.608C207.545 109.907 207.619 110.264 207.619 110.68C207.619 111.128 207.491 111.539 207.235 111.912C206.979 112.286 206.59 112.59 206.067 112.824C205.555 113.048 204.899 113.16 204.099 113.16ZM213.144 113.16C212.429 113.16 211.757 113.006 211.128 112.696C210.509 112.387 210.008 111.912 209.624 111.272C209.25 110.632 209.064 109.822 209.064 108.84V108.52C209.064 107.582 209.245 106.808 209.608 106.2C209.97 105.582 210.45 105.123 211.048 104.824C211.645 104.515 212.29 104.36 212.984 104.36C214.232 104.36 215.197 104.702 215.88 105.384C216.562 106.067 216.904 107.032 216.904 108.28V109.176H210.472C210.472 109.838 210.605 110.366 210.872 110.76C211.149 111.155 211.49 111.443 211.896 111.624C212.312 111.795 212.728 111.88 213.144 111.88C213.784 111.88 214.274 111.774 214.616 111.56C214.968 111.347 215.218 111.054 215.368 110.68H216.744C216.573 111.491 216.152 112.11 215.48 112.536C214.818 112.952 214.04 113.16 213.144 113.16ZM213.064 105.64C212.626 105.64 212.21 105.726 211.816 105.896C211.421 106.056 211.096 106.312 210.84 106.664C210.594 107.016 210.472 107.47 210.472 108.024H215.576C215.565 107.438 215.442 106.974 215.208 106.632C214.984 106.28 214.685 106.03 214.312 105.88C213.938 105.72 213.522 105.64 213.064 105.64ZM221.465 113.08C220.878 113.08 220.398 112.99 220.025 112.808C219.662 112.616 219.396 112.323 219.225 111.928C219.065 111.523 218.985 111 218.985 110.36V101.8H220.393V110.36C220.393 110.915 220.484 111.294 220.665 111.496C220.846 111.699 221.166 111.8 221.625 111.8C221.742 111.8 221.844 111.8 221.929 111.8C222.014 111.79 222.1 111.779 222.185 111.768V113.016C222.132 113.027 222.057 113.038 221.961 113.048C221.876 113.059 221.785 113.064 221.689 113.064C221.604 113.075 221.529 113.08 221.465 113.08ZM226.99 113.16C226.425 113.16 225.934 113.096 225.518 112.968C225.102 112.83 224.755 112.648 224.478 112.424C224.201 112.2 223.977 111.939 223.806 111.64C223.646 111.331 223.534 111.011 223.47 110.68H224.878C224.953 111.022 225.15 111.32 225.47 111.576C225.801 111.822 226.307 111.944 226.99 111.944C227.779 111.944 228.329 111.822 228.638 111.576C228.947 111.32 229.102 111.022 229.102 110.68C229.102 110.446 229.033 110.243 228.894 110.072C228.766 109.891 228.531 109.736 228.19 109.608C227.859 109.48 227.385 109.374 226.766 109.288C226.297 109.224 225.875 109.134 225.502 109.016C225.129 108.888 224.809 108.723 224.542 108.52C224.275 108.318 224.067 108.072 223.918 107.784C223.779 107.496 223.71 107.155 223.71 106.76C223.71 106.334 223.833 105.939 224.078 105.576C224.323 105.214 224.691 104.92 225.182 104.696C225.673 104.472 226.275 104.36 226.99 104.36C227.662 104.36 228.217 104.478 228.654 104.712C229.102 104.936 229.449 105.235 229.694 105.608C229.939 105.982 230.105 106.392 230.19 106.84H228.782C228.697 106.467 228.515 106.163 228.238 105.928C227.961 105.694 227.545 105.576 226.99 105.576C226.297 105.576 225.811 105.694 225.534 105.928C225.257 106.152 225.118 106.43 225.118 106.76C225.118 107.144 225.267 107.432 225.566 107.624C225.875 107.816 226.435 107.966 227.246 108.072C227.769 108.136 228.233 108.232 228.638 108.36C229.043 108.478 229.385 108.643 229.662 108.856C229.939 109.059 230.147 109.31 230.286 109.608C230.435 109.907 230.51 110.264 230.51 110.68C230.51 111.128 230.382 111.539 230.126 111.912C229.87 112.286 229.481 112.59 228.958 112.824C228.446 113.048 227.79 113.16 226.99 113.16Z" fill="white"/>
</g>
<defs>
<clipPath id="clip0_170_367">
<rect width="318" height="196" fill="white"/>
</clipPath>
</defs>
</svg>
