<svg width="318" height="196" viewBox="0 0 318 196" fill="none" xmlns="http://www.w3.org/2000/svg">
<g clip-path="url(#clip0_170_371)">
<g clip-path="url(#clip1_170_371)">
<path fill-rule="evenodd" clip-rule="evenodd" d="M297.13 78.1533C297.236 77.9183 297.298 77.657 297.298 77.3585C297.298 76.2655 296.496 76.1662 295.845 76.5636C295.294 76.9114 294.843 76.8617 294.392 76.5636C294.041 76.3649 293.64 76.2655 293.339 76.4642C292.838 76.7623 292.487 76.5139 292.137 76.2655C291.858 76.0931 291.677 75.8488 291.491 75.5993C291.409 75.4893 291.326 75.3783 291.234 75.2719C290.984 75.0235 291.184 74.6261 291.485 74.4274C291.623 74.3686 291.76 74.3079 291.895 74.2475C292.447 74.0018 292.986 73.7619 293.59 73.6822C294.291 73.5828 294.742 73.235 294.792 72.4898C294.843 72.1421 294.893 71.7943 295.093 71.5459C295.394 71.1733 295.644 70.7759 295.895 70.3785C296.146 69.981 296.396 69.5836 296.697 69.211C297.262 68.5099 297.207 67.6769 297.157 66.9188C297.154 66.8711 297.151 66.8237 297.148 66.7767C297.098 65.7334 296.597 64.8888 295.795 64.1933C295.549 63.9906 295.337 63.6886 295.132 63.3954C295.085 63.3293 295.039 63.2637 294.993 63.1997C294.542 62.4545 294.542 62.3552 295.193 61.759C295.279 61.6742 295.358 61.5895 295.436 61.5067C295.587 61.3469 295.73 61.1944 295.895 61.0635C296.11 60.8928 296.141 60.7222 296.177 60.5201C296.182 60.4869 296.189 60.4528 296.196 60.4176C296.296 59.6724 295.795 59.3247 295.344 59.0266C294.742 58.6292 293.139 58.9272 292.588 59.424C292.237 59.7718 291.886 60.1196 291.485 60.4673C291.084 60.8647 290.683 60.9144 290.282 60.666C289.881 60.368 289.481 60.2686 289.03 60.2189C288.428 60.1692 287.576 59.275 287.476 58.6788C287.326 57.9833 286.875 57.4368 286.273 57.3375C285.421 57.1388 284.519 56.94 283.617 57.1884C283.437 57.2481 283.257 57.254 283.076 57.26C282.956 57.264 282.836 57.2679 282.715 57.2878C282.214 57.3872 281.863 57.0891 281.563 56.6916L281.53 56.6491C281.385 56.4583 281.212 56.2306 281.212 56.0458C281.135 55.4331 280.7 55.0565 280.275 54.6885C280.149 54.5792 280.024 54.4705 279.909 54.3567C279.608 54.0586 279.258 54.1083 279.007 54.3567C278.9 54.4632 278.785 54.5625 278.671 54.6614C278.359 54.9317 278.051 55.1986 277.904 55.5987C277.804 55.9464 277.504 56.0955 277.153 56.1452C276.602 56.2445 276.1 56.1452 275.7 55.698C275.299 55.2012 274.797 54.9528 274.146 54.8535C273.495 54.7541 272.743 54.5554 272.292 53.9096C271.941 53.4128 271.44 53.3134 270.889 53.3134H268.333C267.932 53.3134 267.581 53.2141 267.281 52.916L266.379 52.0217C265.777 51.4256 264.775 51.3262 264.023 51.7237C263.806 51.8526 263.665 52.0932 263.533 52.3166C263.513 52.3514 263.492 52.3857 263.472 52.4192C263.283 52.7194 263.379 52.9913 263.481 53.2776C263.514 53.3703 263.548 53.4646 263.572 53.5618C263.723 54.0586 263.522 54.5554 263.121 54.8038C262.67 55.0522 261.768 54.9528 261.367 54.6051C261.312 54.5584 261.256 54.5117 261.2 54.4647C260.895 54.2112 260.576 53.9467 260.365 53.6115C259.764 52.8663 259.012 52.3695 258.01 52.3198C257.559 52.3198 257.208 52.1211 257.058 51.6243C256.962 51.3387 256.774 51.19 256.538 51.0033L256.506 50.9785C256.123 50.6566 255.861 50.2314 255.598 49.8042C255.414 49.5061 255.23 49.2071 255.003 48.9416C254.853 48.7429 254.803 48.4945 254.803 48.2461C254.702 47.0041 254.301 46.5073 253.099 46.1595C252.848 46.1098 252.698 45.9608 252.598 45.7621C252.447 45.5137 252.347 45.2654 252.247 45.0171L252.247 45.0169C251.846 43.6755 249.891 43.4768 249.14 44.222C249.022 44.3387 248.906 44.4573 248.791 44.5756C248.07 45.3141 247.356 46.0448 246.233 46.2589C246.208 46.2589 246.183 46.2837 246.152 46.3147C246.121 46.3458 246.083 46.3831 246.033 46.4079C245.732 46.706 245.431 46.6563 245.131 46.4079C244.58 46.0105 244.129 46.0105 243.577 46.4079C243.277 46.6066 243.026 46.7557 242.675 46.8053C242.425 46.855 242.224 47.0041 242.024 47.2028C241.983 47.2429 241.942 47.2839 241.901 47.3253C241.482 47.7452 241.013 48.2142 240.42 48.3951C239.719 48.6435 239.167 49.0906 238.817 49.7365C238.616 50.0345 238.366 50.0345 238.115 49.8855C237.965 49.7861 237.864 49.5874 237.814 49.3887C237.363 48.2461 236.461 47.8983 235.309 48.3951C235.178 48.4597 235.039 48.4963 234.897 48.5333C234.713 48.5815 234.527 48.6303 234.357 48.7429C234.256 48.8422 234.106 48.7925 233.956 48.6932C233.555 48.3951 233.204 48.097 233.054 47.6002C232.452 46.1595 231.3 45.3646 229.696 45.3646H227.491C227.241 45.3646 226.99 45.3646 226.79 45.5633C226.631 45.6841 226.467 45.802 226.302 45.9205C225.787 46.2893 225.265 46.6643 224.885 47.1531C224.735 47.3518 224.534 47.5009 224.284 47.6002C223.933 47.7989 223.582 47.6499 223.432 47.3518C222.931 46.4079 222.38 45.5633 221.427 44.9672C221.127 44.8181 220.876 44.5697 220.726 44.2717C220.275 43.4271 220.275 42.5329 220.325 41.589C220.325 41.4677 220.458 41.3464 220.561 41.2518C220.585 41.2302 220.607 41.21 220.626 41.1915C221.327 40.5457 221.227 39.7011 220.876 39.0056C220.488 38.2352 219.988 37.5386 219.472 36.8204C219.389 36.7049 219.306 36.5889 219.223 36.4719C219.022 36.1738 218.872 35.9254 218.822 35.5777C218.771 35.0312 218.621 34.4847 218.32 34.0376C218.12 33.6898 218.12 33.4911 218.371 33.1434C218.872 32.3485 218.571 31.7027 217.669 31.653H217.068C215.865 31.5039 215.364 31.0071 215.314 29.9142C215.264 28.9703 214.562 28.0263 213.61 27.8276C212.708 27.6289 211.856 27.7283 211.104 28.2251C210.342 28.7025 209.515 28.6701 208.701 28.6383C208.499 28.6304 208.297 28.6225 208.097 28.6225C207.977 28.6225 207.888 28.5262 207.806 28.4368C207.786 28.415 207.766 28.3936 207.747 28.3741C207.27 27.7297 206.568 27.6054 205.901 27.4872C205.797 27.4687 205.694 27.4503 205.592 27.4302C205.392 27.3861 205.191 27.3346 204.99 27.2829C204.285 27.1016 203.565 26.9168 202.786 27.0327C202.635 27.0327 202.435 26.9831 202.335 26.834C202.184 26.685 202.034 26.4863 202.234 26.3372C202.786 25.8404 202.485 25.4927 202.034 25.1449C201.936 25.0719 201.85 24.9752 201.758 24.8721C201.662 24.7646 201.56 24.6502 201.432 24.5487C201.132 24.3004 200.981 24.0023 201.032 23.6048C201.057 23.4558 201.069 23.3068 201.082 23.1577C201.094 23.0087 201.107 22.8596 201.132 22.7106C201.332 21.866 201.082 21.0215 200.681 20.326C200.616 20.2189 200.553 20.1094 200.491 19.9997C200.263 19.6005 200.032 19.197 199.679 18.8852C199.378 18.6368 199.428 18.3388 199.779 18.14C200.33 17.7923 200.881 17.4445 201.633 17.4445C201.944 17.4445 202.216 17.3663 202.519 17.2792C202.557 17.2682 202.596 17.257 202.635 17.2458C203.036 17.1464 203.287 16.898 203.387 16.4509C203.487 16.0535 203.537 15.7057 203.587 15.3083C203.637 14.9108 203.587 14.4637 203.337 14.2153C203.247 14.116 203.158 14.0146 203.07 13.9132C202.717 13.5079 202.365 13.1025 201.884 12.8243C201.609 12.6566 201.343 12.4712 201.078 12.2868C200.716 12.0341 200.356 11.7833 199.979 11.5823C199.021 10.9944 198.645 9.99471 198.282 9.03312C198.247 8.93841 198.211 8.84408 198.175 8.75054C197.925 8.15438 197.925 7.55822 198.426 7.01174C198.676 6.76335 198.676 6.36591 198.476 6.16719C198.355 6.04781 198.244 5.92269 198.133 5.79873C197.783 5.40683 197.443 5.02648 196.872 4.87551C196.171 4.67679 195.67 4.22967 195.469 3.53415C195.168 2.54055 194.517 1.79536 193.815 1.09984C193.615 0.901118 193.414 0.801758 193.114 0.801758C192.713 0.801758 192.362 0.801758 191.961 0.901118C191.617 0.986473 191.322 1.16959 191.019 1.35716C190.794 1.49711 190.564 1.63953 190.307 1.74568C190.265 1.76532 190.225 1.78401 190.187 1.80168C189.554 2.09699 189.527 2.10945 189.055 1.54696C188.654 1.14952 188.253 0.950798 187.652 0.950798C186.85 1.00048 186.048 1.00048 185.296 0.950798C184.444 0.901118 183.743 1.05016 183.141 1.696C182.677 2.18724 182.117 2.52669 181.555 2.86678C181.208 3.07699 180.861 3.28745 180.535 3.53415C180.185 3.78255 179.834 3.88191 179.433 3.93159C177.98 4.13031 176.627 3.68319 175.424 2.93799C174.572 2.44119 173.67 2.44119 172.768 2.44119C171.866 2.44119 171.716 2.63991 171.666 3.53415C171.615 4.17999 171.565 4.82583 171.164 5.37231C171.064 5.52135 171.014 5.67039 171.014 5.86911C171.014 6.11159 170.954 6.34224 170.893 6.57838C170.829 6.82604 170.764 7.07976 170.764 7.3595C170.764 7.6079 170.613 7.95566 170.312 8.00534C169.919 8.11691 169.62 8.35374 169.318 8.59276C169.082 8.77949 168.844 8.96757 168.559 9.0983C167.857 9.44606 167.206 9.49574 166.554 9.39638C166.253 9.3467 165.953 9.19766 165.852 8.8499C165.752 8.45246 165.452 8.20406 165.101 8.15438C164.299 8.00534 163.497 7.8563 162.695 7.8563C162.615 7.86101 162.533 7.86617 162.452 7.87135C161.673 7.9208 160.861 7.97237 160.09 7.65758C158.887 7.16078 157.784 7.16078 156.732 7.90598C156.48 8.07249 156.228 8.27387 156.006 8.45168C155.963 8.48608 155.921 8.51961 155.88 8.55182C155.851 8.57378 155.821 8.59681 155.791 8.61998C155.619 8.75402 155.442 8.89226 155.229 8.8499C154.946 8.78396 154.658 8.75631 154.371 8.72884C153.795 8.67351 153.225 8.61889 152.723 8.25374C152.372 8.00534 152.021 8.05502 151.721 8.30342C151.52 8.45246 151.32 8.6015 151.069 8.70086C150.468 8.94926 150.217 9.44606 150.217 10.0422C150.217 10.5887 149.967 10.8868 149.616 11.2345C149.5 11.35 149.37 11.457 149.24 11.5654C148.92 11.8302 148.591 12.1032 148.413 12.5262C148.263 12.8615 148.028 13.113 147.793 13.3645C147.715 13.4484 147.637 13.5322 147.561 13.6192C147.494 13.6963 147.425 13.7734 147.355 13.8511C146.754 14.5234 146.118 15.233 146.208 16.3019C146.208 16.4427 146.158 16.6084 146.111 16.7637C146.091 16.8276 146.073 16.8898 146.058 16.9477C145.857 17.5936 145.507 18.1897 145.106 18.6865C144.454 19.5311 144.404 20.5744 144.454 21.568C144.555 22.81 144.805 24.0023 145.306 25.1946C145.807 26.3869 145.507 27.0327 144.555 27.6786C144.529 27.6913 144.504 27.704 144.48 27.7165C144.315 27.801 144.178 27.8709 144.003 27.8276C143.352 27.6786 142.7 26.9334 142.7 26.2875C142.7 25.8901 142.6 25.592 142.299 25.3436C141.648 24.7475 141.047 24.1513 140.445 23.5055C140.195 23.2074 139.944 23.0584 139.593 23.0584C139.413 23.0515 139.232 23.0437 139.05 23.0358C137.917 22.9869 136.757 22.9368 135.634 23.108C135.35 23.1394 135.125 23.2898 134.909 23.4339C134.784 23.5178 134.661 23.5996 134.532 23.6545C133.83 24.0023 133.68 24.0023 133.229 23.4558C132.979 23.1577 132.678 22.9093 132.377 22.6609C131.976 22.2635 131.375 22.3132 130.974 22.7106C130.549 23.0934 130.065 23.4467 129.59 23.7933C129.449 23.8965 129.308 23.999 129.17 24.1016C128.96 24.2683 128.723 24.3913 128.486 24.5146C128.158 24.6853 127.828 24.8565 127.566 25.1449C127.316 25.3933 126.564 25.2443 126.464 24.9462C126.414 24.7971 126.347 24.6536 126.28 24.5101C126.146 24.2231 126.013 23.936 126.013 23.6048C126.013 22.5616 126.013 21.568 125.311 20.6737C125.228 20.5578 125.155 20.4364 125.083 20.3149C124.938 20.072 124.793 19.8292 124.56 19.6304C123.858 18.9846 122.906 18.9349 122.104 19.5311C121.453 20.0279 120.751 20.475 119.899 20.7234C118.997 20.9718 118.446 21.4686 118.195 22.3628C118.095 22.7603 117.794 23.0087 117.444 23.2571C116.993 23.5552 116.892 23.5552 116.692 23.0087C116.591 22.7751 116.58 22.5415 116.569 22.2929C116.564 22.1713 116.558 22.0462 116.542 21.9157C116.532 21.8374 116.526 21.7591 116.52 21.6816C116.496 21.3655 116.472 21.0621 116.191 20.8228C115.189 20.1272 114.186 19.7795 112.984 20.2763C112.332 20.5744 111.58 20.1272 111.631 19.4317C111.681 18.7362 111.33 18.3388 110.879 17.9413C110.678 17.7426 110.478 17.6929 110.227 17.8916C110.068 18.0205 109.885 18.1329 109.699 18.2466C109.239 18.5273 108.766 18.8162 108.624 19.382C108.624 19.46 108.531 19.538 108.467 19.5919C108.45 19.6067 108.434 19.6197 108.423 19.6304C107.672 20.1769 106.719 20.1272 106.068 19.4814C105.316 18.7362 104.865 18.6368 103.963 19.1336L103.663 19.2827C103.412 19.5311 103.161 19.5311 102.861 19.3324C102.812 19.3033 102.763 19.2761 102.715 19.2493C102.516 19.1388 102.33 19.0355 102.209 18.8356C102.009 18.5375 101.758 18.4381 101.408 18.4381C101.057 18.3884 100.706 18.3388 100.305 18.2891C99.7037 18.1897 99.2026 18.2891 98.7014 18.6368C98.2504 18.9846 97.7493 19.0343 97.198 18.9846C96.8473 18.9349 96.4965 18.7859 96.4965 18.3884C96.5466 17.7923 96.1958 17.5439 95.7949 17.3948C95.3581 17.2024 95.2503 16.9167 95.1074 16.5379L95.0933 16.5006C95.0683 16.4013 95.0557 16.2895 95.0432 16.1777C95.0307 16.0659 95.0182 15.9541 94.9931 15.8548C94.8929 15.2586 94.7425 15.0599 94.0911 15.0599H91.9863C91.5353 15.0599 91.1344 15.0102 90.7335 14.8612C90.5851 14.7943 90.4357 14.7274 90.2859 14.6603C89.3225 14.2288 88.3367 13.7873 87.4261 13.2714C87.0252 13.0727 86.6744 12.9237 86.2735 12.9733H85.5719C84.9705 13.023 84.4694 12.874 84.0685 12.3772C83.7678 12.0294 83.3669 11.9301 82.966 11.8804C82.6152 11.8804 82.3146 11.8804 81.9638 11.9301C81.1119 11.9797 80.2599 11.8804 79.6586 11.1352C79.1575 10.4893 78.506 10.2906 77.7042 10.3403C77.5072 10.3729 77.3101 10.3627 77.0989 10.3519C76.9879 10.3462 76.873 10.3403 76.7521 10.3403C76.4514 10.3403 76.1006 10.2906 75.85 10.0919C75.1986 9.5951 74.3968 9.49574 73.595 9.49574H69.5358C68.5837 9.49574 67.7318 9.14798 66.9801 8.55182C66.6293 8.25374 66.2785 8.15438 65.8275 8.15438H64.725C64.274 8.15438 63.9232 8.20406 63.5223 8.45246C63.0713 8.80022 62.4699 8.89958 61.9187 8.89958H58.7115C58.5627 8.89958 58.4108 8.90262 58.2574 8.9057C57.7908 8.91504 57.3099 8.92467 56.8573 8.8499C56.0665 8.70057 55.2474 8.71957 54.4425 8.73823C54.1763 8.7444 53.9116 8.75054 53.6501 8.75054C53.149 8.75054 52.5476 8.75054 52.1467 9.19766L52.1245 9.22249C51.7292 9.66315 51.2911 10.1517 51.0944 10.6881C50.7937 11.5823 50.2424 12.2281 49.591 12.874C49.523 12.9414 49.4587 13.0161 49.394 13.0912C49.2205 13.2928 49.0448 13.4971 48.7892 13.5695C48.3214 13.702 47.9428 13.9669 47.5642 14.2319C47.3749 14.3644 47.1856 14.4968 46.9851 14.6128C46.4914 14.9242 46.4801 14.9169 46.087 14.6621C46.0412 14.6324 45.9903 14.5994 45.9327 14.5631C45.8328 14.5206 45.7206 14.4418 45.5928 14.352C45.2719 14.1267 44.8523 13.832 44.279 13.8676H42.0741C41.5228 13.8676 41.1219 14.116 40.8714 14.6128C40.6208 15.0599 40.4203 15.5567 40.27 16.0535C40.0696 16.5006 40.0696 17.0968 40.3702 17.5936C41.0718 18.6865 41.2221 19.7795 40.3702 20.9221C40.0194 21.3692 40.1197 21.9654 40.4705 22.3628C40.7711 22.6609 40.9716 22.959 40.9215 23.4061C40.7711 24.4494 41.4226 25.0952 42.2244 25.5423C42.8759 25.8901 43.0763 26.3869 43.1765 27.0824C43.1933 27.2487 43.2059 27.4164 43.2185 27.5842C43.281 28.4196 43.3441 29.2606 43.9282 29.9639C44.0285 30.1129 44.1287 30.2619 44.1287 30.411C44.1287 30.9575 44.3792 31.3549 44.6799 31.802C44.7802 31.9511 44.8678 32.1125 44.9555 32.274C45.0432 32.4354 45.1309 32.5969 45.2312 32.7459C45.3815 32.9447 45.3314 33.0937 45.1811 33.2427C45.1469 33.2766 45.1142 33.3104 45.0823 33.3435C44.9265 33.5048 44.7876 33.6486 44.5797 33.6898C44.4294 33.7395 44.279 33.8389 44.2289 33.9879C44.0285 34.5344 43.9282 35.1802 44.3291 35.5777C44.7906 36.0352 44.9499 36.605 45.1084 37.1722C45.2082 37.5289 45.3076 37.8846 45.4817 38.2107C45.6415 38.5011 45.6739 38.8336 45.7068 39.1708C45.7358 39.4683 45.7652 39.7695 45.8826 40.0489C45.9829 40.347 45.7824 40.5954 45.5318 40.7444C44.8303 41.1418 44.279 41.6386 44.0786 42.4335C44.0285 42.5826 43.9783 42.6819 43.8781 42.8309C43.784 43.0176 43.6113 43.1263 43.4461 43.2303C43.3474 43.2924 43.2515 43.3528 43.1765 43.4271C43.0429 43.5596 42.9093 43.4713 42.7756 43.3829C42.7088 43.3388 42.642 43.2946 42.5752 43.2781C41.9738 43.1787 41.3725 43.0793 40.8212 43.5265C40.6709 43.6755 40.4203 43.7749 40.2199 43.7749C39.819 43.8245 39.5183 44.0729 39.2678 44.371C38.5662 45.2156 37.7644 45.9608 36.8122 46.5073C36.0104 46.9544 35.1585 47.5009 34.5572 48.2957C34.4569 48.4448 34.2565 48.6435 34.0059 48.6932C33.7044 48.7305 33.5163 48.9084 33.3137 49.0999C33.2469 49.1631 33.1785 49.2277 33.1039 49.2893C29.8466 52.5185 26.5892 55.7477 23.382 58.9769C23.2403 59.1174 23.0903 59.2468 22.9417 59.375C22.4598 59.7907 21.9936 60.1929 21.8786 60.9144C21.8786 60.9451 21.8404 60.9758 21.7875 61.0183C21.7548 61.0445 21.7165 61.0752 21.6782 61.1132C21.3155 61.4008 21.0841 61.7665 20.8509 62.1349C20.7619 62.2756 20.6726 62.4166 20.5757 62.5539C20.3251 62.9016 20.3251 63.1997 20.5757 63.5475C20.7762 63.7959 20.9766 64.0443 20.9265 64.392C20.8954 64.8855 20.9609 65.3599 21.027 65.8389C21.0673 66.1314 21.108 66.4256 21.127 66.727C21.127 67.0251 21.1771 67.3231 21.3775 67.5715C21.6782 67.8696 21.5279 68.1677 21.3775 68.4658C21.2507 68.7531 21.1567 69.0533 21.0622 69.3548C20.8954 69.8876 20.7273 70.4242 20.3753 70.9001C20.3429 70.9322 20.3523 70.985 20.3631 71.0451C20.369 71.0781 20.3753 71.1133 20.3753 71.1485C20.4755 71.993 20.8263 72.6389 21.6281 73.0363C22.1292 73.2847 22.3798 73.6325 22.2795 74.0796C22.2294 74.328 22.1292 74.4274 21.8786 74.328C21.7699 74.2993 21.6591 74.2726 21.5476 74.2458C20.8879 74.087 20.2026 73.9221 19.7739 73.2847C19.7238 73.1854 19.6236 73.1357 19.5233 73.086C18.7717 72.6886 18.3708 72.7383 17.7193 73.3344C17.4687 73.5602 17.2699 73.8374 17.0711 74.1145C16.8326 74.4471 16.594 74.7796 16.266 75.0235C15.815 75.3713 15.4642 75.8681 15.364 76.4642C15.3139 76.7623 15.0633 77.0604 14.8127 77.3088C14.7702 77.3552 14.7269 77.4016 14.6834 77.4482C14.4339 77.7158 14.1787 77.9894 14.0226 78.3036C13.7079 78.4831 13.6456 78.8082 13.7109 79.1966C13.7381 79.2504 13.7064 79.3187 13.6717 79.3938C13.6423 79.4573 13.6107 79.5257 13.6107 79.594C13.2599 80.836 12.5583 81.8793 11.5561 82.7239C11.4568 82.8059 11.3685 82.9096 11.2784 83.0152C11.0957 83.2296 10.906 83.4522 10.6039 83.5188C9.90236 83.7175 9.60168 84.2639 9.50146 84.9595C9.50146 85.2079 9.45135 85.5059 9.30101 85.655C9.00033 85.9531 9.00033 86.3008 9.00033 86.6983V88.139C8.95022 88.5861 9.10056 88.8842 9.60168 88.9339C10.0026 88.9835 10.4035 89.1823 10.4536 89.53C10.5299 90.0973 10.8676 90.4631 11.2014 90.8246C11.306 90.9379 11.4103 91.0509 11.506 91.1694C11.7565 91.4675 11.9069 91.7656 11.957 92.1134C12.0068 92.7305 12.0318 93.0409 12.192 93.2459C12.3541 93.4535 12.6548 93.5528 13.2599 93.7528C13.3029 93.765 13.3466 93.7764 13.3906 93.7879C13.7059 93.8703 14.0362 93.9566 14.2121 94.349C14.363 94.6695 14.5231 94.9809 14.6806 95.2871C14.8892 95.6926 15.0931 96.0889 15.2644 96.4852C15.6653 97.4291 16.0161 97.6775 17.0184 97.6278L17.0473 97.6252C17.5872 97.5765 18.0804 97.532 18.622 97.7272C18.9728 97.8266 19.1732 98.0253 19.1732 98.4724C19.1482 98.845 19.1356 99.2176 19.1231 99.5902C19.1106 99.9628 19.098 100.335 19.073 100.708C19.073 101.354 19.3737 101.652 20.0251 101.503C20.2256 101.453 20.426 101.404 20.6265 101.205C21.2779 100.46 21.9795 99.8634 23.082 100.012C23.4829 100.062 23.8337 99.8138 24.0843 99.5157C24.2847 99.2673 24.5353 99.0189 24.7858 98.7705C25.0364 98.5221 25.287 98.4724 25.5876 98.7705C25.8322 99.013 26.0888 99.2436 26.3514 99.4797C26.6269 99.7274 26.9091 99.9811 27.1912 100.261C27.8928 100.956 28.6946 101.453 29.7971 101.404C29.9218 101.395 30.0481 101.383 30.1752 101.371C30.7628 101.315 31.3662 101.258 31.9018 101.503C32.2768 101.668 32.6604 101.808 33.0418 101.946C33.5781 102.141 34.1101 102.335 34.6079 102.596C35.4598 103.093 36.3619 103.291 37.314 103.192C37.6147 103.142 37.9154 103.242 38.1158 103.341C38.3883 103.521 38.6814 103.64 38.9718 103.758C39.3222 103.9 39.6686 104.04 39.97 104.285C40.2707 104.533 40.6215 104.583 40.9722 104.583H42.4756C42.7763 104.583 43.077 104.583 43.2774 104.434C43.9664 103.979 44.7396 103.982 45.5198 103.986C45.5908 103.987 45.6619 103.987 45.733 103.987C46.9357 103.937 47.7375 104.484 48.1885 105.577C48.2636 105.726 48.3263 105.875 48.3889 106.024C48.4516 106.173 48.5142 106.322 48.5894 106.471C48.7397 106.819 49.0404 107.166 49.3912 107.266C50.4435 107.564 50.9447 108.359 51.2454 109.253C51.4959 109.899 51.8968 110.197 52.4982 110.346C53.4002 110.495 54.3523 110.346 55.1541 109.998C56.2065 109.551 57.0584 108.806 57.7099 107.812C58.3614 106.769 59.2133 106.173 60.5162 106.173C61.9175 106.206 63.2966 106.195 64.683 106.184C65.379 106.178 66.0769 106.173 66.7803 106.173C67.2313 106.173 67.5821 106.173 67.9329 105.825C68.1834 105.577 68.5342 105.577 68.885 105.577H70.639C71.541 105.577 72.443 105.527 73.3451 105.428C73.6958 105.378 73.9464 105.229 74.2471 105.03C74.7184 104.671 75.0062 104.207 75.3 103.734C75.4123 103.553 75.5256 103.371 75.6502 103.192C75.7141 103.105 75.7805 103.019 75.847 102.933C76.1981 102.48 76.5523 102.022 76.5523 101.354C76.5523 101.006 76.9031 100.658 77.304 100.658C77.7049 100.658 78.0556 100.509 78.4064 100.261C78.6069 100.112 78.8073 100.012 79.0579 100.062C79.5144 100.092 79.9523 100.013 80.383 99.9342C80.6616 99.8834 80.9372 99.8333 81.2128 99.8138C81.6638 99.7641 81.9644 99.5654 82.1148 99.1679C82.3152 98.6711 82.666 98.4724 83.1671 98.4724C83.8186 98.4227 84.3197 98.075 84.5703 97.4788C84.7708 97.0317 85.0714 96.9323 85.4222 97.1807C86.1739 97.6775 86.8755 97.5782 87.527 97.131C88.2285 96.6342 88.8299 96.6839 89.4312 97.2304C89.6317 97.3794 89.782 97.4788 90.0326 97.4788C90.8344 97.5285 91.6362 97.5782 92.1373 96.833C92.2095 96.7256 92.3077 96.6698 92.4131 96.6099C92.4541 96.5866 92.4961 96.5627 92.5382 96.5349C92.9391 96.1871 93.4904 96.0878 93.8412 96.4355C94.8935 97.2801 95.8958 96.9323 96.898 96.4852C97.2488 96.3362 97.5996 96.2368 97.9504 96.1871C98.8023 96.0381 99.554 96.1374 100.205 96.7833C100.707 97.2801 101.107 97.7769 101.458 98.3234C101.759 98.8202 102.16 99.1182 102.711 99.2176C104.265 99.5157 104.265 99.5157 104.716 101.006C104.866 101.503 104.916 101.553 105.367 101.205C105.618 101.006 105.918 100.907 106.119 101.155C106.52 101.602 107.021 101.553 107.522 101.503C107.587 101.503 107.657 101.498 107.73 101.492C107.88 101.481 108.038 101.469 108.173 101.503C108.725 101.602 108.925 102.049 108.574 102.496C108.424 102.695 108.274 102.844 108.123 102.993C107.923 103.192 107.873 103.44 107.973 103.689C108.059 103.901 108.254 103.896 108.466 103.89C108.502 103.889 108.538 103.888 108.574 103.888C108.61 103.888 108.645 103.887 108.68 103.887C108.994 103.882 109.291 103.878 109.426 104.235C109.593 104.566 109.849 104.809 110.106 105.052C110.234 105.174 110.362 105.295 110.479 105.428C110.712 105.328 110.879 105.163 111.039 105.004C111.119 104.925 111.197 104.848 111.28 104.782C111.431 104.682 111.531 104.484 111.631 104.285C111.731 103.987 111.932 103.937 112.233 103.888C113.285 103.689 114.287 103.937 115.289 104.335C115.64 104.484 115.891 104.782 115.991 105.229C116.041 105.477 116.141 105.726 116.292 106.024C116.754 106.976 117.52 107.678 118.283 108.378C118.595 108.664 118.907 108.95 119.198 109.253C119.449 109.501 119.749 109.501 120.05 109.303C120.2 109.203 120.351 109.054 120.501 108.905C121.202 108.21 121.249 108.293 121.578 108.872C121.602 108.914 121.627 108.958 121.654 109.005C121.721 109.137 121.832 109.27 121.943 109.402C121.999 109.468 122.055 109.534 122.105 109.601C122.405 110.048 122.506 110.495 122.355 110.942C122.205 111.538 122.255 112.085 122.355 112.681C122.405 113.078 122.456 113.476 122.105 113.774C121.553 114.271 121.503 114.867 121.804 115.513C121.854 115.662 121.904 115.811 121.804 115.91C121.675 116.08 121.602 116.278 121.528 116.476C121.43 116.739 121.332 117.003 121.102 117.202C121.002 117.301 120.852 117.5 120.852 117.599C120.846 117.741 120.837 117.883 120.829 118.026C120.768 119.035 120.707 120.057 121.453 120.928C121.654 121.176 121.854 121.275 122.155 121.275C122.204 121.275 122.255 121.274 122.307 121.273C122.568 121.266 122.848 121.258 123.057 121.425C123.087 121.45 123.118 121.475 123.148 121.501C123.772 122.023 124.417 122.561 124.56 123.461C124.66 124.058 124.961 124.505 125.462 124.902C125.863 125.25 126.064 125.3 126.565 125.001C126.64 124.952 126.715 124.915 126.79 124.877C126.865 124.84 126.941 124.803 127.016 124.753C127.041 124.738 127.066 124.723 127.091 124.707C127.316 124.569 127.542 124.43 127.767 124.654C128.018 124.852 128.018 125.15 127.918 125.449C127.767 125.896 127.767 126.393 127.818 126.84C127.818 127.237 127.717 127.535 127.467 127.833C126.815 128.678 127.016 129.522 127.968 130.019C128.519 130.317 128.72 130.814 128.469 131.41C128.419 131.559 128.319 131.708 128.219 131.857L128.218 131.857C127.918 132.205 127.918 132.553 128.269 132.901C128.344 132.975 128.418 133.051 128.491 133.127C128.86 133.506 129.229 133.886 129.772 134.093C129.922 134.143 130.123 134.292 130.223 134.441C130.474 134.739 130.774 134.937 131.075 135.086C131.188 135.136 131.297 135.189 131.407 135.242C131.736 135.4 132.065 135.558 132.478 135.633C133.43 135.782 133.831 136.577 134.032 137.372C134.289 138.32 134.25 139.321 134.21 140.317C134.196 140.678 134.182 141.039 134.182 141.396C134.182 141.644 134.032 141.942 133.831 142.141C133.23 142.886 133.28 143.433 133.931 144.128C133.996 144.192 134.06 144.257 134.125 144.323C134.615 144.819 135.133 145.344 135.886 145.519C136.036 145.569 136.237 145.668 136.186 145.867C136.143 145.996 136.025 146.05 135.93 146.095C135.914 146.102 135.9 146.109 135.886 146.115C135.735 146.165 135.535 146.165 135.385 146.165C135.083 146.219 134.767 146.17 134.461 146.122C134.206 146.082 133.958 146.043 133.731 146.066C133.13 146.165 132.829 145.867 132.578 145.42C132.227 144.675 131.576 144.476 130.824 144.526C130.423 144.575 130.023 144.675 129.722 145.022C129.371 145.47 128.92 145.47 128.469 145.221C128.018 144.973 127.617 144.675 127.316 144.277C126.765 143.482 126.214 143.532 125.563 144.079C125.212 144.377 124.911 144.377 124.61 144.079C124.36 143.83 124.059 143.88 123.758 143.979C123.157 144.178 123.107 144.178 123.007 143.532C122.915 142.985 122.57 142.648 122.243 142.327C122.213 142.298 122.184 142.269 122.155 142.24C121.804 141.893 121.153 141.942 120.601 142.389C120.15 142.737 119.649 143.035 119.048 143.085C118.847 143.085 118.647 143.184 118.446 143.383C118.33 143.499 118.218 143.62 118.107 143.742C117.884 143.985 117.661 144.228 117.394 144.426C117.06 144.663 116.953 145.036 116.857 145.371C116.852 145.388 116.848 145.404 116.843 145.42C116.693 145.966 116.893 146.513 117.093 147.059C117.108 147.104 117.137 147.149 117.166 147.193C117.232 147.298 117.299 147.402 117.194 147.506C116.911 147.892 116.927 148.328 116.944 148.76C116.951 148.94 116.958 149.12 116.943 149.295C116.943 149.494 116.943 149.692 117.093 149.841C117.219 149.948 117.326 150.068 117.431 150.186C117.62 150.399 117.806 150.608 118.096 150.736C118.497 150.934 118.497 151.133 118.246 151.431C117.995 151.729 117.695 152.027 117.444 152.276C116.793 152.822 116.843 153.518 117.093 154.164C117.244 154.462 117.194 154.66 116.993 154.909C116.693 155.306 116.342 155.555 115.891 155.555C115.39 155.555 114.939 155.654 114.488 155.803C114.137 155.902 113.886 156.101 113.836 156.349C113.83 156.371 113.823 156.393 113.816 156.414C113.673 156.886 113.542 157.317 113.686 157.84C113.886 158.635 113.736 158.933 113.034 159.33C112.969 159.369 112.893 159.405 112.815 159.441C112.595 159.545 112.357 159.657 112.283 159.877C112.067 160.376 111.645 160.645 111.239 160.903C111.079 161.005 110.921 161.106 110.779 161.218C110.671 161.298 110.563 161.375 110.457 161.451C110.166 161.657 109.883 161.858 109.627 162.112C108.925 162.808 108.825 163.503 109.326 164.348C109.727 164.944 109.627 165.59 109.376 166.186C109.326 166.335 109.176 166.434 109.075 166.385C108.502 166.03 107.903 166.055 107.315 166.081C107.081 166.091 106.848 166.101 106.62 166.087C105.868 166.037 105.267 166.335 104.665 166.782C104.064 167.229 103.914 168.471 104.465 168.968C104.866 169.316 105.117 169.713 105.117 170.26C105.117 170.359 105.167 170.459 105.267 170.558C105.392 170.719 105.502 170.893 105.611 171.067C105.94 171.589 106.269 172.11 107.021 172.297C107.171 172.346 107.321 172.495 107.372 172.644C107.572 172.893 107.823 172.943 108.073 172.992C108.138 172.999 108.204 173.004 108.271 173.01C108.715 173.048 109.178 173.087 109.526 173.39C109.867 173.685 110.28 173.909 110.673 174.122C110.743 174.16 110.812 174.197 110.879 174.234C111.782 174.681 112.684 174.88 113.686 174.731C114.187 174.632 114.387 174.383 114.488 173.936L114.507 173.848C114.789 172.539 114.815 172.417 116.041 173.39C116.743 173.936 117.194 173.837 117.544 172.992C117.695 172.644 117.895 172.346 118.296 172.247C118.547 172.148 118.747 172.048 118.948 171.899C119.017 171.861 119.085 171.822 119.152 171.783C119.525 171.568 119.884 171.36 120.351 171.402C120.551 171.402 120.651 171.353 120.802 171.204C121.654 170.409 122.656 170.011 123.859 170.061C124.224 170.094 124.568 170.083 124.919 170.072C125.097 170.067 125.277 170.061 125.462 170.061C125.974 170.061 126.389 170.285 126.798 170.506C127.111 170.674 127.42 170.841 127.767 170.906C127.851 170.906 127.9 171.01 127.943 171.103C127.952 171.121 127.96 171.138 127.968 171.154C128.032 171.249 128.101 171.339 128.168 171.427C128.313 171.616 128.451 171.796 128.519 171.999C128.571 172.126 128.628 172.254 128.686 172.383C128.965 173.004 129.252 173.642 128.92 174.383C128.87 174.483 128.87 174.582 128.87 174.731C128.82 175.327 129.171 175.625 129.722 175.526C130.423 175.377 130.824 174.93 131.125 174.334C131.225 174.11 131.3 173.874 131.376 173.638C131.451 173.402 131.526 173.166 131.626 172.943C132.227 171.601 132.127 170.359 131.325 169.167C131.125 168.918 130.925 168.769 130.574 168.72C129.672 168.67 129.572 168.571 129.471 167.676C129.471 167.629 129.466 167.575 129.461 167.52C129.449 167.405 129.437 167.281 129.471 167.18C129.572 166.782 129.521 166.484 129.271 166.186C129.02 165.888 129.02 165.491 129.171 165.143C129.221 164.994 129.371 164.845 129.572 164.944C129.844 165.124 130.153 165.196 130.466 165.268C130.671 165.315 130.877 165.362 131.075 165.441C132.227 165.938 133.48 165.192 133.53 163.951C133.53 163.553 133.631 163.255 133.981 163.007C134.332 162.758 134.483 162.41 134.583 162.013C134.683 161.566 134.934 161.268 135.435 161.218C135.685 161.218 135.886 161.168 136.036 161.019C136.387 160.672 136.688 160.771 137.038 161.069C137.539 161.467 137.99 161.417 138.441 160.92C138.691 160.672 138.941 160.423 139.191 160.173C140.198 159.167 141.217 158.149 142.3 157.194C143.152 156.399 143.503 155.455 143.403 154.362C143.403 154.263 143.403 154.164 143.353 154.015C143.302 153.617 143.403 153.418 143.854 153.468C144.505 153.567 145.006 153.269 145.457 152.822C145.492 152.788 145.527 152.754 145.562 152.719C145.983 152.305 146.417 151.878 146.51 151.282C146.56 150.984 146.71 150.686 146.961 150.487C147.211 150.289 147.311 149.99 147.412 149.692C147.712 148.649 148.314 147.805 149.115 147.109L149.316 146.91C149.466 146.761 149.566 146.612 149.566 146.413C149.566 146.174 149.587 145.934 149.608 145.692C149.644 145.282 149.68 144.864 149.617 144.426C149.416 142.986 149.516 142.886 150.97 142.886C151.421 142.886 151.822 142.886 152.222 142.538C152.573 142.24 153.074 142.091 153.576 142.141C153.926 142.191 154.227 142.091 154.528 141.843C155.179 141.346 155.831 141.247 156.532 141.793C156.942 142.132 157.422 142.124 157.908 142.117C158.135 142.113 158.363 142.109 158.587 142.141C158.954 142.181 159.155 141.959 159.352 141.741C159.397 141.691 159.442 141.641 159.489 141.595C159.739 141.396 159.94 141.296 160.19 141.595C160.491 141.893 160.892 141.843 161.243 141.793C161.4 141.769 161.558 141.748 161.715 141.727C162.206 141.661 162.691 141.596 163.147 141.446C163.748 141.247 164.249 141.346 164.751 141.694C165.051 141.942 165.402 142.141 165.803 142.191C166.254 142.29 166.304 142.439 166.104 142.837C165.903 143.234 165.803 143.681 165.803 144.128C165.753 145.072 165.853 145.221 166.855 145.321C167.056 145.321 167.256 145.321 167.457 145.42C167.607 145.486 167.769 145.53 167.93 145.574C168.253 145.663 168.576 145.751 168.81 146.016C169.06 146.264 169.211 146.513 169.11 146.811C169.01 147.109 168.71 147.258 168.459 147.208C167.858 147.159 167.306 147.308 166.755 147.556C166.505 147.705 166.204 147.755 165.953 147.705C165.552 147.705 165.252 147.755 165.101 148.202C164.951 148.649 165.152 148.947 165.402 149.245C165.903 149.792 166.404 150.09 167.156 149.99C167.557 149.941 167.958 149.941 168.359 149.99C169.161 150.09 170.012 150.239 170.614 150.835C171.115 151.332 171.666 151.68 172.418 151.779C173.019 151.878 173.621 152.027 173.921 152.623C174.422 153.567 175.224 153.965 176.176 154.114C177.429 154.313 178.632 154.263 179.885 154.164C179.953 154.159 180.022 154.155 180.091 154.151C180.789 154.109 181.547 154.064 182.14 153.567C182.301 153.448 182.526 153.456 182.739 153.464C182.791 153.466 182.842 153.468 182.891 153.468H185.497C186.099 153.468 186.8 153.418 187.301 153.071C187.802 152.723 188.304 152.623 188.855 152.623C189.156 152.623 189.456 152.623 189.757 152.524C190.208 152.375 190.559 152.425 190.909 152.773C191.11 152.971 191.31 153.17 191.611 153.17C192.012 153.17 192.212 153.369 192.413 153.766C192.663 154.213 193.064 154.71 193.565 154.76C193.66 154.766 193.756 154.776 193.851 154.785C194.466 154.846 195.093 154.908 195.57 154.263C195.644 154.152 195.774 154.096 195.917 154.034C195.968 154.013 196.019 153.991 196.071 153.965C196.572 153.667 196.622 153.716 196.823 154.263C197.018 154.843 197 155.422 196.983 156.002C196.978 156.167 196.973 156.333 196.973 156.499C196.973 157.095 197.023 157.591 197.725 157.84C197.625 158.039 197.524 158.039 197.474 158.039C196.372 157.989 195.269 158.088 194.317 158.784C194.117 158.933 193.866 159.032 193.616 159.082C193.415 159.132 193.265 159.231 193.114 159.38C192.212 160.225 191.11 160.572 189.907 160.672C188.855 160.721 188.103 161.218 187.402 161.864C187.256 161.999 187.112 162.136 186.968 162.273C186.32 162.889 185.675 163.503 184.896 163.951C184.144 164.348 183.493 164.894 182.942 165.491C182.876 165.555 182.811 165.635 182.745 165.718C182.606 165.889 182.459 166.069 182.29 166.136C181.411 166.485 180.648 167.025 179.898 167.554C179.793 167.629 179.689 167.703 179.584 167.776C178.732 168.372 178.081 169.068 177.83 170.21C177.529 171.75 179.133 173.29 180.686 173.191C181.037 173.191 181.488 173.141 181.789 172.843C182.29 172.346 182.891 172.247 183.593 172.297C183.829 172.33 184.087 172.319 184.337 172.308C184.46 172.302 184.58 172.297 184.695 172.297C185.649 172.254 186.378 172.769 187.077 173.262C187.186 173.339 187.294 173.415 187.402 173.489C187.616 173.644 187.808 173.828 188 174.014C188.303 174.305 188.607 174.599 189.005 174.781C189.111 174.816 189.167 174.923 189.225 175.036C189.25 175.084 189.276 175.134 189.306 175.178C190.208 176.718 192.012 176.818 193.064 176.023C193.515 175.675 193.916 175.774 194.317 175.973C194.868 176.221 195.42 176.569 195.871 177.066C196.672 177.96 197.123 179.004 197.274 180.196C197.284 180.274 197.29 180.352 197.296 180.43C197.32 180.746 197.343 181.049 197.625 181.289C197.825 181.438 197.825 181.686 197.775 181.935C197.574 182.481 197.374 183.028 197.023 183.475C196.672 183.872 196.472 184.27 196.372 184.816C196.272 185.71 196.221 186.605 196.372 187.499C196.472 188.095 196.322 188.393 195.72 188.542C195.57 188.592 195.42 188.592 195.319 188.592C194.167 188.939 193.666 189.635 194.016 190.579C194.167 191.026 194.367 191.374 194.668 191.722C194.95 192.037 195.283 192.228 195.612 192.419C195.75 192.498 195.888 192.577 196.021 192.665C196.372 192.914 196.773 193.013 197.123 192.765C197.424 192.566 197.625 192.715 197.875 192.914C198.027 193.065 198.174 193.216 198.319 193.365C198.603 193.657 198.879 193.942 199.178 194.206C199.98 194.901 200.832 195.497 202.035 195.398C202.786 195.348 203.538 195.299 204.29 195.348C204.69 195.348 205.091 195.249 205.492 195.1C206.194 194.851 206.795 194.504 207.447 194.106C208.248 193.609 208.95 193.013 209.351 192.169C209.381 192.079 209.448 192.007 209.518 191.931C209.564 191.882 209.612 191.83 209.652 191.771C210.003 191.248 210.548 191.031 211.082 190.818C211.157 190.788 211.231 190.758 211.305 190.728C211.857 190.48 212.157 190.132 212.157 189.536C212.157 188.79 212.508 188.145 213.059 187.598C213.212 187.447 213.369 187.308 213.525 187.17C213.831 186.899 214.13 186.636 214.362 186.306C214.863 185.71 215.465 185.363 216.216 185.213C216.617 185.114 216.918 184.965 217.219 184.667C217.87 183.971 218.622 183.475 219.674 183.624C220.225 183.723 220.777 183.624 221.228 183.375C221.629 183.177 221.879 183.226 222.18 183.425L222.781 183.872C223.282 184.319 223.834 184.319 224.335 183.872C224.786 183.475 225.086 183.028 225.086 182.382C225.086 181.438 225.688 180.792 226.439 180.544C227.191 180.295 227.792 179.898 228.394 179.451C229.145 178.904 229.697 178.159 229.797 177.165C229.847 176.718 230.048 176.321 230.348 176.072C231.1 175.427 232.553 175.377 233.455 175.923C234.508 176.569 235.46 177.364 236.312 178.258C236.813 178.805 237.314 178.854 237.965 178.407C238.216 178.258 238.517 178.109 238.817 178.109C239.118 178.109 239.419 178.01 239.619 177.861C240.371 177.265 241.072 177.265 241.874 177.712C242.776 178.209 243.778 177.861 244.33 176.967C244.53 176.669 244.731 176.569 245.081 176.52C245.582 176.47 246.084 176.37 246.585 176.271C247.186 176.172 247.687 175.576 247.637 175.029C247.628 174.96 247.621 174.889 247.614 174.817C247.579 174.479 247.543 174.124 247.336 173.837C246.484 172.545 246.885 171.055 248.389 170.26C248.995 169.942 249.297 169.422 249.601 168.898C249.724 168.686 249.848 168.473 249.992 168.273C250.042 168.173 250.042 167.975 250.042 167.875C249.792 167.08 249.391 166.434 248.489 166.186C248.238 166.136 247.988 166.037 247.787 165.888C247.437 165.54 247.036 165.54 246.635 165.54H242.275C241.674 165.54 241.122 165.64 240.621 165.987C240.17 166.285 239.769 166.584 239.519 167.08C239.018 167.975 238.366 168.124 237.514 167.527L237.214 167.229C237.031 167.079 236.886 166.91 236.744 166.745C236.652 166.638 236.561 166.532 236.462 166.434C236.061 166.037 235.259 166.037 235.159 166.534C235.04 167.035 234.762 167.414 234.482 167.795C234.291 168.056 234.099 168.318 233.956 168.62C233.706 169.117 233.355 169.465 232.754 169.515C232.603 169.515 232.453 169.614 232.303 169.713C232.22 169.746 232.137 169.78 232.052 169.814C231.62 169.99 231.16 170.177 230.699 170.26C229.797 170.459 229.045 169.962 228.444 169.366C228.043 168.968 227.655 168.571 227.266 168.173C226.878 167.776 226.49 167.378 226.089 166.981C225.831 166.725 225.628 166.415 225.426 166.105C225.156 165.691 224.886 165.278 224.485 164.994C224.435 164.944 224.435 164.894 224.385 164.845C224.305 164.476 224.07 164.191 223.837 163.908C223.631 163.658 223.427 163.409 223.332 163.106C222.152 161.981 221.424 160.57 220.701 159.169C220.626 159.024 220.551 158.879 220.476 158.734C220.006 157.802 219.673 156.793 219.343 155.791C219.145 155.19 218.947 154.592 218.722 154.015C218.699 153.969 218.687 153.913 218.675 153.861C218.661 153.799 218.649 153.743 218.622 153.716C218.096 153.238 218.107 152.647 218.118 152.04C218.119 151.953 218.121 151.866 218.121 151.779C218.121 150.388 218.772 149.643 220.175 149.345C220.376 149.295 220.576 149.245 220.777 149.096C220.82 149.072 220.864 149.047 220.908 149.021C221.226 148.839 221.578 148.637 221.929 148.55C222.33 148.45 222.581 148.202 222.731 147.904C222.881 147.608 223.101 147.346 223.319 147.089C223.466 146.915 223.612 146.743 223.733 146.563C223.984 146.165 224.234 146.165 224.685 146.463C224.761 146.513 224.823 146.562 224.886 146.612C224.948 146.662 225.011 146.712 225.086 146.761C225.287 146.96 225.638 147.01 225.788 146.861C226.038 146.587 226.352 146.413 226.665 146.24C226.978 146.066 227.291 145.892 227.542 145.619C227.757 145.406 227.963 145.185 228.17 144.964C228.686 144.411 229.203 143.859 229.847 143.433C230.549 142.986 231.15 142.439 231.701 141.793C231.773 141.704 231.858 141.634 231.942 141.565C232.092 141.442 232.238 141.321 232.303 141.098C232.653 139.756 233.756 139.111 234.959 138.614C235.46 138.382 236.005 138.238 236.551 138.095C236.824 138.023 237.097 137.951 237.364 137.869C238.316 137.57 239.368 137.57 240.321 138.117C241.122 138.564 241.573 138.465 242.225 137.819C242.39 137.655 242.555 137.486 242.722 137.315C243.062 136.967 243.409 136.612 243.778 136.279C243.879 136.179 244.029 136.03 244.179 135.981C244.466 135.848 244.738 135.694 245.01 135.54C245.45 135.29 245.888 135.041 246.384 134.888C247.286 134.59 248.138 134.441 248.99 134.888C249.491 135.136 249.792 135.086 250.193 134.739C250.503 134.445 250.802 134.137 251.102 133.827C251.917 132.987 252.738 132.14 253.801 131.559C254.302 131.311 254.853 131.013 255.204 130.566C255.254 130.466 255.405 130.466 255.505 130.466C255.673 130.466 255.842 130.452 256.009 130.438C256.537 130.393 257.052 130.349 257.509 130.764C257.91 131.062 258.411 130.963 258.662 130.665C258.962 130.268 259.213 129.87 259.463 129.473L259.464 129.473C259.554 129.319 259.641 129.164 259.728 129.011C260.173 128.226 260.605 127.463 261.318 126.84C261.408 126.76 261.496 126.674 261.585 126.589C261.939 126.245 262.3 125.896 262.821 125.896C263.392 125.896 263.946 125.831 264.502 125.767C264.923 125.718 265.346 125.669 265.778 125.647C265.882 125.636 265.989 125.632 266.096 125.629C266.452 125.617 266.811 125.605 267.081 125.3C267.206 125.134 267.434 125.141 267.681 125.148C267.731 125.149 267.782 125.15 267.832 125.15C267.964 125.15 268.102 125.156 268.241 125.161C268.525 125.172 268.816 125.184 269.085 125.15C269.423 125.113 269.768 125.118 270.115 125.123C270.694 125.13 271.278 125.138 271.841 124.952C272.744 124.654 273.295 123.759 273.044 122.865C273.016 122.752 272.955 122.656 272.899 122.566C272.856 122.497 272.815 122.433 272.794 122.368C272.593 121.872 272.493 121.425 272.944 121.027C273.084 120.916 273.193 120.773 273.306 120.626C273.395 120.51 273.485 120.391 273.595 120.282C274.046 119.835 273.996 119.288 273.495 118.841C273.281 118.629 273.14 118.417 272.979 118.174C272.951 118.132 272.923 118.09 272.894 118.046C272.744 117.897 272.693 117.699 272.844 117.5C273.058 117.202 273.052 116.867 273.046 116.528C273.045 116.471 273.044 116.414 273.044 116.357V113.426C273.044 112.681 273.345 112.085 273.946 111.687C274.008 111.65 274.071 111.613 274.134 111.575C274.832 111.154 275.583 110.702 276.502 110.793C277.153 110.892 277.655 110.644 278.156 110.147C278.271 110.033 278.374 109.907 278.476 109.781C278.729 109.469 278.98 109.16 279.409 109.054C280.21 108.806 280.411 108.259 280.461 107.514C280.494 107.152 280.483 106.811 280.472 106.463C280.467 106.287 280.461 106.108 280.461 105.924C280.561 104.782 280.711 104.484 281.914 104.533C283.363 104.56 284.797 104.473 286.224 104.386C287.463 104.31 288.698 104.235 289.932 104.235H294.593C295.495 104.235 296.297 103.49 296.397 102.596C296.472 101.663 296.462 100.702 296.453 99.7547C296.45 99.4411 296.447 99.1291 296.447 98.8202C296.447 98.7354 296.445 98.6497 296.443 98.5635C296.43 98.0434 296.418 97.5075 296.848 97.0814C296.898 97.0317 296.948 96.8826 296.948 96.7833C296.998 95.4916 297.499 94.3987 298.301 93.4547C298.745 92.9164 298.655 92.3781 298.556 91.7923L298.552 91.7656C298.501 91.3185 298 91.1694 297.549 91.1198C297.249 91.0701 296.998 90.8714 296.998 90.5733C296.998 89.6791 296.697 88.8842 296.246 88.139C296.196 88.0396 296.146 87.9403 296.196 87.7912C296.289 87.1495 295.955 86.6346 295.627 86.1296C295.599 86.0873 295.572 86.045 295.545 86.0027C295.044 85.2575 294.492 84.6117 293.44 84.8104C293.24 84.8601 292.989 84.8104 292.789 84.7607C292.338 84.6614 292.087 84.3633 292.237 83.9162C292.388 83.4691 292.388 83.0219 292.388 82.5748C292.388 81.9666 292.689 81.4963 292.992 81.0232C293.135 80.8007 293.278 80.5776 293.39 80.3392C293.465 80.1902 293.625 80.125 293.785 80.0598C293.838 80.0381 293.891 80.0163 293.941 79.9915C294.643 79.7431 295.395 79.7928 296.096 79.8424C296.397 79.8424 296.697 79.8424 296.898 79.6437C297.399 79.2463 297.75 78.7495 297.9 78.1533H297.13ZM222.959 166.258C222.883 166.201 222.806 166.145 222.731 166.087C222.18 166.782 222.13 167.975 222.581 168.571C222.731 168.769 222.881 168.968 223.082 169.018C223.733 169.117 224.234 169.415 224.736 169.763C224.936 169.862 225.136 169.813 225.337 169.664C225.487 169.515 225.487 169.266 225.387 169.068C225.187 168.67 224.886 168.322 224.585 168.024C224.534 167.974 224.483 167.925 224.433 167.878C224.237 167.691 224.054 167.517 223.934 167.279C223.725 166.824 223.342 166.541 222.959 166.258ZM217.569 159.43C217.169 159.33 216.968 159.479 216.868 159.678C216.718 159.877 216.818 160.075 217.018 160.175C217.519 160.473 218.071 160.771 218.622 161.019C218.772 161.119 218.922 161.069 219.023 160.97C219.114 160.835 219.081 160.74 219.037 160.613C219.032 160.6 219.027 160.586 219.023 160.572C218.822 159.678 218.171 159.479 217.569 159.43ZM216.517 155.157C216.517 155.008 216.367 154.809 216.267 154.76C215.799 154.528 215.453 154.207 215.11 153.888C215.012 153.797 214.914 153.706 214.813 153.617C214.513 153.369 214.312 153.468 214.162 153.865C214.085 154.132 214.096 154.399 214.106 154.62C214.109 154.688 214.112 154.751 214.112 154.809C214.112 154.971 214.105 155.114 214.099 155.244C214.088 155.473 214.08 155.663 214.112 155.853C214.162 156.349 214.412 156.499 214.863 156.449C214.964 156.399 215.064 156.349 215.164 156.349C215.665 156.3 215.815 156.399 215.866 156.896C215.886 156.976 215.89 157.064 215.894 157.153C215.9 157.286 215.906 157.423 215.966 157.542C216.066 157.741 216.166 157.89 216.417 157.84C216.667 157.79 216.718 157.591 216.718 157.393C216.749 156.927 216.682 156.461 216.616 155.995C216.576 155.716 216.536 155.437 216.517 155.157ZM213.911 151.381C213.811 151.381 213.711 151.431 213.611 151.481C213.46 151.531 213.36 151.63 213.41 151.779C213.46 151.978 213.611 152.127 213.811 152.127C213.961 152.127 214.563 151.531 214.613 151.332C214.613 151.282 214.613 151.183 214.563 151.183C214.382 151.034 214.274 151.135 214.162 151.24C214.087 151.31 214.011 151.381 213.911 151.381ZM210.804 157.194C211.055 157.194 211.355 157.194 211.456 156.797C211.506 156.548 210.704 155.803 210.504 155.853C210.093 155.898 210.098 156.19 210.102 156.466C210.102 156.494 210.103 156.521 210.103 156.548C210.103 157.095 210.253 157.194 210.804 157.194ZM201.233 150.189C200.732 150.438 200.281 150.587 199.779 150.636C199.579 150.686 199.429 150.736 199.429 150.885C199.379 151.083 199.529 151.183 199.679 151.282C199.779 151.348 199.891 151.398 200.002 151.448C200.225 151.547 200.448 151.646 200.581 151.878C200.882 152.375 201.333 152.375 201.834 152.325L203.337 152.176C204.29 152.077 204.991 152.425 205.442 153.269C205.693 153.716 206.094 153.965 206.595 153.965C206.895 154.015 207.146 154.015 207.447 154.015C207.501 154.015 207.555 154.014 207.609 154.014C208.256 154.01 208.896 154.007 209.451 154.511C209.752 154.76 210.002 154.611 210.153 154.313C210.303 154.064 210.353 153.816 210.403 153.518C210.429 153.403 210.445 153.281 210.461 153.157C210.508 152.799 210.557 152.422 210.854 152.127C210.904 152.077 210.904 151.978 210.904 151.928C210.904 151.63 210.754 151.381 210.453 151.381C209.952 151.381 209.602 151.083 209.251 150.736C209.189 150.644 209.091 150.609 208.989 150.573C208.924 150.549 208.858 150.526 208.8 150.487C208.449 150.313 208.061 150.202 207.672 150.09C207.284 149.978 206.895 149.866 206.545 149.692C205.993 149.444 205.743 149.593 205.392 149.891C204.54 150.636 203.738 150.785 202.786 150.289C202.235 150.04 201.734 149.941 201.233 150.189ZM172.042 142.01C171.785 142.013 171.526 142.017 171.315 142.191C171.295 142.211 171.273 142.23 171.251 142.25C171.163 142.33 171.075 142.409 171.115 142.489C171.115 142.638 171.215 142.737 171.366 142.787C171.766 142.886 172.067 142.986 172.368 143.234C172.568 143.383 172.869 143.333 173.069 143.184L173.671 142.737C173.971 142.588 173.921 142.34 173.621 142.191C173.22 141.992 172.769 141.992 172.368 141.992C172.262 142.007 172.153 142.008 172.042 142.01ZM167.808 140.551C167.657 140.849 167.407 141.098 167.156 141.346C167.056 141.495 166.956 141.694 167.056 141.942C167.156 142.141 167.356 142.141 167.557 142.141C168.008 142.091 168.409 142.042 168.76 141.992C168.842 141.992 168.895 142.007 168.942 142.021C168.98 142.032 169.015 142.042 169.06 142.042C169.161 142.042 169.311 142.042 169.411 141.893C169.511 141.694 169.361 141.545 169.261 141.446L168.509 140.551C168.309 140.353 167.958 140.253 167.808 140.551ZM139.093 147.407C138.692 147.407 138.441 147.606 138.241 147.904C138.103 148.11 138.203 148.244 138.312 148.39C138.36 148.455 138.41 148.523 138.441 148.599C138.575 148.821 138.789 148.924 138.976 149.014C138.998 149.025 139.021 149.036 139.043 149.047C139.344 149.184 139.612 149.364 139.879 149.542C140.189 149.75 140.496 149.956 140.847 150.09C140.92 150.108 140.98 150.159 141.036 150.207C141.134 150.291 141.221 150.365 141.348 150.239C141.502 150.086 141.39 149.963 141.284 149.847C141.252 149.811 141.221 149.777 141.198 149.742C141.148 149.593 140.997 149.444 140.897 149.345C140.839 149.278 140.779 149.214 140.719 149.149C140.42 148.824 140.12 148.5 139.995 148.003C139.895 147.606 139.544 147.407 139.093 147.407Z" fill="#FFD5CF"/>
<circle cx="13.7614" cy="79.7009" r="5.12566" fill="#F62727"/>
<circle cx="13.7061" cy="79.7495" r="8.91895" stroke="#F62727"/>
<rect x="33" y="58.0005" width="179" height="40" rx="20" fill="#F62727"/>
<path d="M54.84 84.1605C53.9547 84.1605 53.1813 83.9898 52.52 83.6485C51.8587 83.2965 51.3467 82.7685 50.984 82.0645C50.6213 81.3498 50.44 80.4485 50.44 79.3605V72.8005H51.944V79.3605C51.944 80.5765 52.2 81.4565 52.712 82.0005C53.224 82.5445 53.9333 82.8165 54.84 82.8165C55.7467 82.8165 56.456 82.5445 56.968 82.0005C57.48 81.4565 57.736 80.5765 57.736 79.3605V72.8005H59.24V79.3605C59.24 80.4485 59.0587 81.3498 58.696 82.0645C58.3333 82.7685 57.8213 83.2965 57.16 83.6485C56.5093 83.9898 55.736 84.1605 54.84 84.1605ZM61.9675 84.0005V72.8005H63.3755V79.4245L67.2795 75.5205H69.0075L65.4875 79.0245L69.3275 84.0005H67.5355L64.4795 80.0005L63.3755 81.0405V84.0005H61.9675ZM71.0144 84.0005V75.5205H72.3264V77.1205C72.4544 76.7792 72.6304 76.4805 72.8544 76.2245C73.0784 75.9578 73.3504 75.7498 73.6704 75.6005C74.001 75.4405 74.369 75.3605 74.7744 75.3605C74.9877 75.3605 75.1584 75.3712 75.2864 75.3925C75.425 75.4138 75.5477 75.4405 75.6544 75.4725V76.7845C75.5157 76.7312 75.377 76.6938 75.2384 76.6725C75.1104 76.6512 74.929 76.6405 74.6944 76.6405C74.2677 76.6405 73.8837 76.7418 73.5424 76.9445C73.201 77.1472 72.929 77.4298 72.7264 77.7925C72.5237 78.1445 72.4224 78.5605 72.4224 79.0405V84.0005H71.0144ZM79.5085 84.1605C78.8898 84.1605 78.3618 84.0485 77.9245 83.8245C77.4978 83.5898 77.1725 83.2752 76.9485 82.8805C76.7245 82.4752 76.6125 82.0218 76.6125 81.5205C76.6125 80.6778 76.8578 80.0698 77.3485 79.6965C77.8498 79.3232 78.5645 79.1365 79.4925 79.1365H82.2445V78.5605C82.2445 77.8352 82.0792 77.3338 81.7485 77.0565C81.4285 76.7792 80.9432 76.6405 80.2925 76.6405C79.6845 76.6405 79.2418 76.7578 78.9645 76.9925C78.6872 77.2165 78.5325 77.4725 78.5005 77.7605H77.0925C77.1245 77.3018 77.2792 76.8965 77.5565 76.5445C77.8338 76.1818 78.2125 75.8938 78.6925 75.6805C79.1725 75.4672 79.7325 75.3605 80.3725 75.3605C81.0445 75.3605 81.6258 75.4672 82.1165 75.6805C82.6072 75.8832 82.9858 76.2085 83.2525 76.6565C83.5192 77.0938 83.6525 77.6752 83.6525 78.4005V81.8405C83.6525 82.2885 83.6525 82.6832 83.6525 83.0245C83.6632 83.3552 83.6898 83.6805 83.7325 84.0005H82.5005C82.4685 83.7552 82.4472 83.5258 82.4365 83.3125C82.4258 83.0885 82.4205 82.8378 82.4205 82.5605C82.1965 83.0085 81.8338 83.3872 81.3325 83.6965C80.8312 84.0058 80.2232 84.1605 79.5085 84.1605ZM79.8125 82.8805C80.2605 82.8805 80.6658 82.8005 81.0285 82.6405C81.4018 82.4805 81.6952 82.2458 81.9085 81.9365C82.1325 81.6272 82.2445 81.2485 82.2445 80.8005V80.2245H79.7325C79.2098 80.2245 78.7992 80.3312 78.5005 80.5445C78.2018 80.7472 78.0525 81.0725 78.0525 81.5205C78.0525 81.9152 78.1912 82.2405 78.4685 82.4965C78.7565 82.7525 79.2045 82.8805 79.8125 82.8805ZM86.2994 84.0005V75.5205H87.7074V84.0005H86.2994ZM87.0034 74.4005C86.726 74.4005 86.4967 74.3098 86.3154 74.1285C86.134 73.9472 86.0434 73.7178 86.0434 73.4405C86.0434 73.1632 86.134 72.9338 86.3154 72.7525C86.4967 72.5712 86.726 72.4805 87.0034 72.4805C87.2807 72.4805 87.51 72.5712 87.6914 72.7525C87.8727 72.9338 87.9634 73.1632 87.9634 73.4405C87.9634 73.7178 87.8727 73.9472 87.6914 74.1285C87.51 74.3098 87.2807 74.4005 87.0034 74.4005ZM90.4206 84.0005V75.5205H91.7326V77.1205C91.9246 76.6512 92.2606 76.2405 92.7406 75.8885C93.2313 75.5365 93.8606 75.3605 94.6286 75.3605C95.6953 75.3605 96.4846 75.6485 96.9966 76.2245C97.5193 76.7898 97.7806 77.6218 97.7806 78.7205V84.0005H96.3726V79.0405C96.3726 78.2512 96.2073 77.6538 95.8766 77.2485C95.546 76.8432 94.9913 76.6405 94.2126 76.6405C93.658 76.6405 93.2046 76.7578 92.8526 76.9925C92.5006 77.2272 92.2393 77.5258 92.0686 77.8885C91.9086 78.2512 91.8286 78.6352 91.8286 79.0405V84.0005H90.4206ZM103.784 84.1605C103.07 84.1605 102.398 84.0058 101.768 83.6965C101.15 83.3872 100.648 82.9125 100.264 82.2725C99.891 81.6325 99.7044 80.8218 99.7044 79.8405V79.5205C99.7044 78.5818 99.8857 77.8085 100.248 77.2005C100.611 76.5818 101.091 76.1232 101.688 75.8245C102.286 75.5152 102.931 75.3605 103.624 75.3605C104.872 75.3605 105.838 75.7018 106.52 76.3845C107.203 77.0672 107.544 78.0325 107.544 79.2805V80.1765H101.112C101.112 80.8378 101.246 81.3658 101.512 81.7605C101.79 82.1552 102.131 82.4432 102.536 82.6245C102.952 82.7952 103.368 82.8805 103.784 82.8805C104.424 82.8805 104.915 82.7738 105.256 82.5605C105.608 82.3472 105.859 82.0538 106.008 81.6805H107.384C107.214 82.4912 106.792 83.1098 106.12 83.5365C105.459 83.9525 104.68 84.1605 103.784 84.1605ZM103.704 76.6405C103.267 76.6405 102.851 76.7258 102.456 76.8965C102.062 77.0565 101.736 77.3125 101.48 77.6645C101.235 78.0165 101.112 78.4698 101.112 79.0245H106.216C106.206 78.4378 106.083 77.9738 105.848 77.6325C105.624 77.2805 105.326 77.0298 104.952 76.8805C104.579 76.7205 104.163 76.6405 103.704 76.6405ZM108.833 86.4005L109.473 84.0005V82.2405H111.233V84.0005L109.633 86.4005H108.833ZM122.59 84.1605C121.705 84.1605 120.931 83.9898 120.27 83.6485C119.609 83.2965 119.097 82.7685 118.734 82.0645C118.371 81.3498 118.19 80.4485 118.19 79.3605V72.8005H119.694V79.3605C119.694 80.5765 119.95 81.4565 120.462 82.0005C120.974 82.5445 121.683 82.8165 122.59 82.8165C123.497 82.8165 124.206 82.5445 124.718 82.0005C125.23 81.4565 125.486 80.5765 125.486 79.3605V72.8005H126.99V79.3605C126.99 80.4485 126.809 81.3498 126.446 82.0645C126.083 82.7685 125.571 83.2965 124.91 83.6485C124.259 83.9898 123.486 84.1605 122.59 84.1605ZM129.078 84.0005V82.8325L134.102 76.7685H129.238V75.5205H135.798V76.6885L130.774 82.7525H135.958V84.0005H129.078ZM137.874 84.0005V72.8005H139.282V77.0405C139.431 76.7418 139.634 76.4645 139.89 76.2085C140.146 75.9525 140.455 75.7498 140.818 75.6005C141.191 75.4405 141.612 75.3605 142.082 75.3605C143.148 75.3605 143.938 75.6485 144.45 76.2245C144.972 76.7898 145.234 77.6218 145.234 78.7205V84.0005H143.826V79.0405C143.826 78.2512 143.66 77.6538 143.33 77.2485C142.999 76.8432 142.444 76.6405 141.666 76.6405C141.111 76.6405 140.658 76.7578 140.306 76.9925C139.954 77.2272 139.692 77.5258 139.522 77.8885C139.362 78.2512 139.282 78.6352 139.282 79.0405V84.0005H137.874ZM151.078 87.3605C150.256 87.3605 149.59 87.2538 149.078 87.0405C148.566 86.8272 148.187 86.5392 147.942 86.1765C147.696 85.8138 147.542 85.4085 147.478 84.9605H148.95C149.056 85.3018 149.259 85.5738 149.558 85.7765C149.856 85.9792 150.363 86.0805 151.078 86.0805C151.942 86.0805 152.576 85.8725 152.982 85.4565C153.387 85.0405 153.59 84.4485 153.59 83.6805V82.3205C153.344 82.8858 152.966 83.3072 152.454 83.5845C151.952 83.8618 151.36 84.0005 150.678 84.0005C149.984 84.0005 149.371 83.8405 148.838 83.5205C148.304 83.2005 147.888 82.7258 147.59 82.0965C147.302 81.4672 147.158 80.6885 147.158 79.7605V79.4405C147.158 78.5658 147.307 77.8298 147.606 77.2325C147.915 76.6245 148.331 76.1605 148.854 75.8405C149.387 75.5205 149.995 75.3605 150.678 75.3605C151.403 75.3605 152.032 75.5258 152.566 75.8565C153.099 76.1765 153.472 76.5978 153.686 77.1205V75.5205H154.998V83.6805C154.998 84.8325 154.662 85.7338 153.99 86.3845C153.318 87.0352 152.347 87.3605 151.078 87.3605ZM150.998 82.7525C151.51 82.7525 151.958 82.6458 152.342 82.4325C152.736 82.2192 153.04 81.9258 153.254 81.5525C153.478 81.1685 153.59 80.7312 153.59 80.2405V78.9605C153.59 78.5232 153.478 78.1285 153.254 77.7765C153.04 77.4245 152.736 77.1418 152.342 76.9285C151.958 76.7152 151.51 76.6085 150.998 76.6085C150.315 76.6085 149.739 76.8592 149.27 77.3605C148.8 77.8618 148.566 78.5552 148.566 79.4405V79.7605C148.566 80.7312 148.8 81.4725 149.27 81.9845C149.739 82.4965 150.315 82.7525 150.998 82.7525ZM161.081 84.1605C160.367 84.1605 159.695 84.0058 159.065 83.6965C158.447 83.3765 157.945 82.8965 157.561 82.2565C157.188 81.6165 157.001 80.8112 157.001 79.8405V79.5205C157.001 78.6032 157.188 77.8352 157.561 77.2165C157.945 76.5978 158.447 76.1338 159.065 75.8245C159.695 75.5152 160.367 75.3605 161.081 75.3605C161.807 75.3605 162.479 75.5152 163.097 75.8245C163.716 76.1338 164.212 76.5978 164.585 77.2165C164.969 77.8352 165.161 78.6032 165.161 79.5205V79.8405C165.161 80.8112 164.969 81.6165 164.585 82.2565C164.212 82.8965 163.716 83.3765 163.097 83.6965C162.479 84.0058 161.807 84.1605 161.081 84.1605ZM161.081 82.8805C161.519 82.8805 161.935 82.7845 162.329 82.5925C162.735 82.3898 163.065 82.0645 163.321 81.6165C163.588 81.1685 163.721 80.5765 163.721 79.8405V79.5205C163.721 78.8378 163.588 78.2885 163.321 77.8725C163.065 77.4458 162.735 77.1365 162.329 76.9445C161.935 76.7418 161.519 76.6405 161.081 76.6405C160.655 76.6405 160.239 76.7418 159.833 76.9445C159.428 77.1365 159.092 77.4458 158.825 77.8725C158.569 78.2885 158.441 78.8378 158.441 79.5205V79.8405C158.441 80.5765 158.569 81.1685 158.825 81.6165C159.092 82.0645 159.428 82.3898 159.833 82.5925C160.239 82.7845 160.655 82.8805 161.081 82.8805ZM167.155 84.0005V75.5205H168.467V77.1205C168.595 76.7792 168.771 76.4805 168.995 76.2245C169.219 75.9578 169.491 75.7498 169.811 75.6005C170.142 75.4405 170.51 75.3605 170.915 75.3605C171.128 75.3605 171.299 75.3712 171.427 75.3925C171.566 75.4138 171.688 75.4405 171.795 75.4725V76.7845C171.656 76.7312 171.518 76.6938 171.379 76.6725C171.251 76.6512 171.07 76.6405 170.835 76.6405C170.408 76.6405 170.024 76.7418 169.683 76.9445C169.342 77.1472 169.07 77.4298 168.867 77.7925C168.664 78.1445 168.563 78.5605 168.563 79.0405V84.0005H167.155ZM176.753 84.1605C176.038 84.1605 175.366 84.0058 174.737 83.6965C174.118 83.3765 173.617 82.8965 173.233 82.2565C172.86 81.6165 172.673 80.8112 172.673 79.8405V79.5205C172.673 78.6032 172.86 77.8352 173.233 77.2165C173.617 76.5978 174.118 76.1338 174.737 75.8245C175.366 75.5152 176.038 75.3605 176.753 75.3605C177.478 75.3605 178.15 75.5152 178.769 75.8245C179.388 76.1338 179.884 76.5978 180.257 77.2165C180.641 77.8352 180.833 78.6032 180.833 79.5205V79.8405C180.833 80.8112 180.641 81.6165 180.257 82.2565C179.884 82.8965 179.388 83.3765 178.769 83.6965C178.15 84.0058 177.478 84.1605 176.753 84.1605ZM176.753 82.8805C177.19 82.8805 177.606 82.7845 178.001 82.5925C178.406 82.3898 178.737 82.0645 178.993 81.6165C179.26 81.1685 179.393 80.5765 179.393 79.8405V79.5205C179.393 78.8378 179.26 78.2885 178.993 77.8725C178.737 77.4458 178.406 77.1365 178.001 76.9445C177.606 76.7418 177.19 76.6405 176.753 76.6405C176.326 76.6405 175.91 76.7418 175.505 76.9445C175.1 77.1365 174.764 77.4458 174.497 77.8725C174.241 78.2885 174.113 78.8378 174.113 79.5205V79.8405C174.113 80.5765 174.241 81.1685 174.497 81.6165C174.764 82.0645 175.1 82.3898 175.505 82.5925C175.91 82.7845 176.326 82.8805 176.753 82.8805ZM185.787 84.1605C185.094 84.1605 184.48 84.0005 183.947 83.6805C183.414 83.3605 182.998 82.8805 182.699 82.2405C182.411 81.6005 182.267 80.8005 182.267 79.8405V79.5205C182.267 78.6245 182.416 77.8672 182.715 77.2485C183.024 76.6298 183.44 76.1605 183.963 75.8405C184.496 75.5205 185.104 75.3605 185.787 75.3605C186.47 75.3605 187.062 75.5098 187.563 75.8085C188.075 76.1072 188.454 76.5178 188.699 77.0405V72.8005H190.107V84.0005H188.795V82.4005C188.582 82.9232 188.208 83.3498 187.675 83.6805C187.142 84.0005 186.512 84.1605 185.787 84.1605ZM186.107 82.9125C186.619 82.9125 187.067 82.8058 187.451 82.5925C187.846 82.3685 188.15 82.0645 188.363 81.6805C188.587 81.2858 188.699 80.8325 188.699 80.3205V79.0405C188.699 78.5818 188.587 78.1712 188.363 77.8085C188.15 77.4352 187.846 77.1418 187.451 76.9285C187.067 76.7152 186.619 76.6085 186.107 76.6085C185.424 76.6085 184.848 76.8645 184.379 77.3765C183.91 77.8778 183.675 78.5925 183.675 79.5205V79.8405C183.675 80.8432 183.91 81.6058 184.379 82.1285C184.848 82.6512 185.424 82.9125 186.107 82.9125Z" fill="white"/>
</g>
</g>
<defs>
<clipPath id="clip0_170_371">
<rect width="318" height="196" fill="white"/>
</clipPath>
<clipPath id="clip1_170_371">
<rect width="318" height="196" fill="white" transform="translate(0 0.000488281)"/>
</clipPath>
</defs>
</svg>
