<svg width="102" height="46" viewBox="0 0 102 46" fill="none" xmlns="http://www.w3.org/2000/svg">
<g clip-path="url(#clip0_49_115)">
<g clip-path="url(#clip1_49_115)">
<path d="M1.90418 38.2781C1.56815 38.2781 1.30679 38.2408 1.08277 38.1661C0.858749 38.0914 0.672065 37.9794 0.48538 37.8674C0.336032 37.7554 0.224022 37.6061 0.149348 37.4194C0.0746739 37.27 0.0373369 37.0833 0 36.8967H0.896086C0.933423 37.046 1.04543 37.1954 1.19478 37.27C1.34413 37.382 1.56815 37.4194 1.90418 37.4194C2.27755 37.4194 2.53891 37.382 2.68826 37.27C2.83761 37.158 2.91228 37.046 2.91228 36.8967C2.91228 36.7846 2.87494 36.71 2.80027 36.6353C2.7256 36.598 2.61359 36.5233 2.4269 36.4859C2.27755 36.4113 2.05353 36.3739 1.75484 36.3366C1.49348 36.2993 1.26946 36.2619 1.08277 36.1873C0.896086 36.1126 0.709402 36.0379 0.560054 35.9259C0.410706 35.8139 0.298695 35.7019 0.224022 35.5525C0.149348 35.4032 0.112011 35.2165 0.112011 35.0298C0.112011 34.8058 0.186685 34.5818 0.298695 34.3951C0.448043 34.2084 0.634728 34.059 0.896086 33.947C1.15744 33.835 1.49348 33.7604 1.90418 33.7604C2.27755 33.7604 2.61358 33.835 2.83761 33.947C3.09897 34.059 3.28565 34.2457 3.39766 34.4324C3.50967 34.6191 3.58435 34.8431 3.62168 35.1045H2.7256C2.68826 34.8805 2.61358 34.7311 2.46424 34.6564C2.31489 34.5444 2.12821 34.5071 1.90418 34.5071C1.56815 34.5071 1.34413 34.5444 1.23212 34.6564C1.12011 34.7685 1.04543 34.8805 1.04543 34.9925C1.04543 35.1418 1.12011 35.2538 1.26946 35.3658C1.4188 35.4778 1.68016 35.5525 2.12821 35.5899C2.38956 35.6272 2.61358 35.6645 2.83761 35.7392C3.06163 35.8139 3.21098 35.8886 3.36032 36.0006C3.50967 36.1126 3.62168 36.2246 3.73369 36.3739C3.80837 36.5233 3.8457 36.71 3.8457 36.934C3.8457 37.1954 3.77103 37.4194 3.62168 37.6061C3.47233 37.7927 3.28565 37.9794 2.98695 38.0914C2.68826 38.2408 2.31489 38.2781 1.90418 38.2781ZM6.64597 38.2781C6.23527 38.2781 5.8619 38.2034 5.5632 38.0168C5.22717 37.8301 4.96581 37.6061 4.77913 37.27C4.59244 36.934 4.48043 36.5233 4.48043 36.0379V35.8886C4.48043 35.4405 4.59244 35.0298 4.77913 34.6938C4.96581 34.3577 5.22717 34.1337 5.5632 33.947C5.89923 33.7977 6.23527 33.6857 6.64597 33.6857C7.05668 33.6857 7.43005 33.7604 7.72874 33.947C8.06478 34.0964 8.32614 34.3577 8.51282 34.6938C8.6995 35.0298 8.81152 35.4032 8.81152 35.8886V36.0379C8.81152 36.5233 8.6995 36.934 8.51282 37.27C8.32614 37.6061 8.06478 37.8674 7.72874 38.0168C7.39271 38.2034 7.05668 38.2781 6.64597 38.2781ZM6.64597 37.494C6.87 37.494 7.05668 37.4567 7.24336 37.3447C7.43005 37.2327 7.5794 37.0833 7.69141 36.8967C7.80342 36.6726 7.87809 36.4113 7.87809 36.0752V35.9259C7.87809 35.6272 7.80342 35.3658 7.69141 35.1418C7.5794 34.9551 7.43005 34.8058 7.24336 34.6938C7.05668 34.5818 6.87 34.5444 6.64597 34.5444C6.42195 34.5444 6.23527 34.5818 6.04858 34.6938C5.8619 34.8058 5.71255 34.9551 5.60054 35.1418C5.48853 35.3285 5.41386 35.5899 5.41386 35.9259V36.0752C5.41386 36.4113 5.48853 36.71 5.60054 36.8967C5.71255 37.1207 5.8619 37.27 6.04858 37.3447C6.23527 37.4194 6.42195 37.494 6.64597 37.494ZM11.0891 38.2408C10.7904 38.2408 10.529 38.2034 10.305 38.0914C10.1183 37.9794 9.96896 37.8301 9.85695 37.6434C9.74494 37.4194 9.7076 37.158 9.7076 36.7846V32.3789H10.6037V36.71C10.6037 36.9713 10.641 37.158 10.753 37.27C10.8277 37.382 11.0144 37.4194 11.2384 37.4194C11.3131 37.4194 11.3504 37.4194 11.3878 37.4194C11.4251 37.4194 11.4624 37.4194 11.5371 37.4194V38.2034C11.4998 38.2034 11.4624 38.2034 11.3878 38.2034C11.3504 38.2034 11.2758 38.2034 11.2011 38.2034C11.2011 38.2408 11.1637 38.2408 11.0891 38.2408ZM13.9267 38.2781C13.404 38.2781 13.0306 38.1288 12.7319 37.8301C12.4705 37.5314 12.3212 37.0833 12.3212 36.4486V33.7977H13.2173V36.3739C13.2173 36.7473 13.2919 37.0087 13.4413 37.1953C13.5906 37.382 13.852 37.494 14.188 37.494C14.4494 37.494 14.6361 37.4567 14.7854 37.3447C14.9348 37.2327 15.0468 37.0833 15.1215 36.934C15.1961 36.7473 15.2335 36.598 15.2335 36.3739V33.7977H16.1296V38.2034H15.3081V37.4567C15.1961 37.6807 15.0468 37.8674 14.7854 38.0541C14.5614 38.2034 14.2627 38.2781 13.9267 38.2781ZM19.0045 38.2408C18.6685 38.2408 18.4071 38.2034 18.1831 38.0914C17.9964 37.9794 17.8097 37.8674 17.735 37.6434C17.623 37.4567 17.5857 37.158 17.5857 36.8593V34.5818H16.951V33.7977H17.5857V32.7896H18.4818V33.7977H19.6019V34.5818H18.4818V36.7473C18.4818 37.0087 18.5191 37.1954 18.6311 37.3074C18.7431 37.4194 18.9298 37.4567 19.1912 37.4567C19.3405 37.4567 19.5272 37.4567 19.6766 37.4194V38.2034C19.5646 38.2034 19.4525 38.2408 19.3405 38.2408C19.3032 38.2408 19.1538 38.2408 19.0045 38.2408ZM20.722 38.2034V33.7977H21.6181V38.2034H20.722ZM21.17 33.3123C20.9834 33.3123 20.8713 33.275 20.7593 33.163C20.6473 33.051 20.61 32.9016 20.61 32.7523C20.61 32.6029 20.6473 32.4536 20.7593 32.3415C20.8713 32.2295 21.0207 32.1922 21.17 32.1922C21.3194 32.1922 21.4687 32.2295 21.5807 32.3415C21.6928 32.4536 21.7301 32.6029 21.7301 32.7523C21.7301 32.9016 21.6928 33.051 21.5807 33.163C21.4687 33.2376 21.3567 33.3123 21.17 33.3123ZM24.7917 38.2781C24.381 38.2781 24.0076 38.2034 23.709 38.0168C23.3729 37.8301 23.1116 37.6061 22.9249 37.27C22.7382 36.934 22.6262 36.5233 22.6262 36.0379V35.8886C22.6262 35.4405 22.7382 35.0298 22.9249 34.6938C23.1116 34.3577 23.3729 34.1337 23.709 33.947C24.045 33.7977 24.381 33.6857 24.7917 33.6857C25.2024 33.6857 25.5758 33.7604 25.8745 33.947C26.2105 34.0964 26.4719 34.3577 26.6586 34.6938C26.8453 35.0298 26.9573 35.4032 26.9573 35.8886V36.0379C26.9573 36.5233 26.8453 36.934 26.6586 37.27C26.4719 37.6061 26.2105 37.8674 25.8745 38.0168C25.5385 38.2034 25.2024 38.2781 24.7917 38.2781ZM24.7917 37.494C25.0157 37.494 25.2024 37.4567 25.3891 37.3447C25.5758 37.2327 25.7251 37.0833 25.8372 36.8967C25.9492 36.6726 26.0238 36.4113 26.0238 36.0752V35.9259C26.0238 35.6272 25.9492 35.3658 25.8372 35.1418C25.7251 34.9551 25.5758 34.8058 25.3891 34.6938C25.2024 34.5818 25.0157 34.5444 24.7917 34.5444C24.5677 34.5444 24.381 34.5818 24.1943 34.6938C24.0076 34.8058 23.8583 34.9551 23.7463 35.1418C23.6343 35.3285 23.5596 35.5899 23.5596 35.9259V36.0752C23.5596 36.4113 23.6343 36.71 23.7463 36.8967C23.8583 37.1207 24.0076 37.27 24.1943 37.3447C24.381 37.4194 24.5677 37.494 24.7917 37.494ZM27.8533 38.2034V33.7977H28.7121V34.5444C28.8241 34.3204 28.9735 34.1337 29.2348 33.947C29.4588 33.7977 29.7949 33.6857 30.1682 33.6857C30.691 33.6857 31.1017 33.835 31.363 34.1337C31.6244 34.4324 31.7737 34.8431 31.7737 35.4032V38.1661H30.8776V35.5899C30.8776 35.2165 30.803 34.9551 30.6536 34.7684C30.5043 34.5818 30.2429 34.4698 29.9069 34.4698C29.6455 34.4698 29.4588 34.5071 29.2722 34.6191C29.1228 34.7311 29.0108 34.8805 28.9361 35.0298C28.8614 35.1792 28.8241 35.3658 28.8241 35.5525V38.1288H27.8533V38.2034ZM34.4993 38.2781C34.1633 38.2781 33.9019 38.2408 33.6779 38.1661C33.4539 38.0914 33.2672 37.9794 33.0805 37.8674C32.9312 37.7554 32.8192 37.6061 32.7445 37.4194C32.6698 37.27 32.6325 37.0833 32.5951 36.8967H33.4912C33.5286 37.046 33.6406 37.1954 33.7899 37.27C33.9393 37.382 34.1633 37.4194 34.4993 37.4194C34.8727 37.4194 35.1341 37.382 35.2834 37.27C35.4327 37.158 35.5074 37.046 35.5074 36.8967C35.5074 36.7846 35.4701 36.71 35.3954 36.6353C35.3207 36.5606 35.2087 36.4859 35.0594 36.4113C34.91 36.3366 34.686 36.2993 34.3873 36.2619C34.126 36.2246 33.9019 36.1873 33.7152 36.1126C33.5286 36.0379 33.3419 35.9632 33.1925 35.8512C33.0432 35.7392 32.9312 35.6272 32.8565 35.4779C32.7818 35.3285 32.7445 35.1418 32.7445 34.9551C32.7445 34.7311 32.8192 34.5071 32.9312 34.3204C33.0805 34.1337 33.2672 33.9844 33.5286 33.8724C33.7899 33.7604 34.126 33.6857 34.5367 33.6857C34.91 33.6857 35.2461 33.7604 35.4701 33.8724C35.7314 33.9844 35.9181 34.1711 36.0301 34.3577C36.1421 34.5444 36.2168 34.7685 36.2542 35.0298H35.3581C35.3207 34.8431 35.2087 34.7311 35.0967 34.6191C34.9474 34.5071 34.7607 34.4698 34.5367 34.4698C34.2006 34.4698 33.9766 34.5071 33.8646 34.6191C33.7526 34.7311 33.6779 34.8431 33.6779 34.9551C33.6779 35.1045 33.7526 35.2165 33.9019 35.3285C34.0513 35.4405 34.3126 35.5152 34.7607 35.5525C35.022 35.5899 35.2461 35.6272 35.4701 35.7019C35.6941 35.7765 35.8435 35.8512 35.9928 35.9632C36.1422 36.0752 36.2542 36.1873 36.3662 36.3366C36.4408 36.4859 36.4782 36.6726 36.4782 36.8967C36.4782 37.158 36.4035 37.382 36.2542 37.5687C36.1048 37.7554 35.9181 37.9421 35.6194 38.0541C35.2834 38.2408 34.9474 38.2781 34.4993 38.2781Z" fill="#17171C"/>
<path fill-rule="evenodd" clip-rule="evenodd" d="M19.7518 8.8566V29.5413H15.0473L4.593 15.988V29.5413H0.149902V8.8566H4.74234L15.3087 22.5966V8.8566H19.7518Z" fill="#17171C"/>
<path fill-rule="evenodd" clip-rule="evenodd" d="M32.5206 8.52057C26.6214 8.52057 21.8423 13.2997 21.8423 19.1989C21.8423 25.0982 26.6587 29.8773 32.5206 29.8773C38.3825 29.8773 43.199 25.0982 43.199 19.1989C43.199 13.2997 38.4199 8.52057 32.5206 8.52057ZM32.5206 25.0608C29.3097 25.0608 26.6587 22.4472 26.6587 19.1989C26.6587 15.988 29.2723 13.337 32.5206 13.337C35.769 13.337 38.3825 15.9506 38.3825 19.1989C38.3825 22.4472 35.769 25.0608 32.5206 25.0608Z" fill="#17171C"/>
<path fill-rule="evenodd" clip-rule="evenodd" d="M78.2211 8.96863V20.3325C78.2211 22.6345 76.2422 24.5345 73.8153 24.5345C71.3884 24.5345 69.4096 22.6345 69.4096 20.3325V8.96863H64.2197V20.3325C64.2197 25.375 68.5135 29.5039 73.8153 29.5039C79.1172 29.5039 83.4109 25.4115 83.4109 20.3325V8.96863H78.2211Z" fill="#17171C"/>
<path d="M51.5443 23.8886L47.4743 29.5039H41.8949L49.2953 19.2173L41.8174 8.96863H47.1256L54.7876 19.3812L51.5443 23.8886Z" fill="#17171C"/>
<path d="M56.5023 17.0157L53.6738 13.182L56.7735 8.96863H62.3529L56.5023 17.0157Z" fill="#F62727"/>
<path d="M56.7735 29.5039H62.2367L56.5211 21.7367L53.8422 25.4597L56.7735 29.5039Z" fill="#F62727"/>
</g>
</g>
<defs>
<clipPath id="clip0_49_115">
<rect width="102" height="45" fill="white" transform="translate(0 0.5)"/>
</clipPath>
<clipPath id="clip1_49_115">
<rect width="83" height="30.0562" fill="white" transform="translate(0 8.22189)"/>
</clipPath>
</defs>
</svg>
