<svg width="177" height="55" viewBox="0 0 177 55" fill="none" xmlns="http://www.w3.org/2000/svg">
<path d="M2.65401 44.8643C2.27449 44.8643 1.94731 44.8218 1.67249 44.7367C1.39766 44.6517 1.16864 44.5371 0.985424 44.3932C0.808751 44.2427 0.671339 44.0726 0.573187 43.8828C0.481578 43.693 0.422687 43.4935 0.396514 43.2841H1.47618C1.52199 43.4673 1.63323 43.6211 1.8099 43.7454C1.98657 43.8632 2.26794 43.9221 2.65401 43.9221C3.08587 43.9221 3.39014 43.8632 3.56682 43.7454C3.74349 43.6276 3.83183 43.4738 3.83183 43.2841C3.83183 43.1728 3.78929 43.0681 3.70423 42.97C3.62571 42.8718 3.4883 42.7868 3.29199 42.7148C3.10223 42.6363 2.83722 42.5774 2.49696 42.5381C2.20251 42.4989 1.93423 42.4432 1.69212 42.3713C1.45001 42.2927 1.24389 42.1913 1.07376 42.067C0.903631 41.9427 0.772762 41.7922 0.681154 41.6155C0.589545 41.4323 0.543741 41.2196 0.543741 40.9775C0.543741 40.6961 0.618991 40.4409 0.76949 40.2119C0.926533 39.9829 1.1621 39.7997 1.47618 39.6623C1.79027 39.5183 2.18288 39.4463 2.65401 39.4463C3.11205 39.4463 3.48502 39.5216 3.77294 39.6721C4.06739 39.816 4.28987 40.0091 4.44037 40.2512C4.59087 40.4867 4.68248 40.7452 4.71519 41.0266H3.63552C3.58318 40.8237 3.47521 40.6667 3.31162 40.5554C3.15458 40.4442 2.93537 40.3886 2.65401 40.3886C2.26794 40.3886 1.99966 40.4475 1.84916 40.5653C1.69866 40.683 1.62341 40.8205 1.62341 40.9775C1.62341 41.1476 1.7052 41.2949 1.86879 41.4192C2.03892 41.537 2.37264 41.622 2.86994 41.6744C3.17748 41.7136 3.45558 41.7725 3.70423 41.8511C3.95288 41.9296 4.16554 42.0343 4.34222 42.1651C4.52543 42.2895 4.66612 42.4432 4.76427 42.6265C4.86242 42.8097 4.9115 43.0289 4.9115 43.2841C4.9115 43.5785 4.82643 43.8468 4.6563 44.0889C4.49272 44.3245 4.24407 44.5142 3.91035 44.6582C3.57663 44.7956 3.15785 44.8643 2.65401 44.8643ZM8.24904 44.8643C7.77137 44.8643 7.3395 44.7662 6.95344 44.5699C6.56737 44.367 6.25983 44.0693 6.03081 43.6767C5.80833 43.2775 5.6971 42.7868 5.6971 42.2044V42.0081C5.6971 41.4584 5.80833 40.9939 6.03081 40.6143C6.25983 40.2283 6.56737 39.9371 6.95344 39.7408C7.3395 39.5445 7.77137 39.4463 8.24904 39.4463C8.73326 39.4463 9.16513 39.5445 9.54465 39.7408C9.93071 39.9371 10.235 40.2283 10.4575 40.6143C10.6865 40.9939 10.801 41.4584 10.801 42.0081V42.2044C10.801 42.7868 10.6865 43.2775 10.4575 43.6767C10.235 44.0693 9.93071 44.367 9.54465 44.5699C9.16513 44.7662 8.73326 44.8643 8.24904 44.8643ZM8.24904 43.9221C8.49769 43.9221 8.73326 43.8632 8.95574 43.7454C9.17821 43.6276 9.35816 43.4444 9.49557 43.1957C9.63298 42.9405 9.70169 42.6101 9.70169 42.2044V42.0081C9.70169 41.6351 9.63298 41.3308 9.49557 41.0953C9.35816 40.8532 9.17821 40.6765 8.95574 40.5653C8.73326 40.4475 8.49769 40.3886 8.24904 40.3886C8.00039 40.3886 7.76483 40.4475 7.54235 40.5653C7.31987 40.6765 7.13993 40.8532 7.00251 41.0953C6.8651 41.3308 6.7964 41.6351 6.7964 42.0081V42.2044C6.7964 42.6101 6.8651 42.9405 7.00251 43.1957C7.13993 43.4444 7.31987 43.6276 7.54235 43.7454C7.76483 43.8632 8.00039 43.9221 8.24904 43.9221ZM13.5454 44.8054C13.1724 44.8054 12.8649 44.7531 12.6228 44.6484C12.3872 44.5371 12.2105 44.3572 12.0928 44.1085C11.9815 43.8534 11.9259 43.5164 11.9259 43.0976V37.8857H13.0056V43.0191C13.0056 43.3397 13.0579 43.5622 13.1626 43.6865C13.2673 43.8043 13.4603 43.8632 13.7417 43.8632C13.8137 43.8632 13.8759 43.8632 13.9282 43.8632C13.9805 43.8566 14.0329 43.8501 14.0852 43.8435V44.776C14.0525 44.7825 14.0002 44.7891 13.9282 44.7956C13.8628 44.8022 13.7941 44.8054 13.7221 44.8054C13.6566 44.8054 13.5978 44.8054 13.5454 44.8054ZM16.8845 44.8643C16.2694 44.8643 15.8048 44.6876 15.4907 44.3343C15.1766 43.9744 15.0196 43.428 15.0196 42.6952V39.5543H16.0993V42.597C16.0993 43.0354 16.1876 43.3659 16.3643 43.5883C16.5475 43.8108 16.8354 43.9221 17.228 43.9221C17.5159 43.9221 17.7482 43.8599 17.9249 43.7356C18.1081 43.6112 18.2423 43.4477 18.3273 43.2448C18.4124 43.042 18.4549 42.826 18.4549 42.597V39.5543H19.5346V44.7563H18.5334V43.873C18.4091 44.1413 18.2063 44.3736 17.9249 44.5699C17.6501 44.7662 17.3033 44.8643 16.8845 44.8643ZM22.9181 44.8054C22.5255 44.8054 22.2049 44.7498 21.9563 44.6386C21.7141 44.5273 21.5342 44.3539 21.4164 44.1184C21.3052 43.8763 21.2496 43.5654 21.2496 43.1859V40.4769H20.5134V39.5543H21.2496V38.3765H22.3292V39.5543H23.6543V40.4769H22.3292V43.0387C22.3292 43.3462 22.3848 43.5622 22.4961 43.6865C22.6139 43.8043 22.8363 43.8632 23.1635 43.8632C23.3598 43.8632 23.5561 43.8534 23.7524 43.8337V44.7563C23.6281 44.7694 23.5005 44.7792 23.3696 44.7858C23.2388 44.7989 23.0883 44.8054 22.9181 44.8054ZM24.9341 44.7563V39.5543H26.0138V44.7563H24.9341ZM25.4739 38.9654C25.2711 38.9654 25.1042 38.9032 24.9733 38.7789C24.849 38.648 24.7869 38.4812 24.7869 38.2783C24.7869 38.0755 24.849 37.9119 24.9733 37.7876C25.1042 37.6567 25.2711 37.5913 25.4739 37.5913C25.6768 37.5913 25.8404 37.6567 25.9647 37.7876C26.0955 37.9119 26.161 38.0755 26.161 38.2783C26.161 38.4812 26.0955 38.648 25.9647 38.7789C25.8404 38.9032 25.6768 38.9654 25.4739 38.9654ZM29.7389 44.8643C29.2613 44.8643 28.8294 44.7662 28.4433 44.5699C28.0573 44.367 27.7497 44.0693 27.5207 43.6767C27.2982 43.2775 27.187 42.7868 27.187 42.2044V42.0081C27.187 41.4584 27.2982 40.9939 27.5207 40.6143C27.7497 40.2283 28.0573 39.9371 28.4433 39.7408C28.8294 39.5445 29.2613 39.4463 29.7389 39.4463C30.2231 39.4463 30.655 39.5445 31.0345 39.7408C31.4206 39.9371 31.7249 40.2283 31.9473 40.6143C32.1764 40.9939 32.2909 41.4584 32.2909 42.0081V42.2044C32.2909 42.7868 32.1764 43.2775 31.9473 43.6767C31.7249 44.0693 31.4206 44.367 31.0345 44.5699C30.655 44.7662 30.2231 44.8643 29.7389 44.8643ZM29.7389 43.9221C29.9876 43.9221 30.2231 43.8632 30.4456 43.7454C30.6681 43.6276 30.848 43.4444 30.9855 43.1957C31.1229 42.9405 31.1916 42.6101 31.1916 42.2044V42.0081C31.1916 41.6351 31.1229 41.3308 30.9855 41.0953C30.848 40.8532 30.6681 40.6765 30.4456 40.5653C30.2231 40.4475 29.9876 40.3886 29.7389 40.3886C29.4903 40.3886 29.2547 40.4475 29.0322 40.5653C28.8098 40.6765 28.6298 40.8532 28.4924 41.0953C28.355 41.3308 28.2863 41.6351 28.2863 42.0081V42.2044C28.2863 42.6101 28.355 42.9405 28.4924 43.1957C28.6298 43.4444 28.8098 43.6276 29.0322 43.7454C29.2547 43.8632 29.4903 43.9221 29.7389 43.9221ZM33.3667 44.7563V39.5543H34.3679V40.4279C34.4922 40.1661 34.695 39.9371 34.9764 39.7408C35.2578 39.5445 35.6209 39.4463 36.0659 39.4463C36.7006 39.4463 37.1783 39.6197 37.4989 39.9665C37.8195 40.3068 37.9798 40.8074 37.9798 41.4683V44.7563H36.9002V41.7136C36.9002 41.2752 36.8086 40.9448 36.6253 40.7223C36.4421 40.4998 36.1411 40.3886 35.7223 40.3886C35.4213 40.3886 35.176 40.454 34.9862 40.5849C34.803 40.7092 34.6656 40.8728 34.574 41.0757C34.4889 41.272 34.4464 41.4846 34.4464 41.7136V44.7563H33.3667ZM41.2725 44.8643C40.893 44.8643 40.5658 44.8218 40.291 44.7367C40.0162 44.6517 39.7872 44.5371 39.6039 44.3932C39.4273 44.2427 39.2899 44.0726 39.1917 43.8828C39.1001 43.693 39.0412 43.4935 39.015 43.2841H40.0947C40.1405 43.4673 40.2517 43.6211 40.4284 43.7454C40.6051 43.8632 40.8865 43.9221 41.2725 43.9221C41.7044 43.9221 42.0087 43.8632 42.1853 43.7454C42.362 43.6276 42.4503 43.4738 42.4503 43.2841C42.4503 43.1728 42.4078 43.0681 42.3228 42.97C42.2442 42.8718 42.1068 42.7868 41.9105 42.7148C41.7208 42.6363 41.4557 42.5774 41.1155 42.5381C40.821 42.4989 40.5527 42.4432 40.3106 42.3713C40.0685 42.2927 39.8624 42.1913 39.6923 42.067C39.5222 41.9427 39.3913 41.7922 39.2997 41.6155C39.2081 41.4323 39.1623 41.2196 39.1623 40.9775C39.1623 40.6961 39.2375 40.4409 39.388 40.2119C39.5451 39.9829 39.7806 39.7997 40.0947 39.6623C40.4088 39.5183 40.8014 39.4463 41.2725 39.4463C41.7306 39.4463 42.1035 39.5216 42.3915 39.6721C42.6859 39.816 42.9084 40.0091 43.0589 40.2512C43.2094 40.4867 43.301 40.7452 43.3337 41.0266H42.254C42.2017 40.8237 42.0937 40.6667 41.9301 40.5554C41.7731 40.4442 41.5539 40.3886 41.2725 40.3886C40.8865 40.3886 40.6182 40.4475 40.4677 40.5653C40.3172 40.683 40.2419 40.8205 40.2419 40.9775C40.2419 41.1476 40.3237 41.2949 40.4873 41.4192C40.6574 41.537 40.9912 41.622 41.4885 41.6744C41.796 41.7136 42.0741 41.7725 42.3228 41.8511C42.5714 41.9296 42.7841 42.0343 42.9607 42.1651C43.144 42.2895 43.2846 42.4432 43.3828 42.6265C43.4809 42.8097 43.53 43.0289 43.53 43.2841C43.53 43.5785 43.445 43.8468 43.2748 44.0889C43.1112 44.3245 42.8626 44.5142 42.5289 44.6582C42.1952 44.7956 41.7764 44.8643 41.2725 44.8643Z" fill="white"/>
<g clip-path="url(#clip0_228_2412)">
<path fill-rule="evenodd" clip-rule="evenodd" d="M59.7468 29.2793C63.3301 29.2793 66.235 26.3745 66.235 22.7912C66.235 19.2078 63.3301 16.303 59.7468 16.303C56.1635 16.303 53.2586 19.2078 53.2586 22.7912C53.2586 26.3745 56.1635 29.2793 59.7468 29.2793ZM72.8277 22.7912C72.8277 30.0155 66.9712 35.8721 59.7468 35.8721C52.5224 35.8721 46.6659 30.0155 46.6659 22.7912C46.6659 15.5668 52.5224 9.71026 59.7468 9.71026C66.9712 9.71026 72.8277 15.5668 72.8277 22.7912ZM98.3135 35.4194L91.7207 35.4194L91.7207 35.1534L80.7906 20.9701L80.7906 35.4194L74.1978 35.4194L74.1978 10.0891L80.7906 10.0891L80.7906 10.1697L91.7207 24.3529L91.7207 10.0891L98.3135 10.0891L98.3135 35.4194ZM23.1189 35.4194L31.21 35.4194L36.1754 28.4404L41.1409 35.4194L49.232 35.4194L40.221 22.7543L49.2304 10.0914L41.1393 10.0914L36.1754 17.0683L31.2115 10.0914L23.1204 10.0914L32.1299 22.7543L23.1189 35.4194Z" fill="white"/>
<path fill-rule="evenodd" clip-rule="evenodd" d="M73.3046 26.192C71.7859 32.2663 66.2919 36.7656 59.747 36.7656C52.0292 36.7656 45.7727 30.5091 45.7727 22.7913C45.7727 15.0735 52.0292 8.81701 59.747 8.81702C66.2919 8.81702 71.7859 13.3164 73.3046 19.3907L73.3046 9.19584L81.6841 9.19585L81.6841 9.86551L90.8275 21.7302L90.8275 9.19585L99.207 9.19585L99.207 36.313L90.8275 36.313L90.8275 35.4578L81.6841 23.5932L81.6841 36.313L73.3046 36.313L73.3046 26.192ZM92.3654 34.5262L97.4202 34.5262L97.4202 10.9826L92.6143 10.9826L92.6143 26.976L80.2892 10.9826L75.0914 10.9826L75.0914 34.5262L79.8973 34.5262L79.8973 18.3474L92.3654 34.5262ZM59.747 34.9788C66.4779 34.9788 71.9345 29.5223 71.9345 22.7913C71.9345 16.0603 66.4779 10.6038 59.747 10.6038C53.016 10.6038 47.5595 16.0603 47.5595 22.7913C47.5595 29.5223 53.016 34.9788 59.747 34.9788ZM50.9642 36.313L40.6802 36.313L36.1756 29.9817L31.6709 36.313L21.3869 36.313L31.0336 22.7545L21.3884 9.19812L31.6724 9.19813L36.1756 15.5273L40.6787 9.19813L50.9627 9.19813L41.3176 22.7545L50.9642 36.313ZM47.5 34.5262L39.1247 22.7545L47.4985 10.9849L41.6003 10.9849L36.1756 18.6095L30.7508 10.9849L24.8526 10.9849L33.2265 22.7545L24.8511 34.5262L30.7493 34.5262L36.1756 26.8995L41.6018 34.5262L47.5 34.5262ZM59.747 28.3861C62.8369 28.3861 65.3418 25.8812 65.3418 22.7913C65.3418 19.7014 62.8369 17.1965 59.747 17.1965C56.6571 17.1965 54.1522 19.7014 54.1522 22.7913C54.1522 25.8812 56.6571 28.3861 59.747 28.3861ZM67.1286 22.7913C67.1286 26.8681 63.8237 30.1729 59.747 30.1729C55.6702 30.1729 52.3654 26.8681 52.3654 22.7913C52.3654 18.7146 55.6702 15.4097 59.747 15.4097C63.8237 15.4097 67.1286 18.7146 67.1286 22.7913Z" fill="#111119"/>
<path fill-rule="evenodd" clip-rule="evenodd" d="M0.0833914 10.5925L6.43338 10.5925L6.43338 10.8486L16.962 24.5108L16.962 10.5925L23.312 10.5925L23.312 34.9902L16.962 34.9902L16.962 34.9136L6.43339 21.2514L6.43339 34.9902L0.0833912 34.9902L0.0833914 10.5925Z" fill="white"/>
<path fill-rule="evenodd" clip-rule="evenodd" d="M6.43338 10.8486L6.43338 10.5925L0.0833914 10.5925L0.0833912 34.9902L6.43339 34.9902L6.43339 21.2514L16.962 34.9136L16.962 34.9902L23.312 34.9902L23.312 10.5925L16.962 10.5925L16.962 24.5108L6.43338 10.8486ZM17.6598 11.2903L17.6598 26.5593L5.89285 11.2903L0.781132 11.2903L0.781132 34.2925L5.73565 34.2925L5.73564 19.203L17.3642 34.2925L22.6143 34.2925L22.6143 11.2903L17.6598 11.2903Z" fill="#111119"/>
</g>
<g clip-path="url(#clip1_228_2412)">
<path fill-rule="evenodd" clip-rule="evenodd" d="M44.0822 22.7306C44.0822 26.3139 41.1773 29.2188 37.594 29.2188C34.0107 29.2188 31.1058 26.3139 31.1058 22.7306C31.1058 19.1473 34.0107 16.2424 37.594 16.2424C41.1773 16.2424 44.0822 19.1473 44.0822 22.7306ZM37.594 35.8115C44.8184 35.8115 50.6749 29.955 50.6749 22.7306C50.6749 15.5062 44.8184 9.64972 37.594 9.64972C30.3696 9.64972 24.5131 15.5062 24.5131 22.7306C24.5131 29.955 30.3696 35.8115 37.594 35.8115ZM69.5664 35.3589L76.1592 35.3589L76.1592 10.0285L69.5664 10.0285L69.5664 24.2914L58.6363 10.1081L58.6363 10.0285L52.0435 10.0285L52.0435 35.3589L58.6363 35.3589L58.6363 20.9086L69.5664 35.0919L69.5664 35.3589ZM9.05716 35.3589L0.966049 35.3589L9.97705 22.6938L0.96757 10.0308L9.05867 10.0308L14.0226 17.0077L18.9865 10.0308L27.0776 10.0308L18.0682 22.6938L27.0792 35.3589L18.9881 35.3589L14.0226 28.3799L9.05716 35.3589ZM-5.75926 21.0329L-5.75926 35.3589L0.833458 35.3589L0.833459 21.0329C0.83346 14.6362 -4.35215 9.45057 -10.7489 9.45057C-17.1457 9.45056 -22.3313 14.6362 -22.3313 21.0329L-22.3313 35.3589L-15.7386 35.3589L-15.7386 21.0329C-15.7386 18.2772 -13.5046 16.0433 -10.7489 16.0433C-7.9932 16.0433 -5.75926 18.2772 -5.75926 21.0329Z" fill="white"/>
<path fill-rule="evenodd" clip-rule="evenodd" d="M37.5937 34.9183C44.3246 34.9183 49.7812 29.4617 49.7812 22.7308C49.7812 15.9998 44.3246 10.5433 37.5937 10.5433C30.8627 10.5433 25.4062 15.9998 25.4062 22.7308C25.4062 29.4617 30.8627 34.9183 37.5937 34.9183ZM51.1498 26.1374C49.629 32.2087 44.1364 36.7051 37.5937 36.7051C29.8759 36.7051 23.6194 30.4486 23.6194 22.7308C23.6194 15.013 29.8759 8.75647 37.5937 8.75647C44.1364 8.75647 49.629 13.2529 51.1498 19.3242L51.1498 9.1353L59.5293 9.1353L59.5293 9.804L68.6727 21.6686L68.6727 9.1353L77.0522 9.1353L77.0522 36.2525L68.6727 36.2525L68.6727 35.3963L59.5293 23.5317L59.5293 36.2525L51.1498 36.2525L51.1498 26.1374ZM70.2113 34.4657L75.2654 34.4657L75.2654 10.9221L70.4595 10.9221L70.4595 26.9144L58.1352 10.9221L52.9366 10.9221L52.9366 34.4657L57.7425 34.4657L57.7425 18.2859L70.2113 34.4657ZM-6.65301 36.2525L-6.65301 21.0331C-6.65301 18.7708 -8.48695 16.9368 -10.7493 16.9368C-13.0115 16.9368 -14.8455 18.7708 -14.8455 21.0331L-14.8455 36.2525L-23.225 36.2525L-23.225 21.0331C-23.225 14.1429 -17.6394 8.55732 -10.7493 8.55732C-3.85907 8.55732 1.72652 14.1429 1.72652 21.0331L1.72652 32.7486L8.88027 22.694L-0.76486 9.13758L9.51914 9.13758L14.0223 15.4668L18.5254 9.13758L28.8094 9.13758L19.1643 22.694L28.8109 36.2525L18.5269 36.2525L14.0223 29.9211L9.51763 36.2525L-6.65301 36.2525ZM2.69779 34.4657L8.59601 34.4657L14.0223 26.839L19.4485 34.4657L25.3467 34.4657L16.9714 22.694L25.3452 10.9244L19.447 10.9244L14.0223 18.5489L8.59752 10.9244L2.69931 10.9244L11.0732 22.694L2.69779 34.4657ZM-0.0602873 34.4657L-0.0602861 21.0331C-0.0602856 15.1297 -4.8459 10.3441 -10.7493 10.3441C-16.6526 10.3441 -21.4382 15.1297 -21.4382 21.0331L-21.4382 34.4657L-16.6323 34.4657L-16.6323 21.0331C-16.6323 17.784 -13.9984 15.15 -10.7493 15.15C-7.50014 15.15 -4.8662 17.784 -4.8662 21.0331L-4.8662 34.4657L-0.0602873 34.4657ZM44.9753 22.7308C44.9753 26.8075 41.6704 30.1124 37.5937 30.1124C33.5169 30.1124 30.2121 26.8075 30.2121 22.7308C30.2121 18.654 33.5169 15.3492 37.5937 15.3492C41.6704 15.3492 44.9753 18.654 44.9753 22.7308ZM37.5937 28.3256C40.6836 28.3256 43.1885 25.8207 43.1885 22.7308C43.1885 19.6409 40.6836 17.136 37.5937 17.136C34.5038 17.136 31.9989 19.6409 31.9989 22.7308C31.9989 25.8207 34.5038 28.3256 37.5937 28.3256Z" fill="#111119"/>
</g>
<g clip-path="url(#clip2_228_2412)">
<path fill-rule="evenodd" clip-rule="evenodd" d="M30.715 22.6859C30.715 19.1026 33.6198 16.1977 37.2032 16.1977C40.7865 16.1977 43.6913 19.1026 43.6913 22.6859C43.6913 26.2692 40.7865 29.1741 37.2032 29.1741C33.6198 29.1741 30.715 26.2692 30.715 22.6859ZM37.2032 9.60498C29.9788 9.60498 24.1222 15.4615 24.1222 22.6859C24.1222 29.9103 29.9788 35.7668 37.2032 35.7668C44.4275 35.7668 50.2841 29.9103 50.2841 22.6859C50.2841 15.4615 44.4275 9.60498 37.2032 9.60498ZM5.22848 10.0578H-1.36426V35.3881H5.22848V21.1243L16.159 35.3081V35.3881H22.7517V10.0578H16.159V24.5076L5.22848 10.3239V10.0578ZM65.7393 10.0578H73.8304L64.8194 22.7229L73.8288 35.3859H65.7377L60.7738 28.409L55.8099 35.3859H47.7188L56.7283 22.7229L47.7173 10.0578H55.8084L60.7738 17.0368L65.7393 10.0578ZM80.5561 24.3838V10.0578H73.9633V24.3838C73.9633 30.7805 79.1489 35.9661 85.5457 35.9661C91.9425 35.9661 97.1281 30.7805 97.1281 24.3837V10.0578H90.5354V24.3837C90.5354 27.1395 88.3014 29.3734 85.5457 29.3734C82.79 29.3734 80.5561 27.1395 80.5561 24.3838Z" fill="white"/>
<path fill-rule="evenodd" clip-rule="evenodd" d="M37.2035 10.4982C30.4725 10.4982 25.016 15.9548 25.016 22.6857C25.016 29.4167 30.4725 34.8732 37.2035 34.8732C43.9345 34.8732 49.391 29.4167 49.391 22.6857C49.391 15.9548 43.9345 10.4982 37.2035 10.4982ZM23.6455 19.2866C25.1637 13.2115 30.6581 8.71143 37.2035 8.71143C44.9213 8.71143 51.1778 14.9679 51.1778 22.6857C51.1778 30.4035 44.9213 36.66 37.2035 36.66C30.6581 36.66 25.1637 32.1599 23.6455 26.0849V36.2814H15.2659V35.6122L6.12221 23.7471V36.2814H-2.25732V9.16423H6.12221V10.0194L15.2659 21.8845V9.16423H23.6455V19.2866ZM4.58434 10.951L17.0527 27.1303V10.951H21.8587V34.4946H16.6605L4.33541 18.5013V34.4946H-0.470522V10.951H4.58434ZM45.9855 9.16423H56.2695L60.7741 15.4956L65.2788 9.16423H81.4498V24.3836C81.4498 26.6459 83.2837 28.4798 85.546 28.4798C87.8083 28.4798 89.6423 26.6459 89.6423 24.3836V9.16423H98.0218V24.3836C98.0218 31.2738 92.4362 36.8594 85.546 36.8594C78.6559 36.8594 73.0703 31.2738 73.0703 24.3836V12.6675L65.9161 22.7227L75.5613 36.2791H65.2773L60.7741 29.9499L56.271 36.2791H45.987L55.6321 22.7227L45.9855 9.16423ZM72.0986 10.951H66.2004L60.7741 18.5777L55.3479 10.951H49.4497L57.825 22.7227L49.4512 34.4923H55.3494L60.7741 26.8677L66.1989 34.4923H72.0971L63.7233 22.7227L72.0986 10.951ZM74.8571 10.951V24.3836C74.8571 30.287 79.6427 35.0726 85.546 35.0726C91.4494 35.0726 96.235 30.2869 96.235 24.3836V10.951H91.4291V24.3836C91.4291 27.6327 88.7952 30.2666 85.546 30.2666C82.2969 30.2666 79.663 27.6327 79.663 24.3836V10.951H74.8571ZM29.8219 22.6857C29.8219 18.609 33.1268 15.3041 37.2035 15.3041C41.2802 15.3041 44.5851 18.609 44.5851 22.6857C44.5851 26.7625 41.2802 30.0673 37.2035 30.0673C33.1268 30.0673 29.8219 26.7625 29.8219 22.6857ZM37.2035 17.0909C34.1136 17.0909 31.6087 19.5958 31.6087 22.6857C31.6087 25.7756 34.1136 28.2805 37.2035 28.2805C40.2934 28.2805 42.7983 25.7756 42.7983 22.6857C42.7983 19.5958 40.2934 17.0909 37.2035 17.0909Z" fill="#111119"/>
</g>
<g clip-path="url(#clip3_228_2412)">
<path fill-rule="evenodd" clip-rule="evenodd" d="M62.7497 15.6351L65.9561 20.0935L72.6191 10.7285L66.2407 10.7285L62.7497 15.6351ZM72.4859 34.6611L66.2422 34.6611L60.9168 27.1763L55.5915 34.6611L49.213 34.6611L57.7276 22.6938L49.2146 10.7285L55.2738 10.7285L72.4859 34.6611Z" fill="#F62727"/>
</g>
<defs>
<clipPath id="clip0_228_2412">
<rect width="23.2284" height="26.2064" fill="white" transform="translate(23.3125 35.8115) rotate(-180)"/>
</clipPath>
<clipPath id="clip1_228_2412">
<rect x="51.9009" y="35.8115" width="28.5888" height="26.2064" rx="13.1032" transform="rotate(-180 51.9009 35.8115)" fill="white"/>
</clipPath>
<clipPath id="clip2_228_2412">
<rect width="23.2284" height="26.2064" fill="white" transform="translate(73.6387 9.66553)"/>
</clipPath>
<clipPath id="clip3_228_2412">
<rect width="28.5888" height="26.2064" fill="white" transform="translate(74.48 35.8115) rotate(-180)"/>
</clipPath>
</defs>
</svg>
