<svg width="80" height="88" viewBox="0 0 80 88" fill="none" xmlns="http://www.w3.org/2000/svg">
<rect width="80" height="88" rx="12" fill="#F5F6F9"/>
<g clip-path="url(#clip0_190_863)">
<g clip-path="url(#clip1_190_863)">
<path d="M47.7219 27.2102C45.7037 18.2049 41.4973 15.8076 40.4243 14.1129C39.9818 13.3664 39.5898 12.5904 39.2511 11.7903C39.1944 12.5903 39.0902 13.0943 38.4179 13.7009C37.0681 14.9183 31.3352 19.6436 30.8527 29.8755C30.4032 39.4155 37.7865 45.2981 38.762 45.9061C39.5121 46.2794 40.4256 45.9141 40.8711 45.5714C44.4303 43.1008 49.2932 36.5142 47.7259 27.2102" fill="#B8B7BF"/>
<path d="M39.5566 40.8267C39.3707 43.188 39.2375 44.56 38.7656 45.9093C38.7656 45.9093 39.0754 48.1573 39.2929 50.5386H40.0627C40.2464 48.8617 40.5268 47.1971 40.9025 45.5533C39.9059 45.0573 39.5948 42.8986 39.5566 40.8267Z" fill="#6F6E7E"/>
<path d="M40.9012 45.5541C39.8941 45.0834 39.6028 42.8794 39.558 40.8261C39.807 37.439 39.8797 34.041 39.7755 30.6462C39.7228 28.8648 39.8005 14.1476 39.3418 11.9929C39.6556 12.7227 40.0172 13.4305 40.4241 14.1116C41.4971 15.8076 45.7048 18.2049 47.7217 27.2102C49.293 36.4981 44.4565 43.0674 40.9012 45.5541Z" fill="#93929D"/>
</g>
</g>
<path d="M13.2 73V64.6H14.376L17.184 69.94L19.992 64.6H21.12V73H19.992V66.64L17.58 71.2H16.74L14.328 66.64V73H13.2ZM25.9242 73.12C25.3882 73.12 24.8842 73.004 24.4122 72.772C23.9482 72.532 23.5722 72.172 23.2842 71.692C23.0042 71.212 22.8642 70.608 22.8642 69.88V69.64C22.8642 68.952 23.0042 68.376 23.2842 67.912C23.5722 67.448 23.9482 67.1 24.4122 66.868C24.8842 66.636 25.3882 66.52 25.9242 66.52C26.4682 66.52 26.9722 66.636 27.4362 66.868C27.9002 67.1 28.2722 67.448 28.5522 67.912C28.8402 68.376 28.9842 68.952 28.9842 69.64V69.88C28.9842 70.608 28.8402 71.212 28.5522 71.692C28.2722 72.172 27.9002 72.532 27.4362 72.772C26.9722 73.004 26.4682 73.12 25.9242 73.12ZM25.9242 72.16C26.2522 72.16 26.5642 72.088 26.8602 71.944C27.1642 71.792 27.4122 71.548 27.6042 71.212C27.8042 70.876 27.9042 70.432 27.9042 69.88V69.64C27.9042 69.128 27.8042 68.716 27.6042 68.404C27.4122 68.084 27.1642 67.852 26.8602 67.708C26.5642 67.556 26.2522 67.48 25.9242 67.48C25.6042 67.48 25.2922 67.556 24.9882 67.708C24.6842 67.852 24.4322 68.084 24.2322 68.404C24.0402 68.716 23.9442 69.128 23.9442 69.64V69.88C23.9442 70.432 24.0402 70.876 24.2322 71.212C24.4322 71.548 24.6842 71.792 24.9882 71.944C25.2922 72.088 25.6042 72.16 25.9242 72.16ZM30.4795 73V66.64H31.4635V67.84C31.6075 67.488 31.8595 67.18 32.2195 66.916C32.5875 66.652 33.0595 66.52 33.6355 66.52C34.4355 66.52 35.0275 66.736 35.4115 67.168C35.8035 67.592 35.9995 68.216 35.9995 69.04V73H34.9435V69.28C34.9435 68.688 34.8195 68.24 34.5715 67.936C34.3235 67.632 33.9075 67.48 33.3235 67.48C32.9075 67.48 32.5675 67.568 32.3035 67.744C32.0395 67.92 31.8435 68.144 31.7155 68.416C31.5955 68.688 31.5355 68.976 31.5355 69.28V73H30.4795ZM40.3823 75.52C39.7663 75.52 39.2663 75.44 38.8823 75.28C38.4983 75.12 38.2143 74.904 38.0303 74.632C37.8463 74.36 37.7303 74.056 37.6823 73.72H38.7863C38.8663 73.976 39.0183 74.18 39.2423 74.332C39.4663 74.484 39.8463 74.56 40.3823 74.56C41.0303 74.56 41.5063 74.404 41.8103 74.092C42.1143 73.78 42.2663 73.336 42.2663 72.76V71.74C42.0823 72.164 41.7983 72.48 41.4143 72.688C41.0383 72.896 40.5943 73 40.0823 73C39.5623 73 39.1023 72.88 38.7023 72.64C38.3023 72.4 37.9903 72.044 37.7663 71.572C37.5503 71.1 37.4423 70.516 37.4423 69.82V69.58C37.4423 68.924 37.5543 68.372 37.7783 67.924C38.0103 67.468 38.3223 67.12 38.7143 66.88C39.1143 66.64 39.5703 66.52 40.0823 66.52C40.6263 66.52 41.0983 66.644 41.4983 66.892C41.8983 67.132 42.1783 67.448 42.3383 67.84V66.64H43.3223V72.76C43.3223 73.624 43.0703 74.3 42.5663 74.788C42.0623 75.276 41.3343 75.52 40.3823 75.52ZM40.3223 72.064C40.7063 72.064 41.0423 71.984 41.3303 71.824C41.6263 71.664 41.8543 71.444 42.0143 71.164C42.1823 70.876 42.2663 70.548 42.2663 70.18V69.22C42.2663 68.892 42.1823 68.596 42.0143 68.332C41.8543 68.068 41.6263 67.856 41.3303 67.696C41.0423 67.536 40.7063 67.456 40.3223 67.456C39.8103 67.456 39.3783 67.644 39.0263 68.02C38.6743 68.396 38.4983 68.916 38.4983 69.58V69.82C38.4983 70.548 38.6743 71.104 39.0263 71.488C39.3783 71.872 39.8103 72.064 40.3223 72.064ZM47.8852 73.12C47.3492 73.12 46.8452 73.004 46.3732 72.772C45.9092 72.532 45.5332 72.172 45.2452 71.692C44.9652 71.212 44.8252 70.608 44.8252 69.88V69.64C44.8252 68.952 44.9652 68.376 45.2452 67.912C45.5332 67.448 45.9092 67.1 46.3732 66.868C46.8452 66.636 47.3492 66.52 47.8852 66.52C48.4292 66.52 48.9332 66.636 49.3972 66.868C49.8612 67.1 50.2332 67.448 50.5132 67.912C50.8012 68.376 50.9452 68.952 50.9452 69.64V69.88C50.9452 70.608 50.8012 71.212 50.5132 71.692C50.2332 72.172 49.8612 72.532 49.3972 72.772C48.9332 73.004 48.4292 73.12 47.8852 73.12ZM47.8852 72.16C48.2132 72.16 48.5252 72.088 48.8212 71.944C49.1252 71.792 49.3732 71.548 49.5652 71.212C49.7652 70.876 49.8652 70.432 49.8652 69.88V69.64C49.8652 69.128 49.7652 68.716 49.5652 68.404C49.3732 68.084 49.1252 67.852 48.8212 67.708C48.5252 67.556 48.2132 67.48 47.8852 67.48C47.5652 67.48 47.2532 67.556 46.9492 67.708C46.6452 67.852 46.3932 68.084 46.1932 68.404C46.0012 68.716 45.9052 69.128 45.9052 69.64V69.88C45.9052 70.432 46.0012 70.876 46.1932 71.212C46.3932 71.548 46.6452 71.792 46.9492 71.944C47.2532 72.088 47.5652 72.16 47.8852 72.16ZM52.6805 73V64.6H55.1405C55.9805 64.6 56.7005 64.752 57.3005 65.056C57.9005 65.36 58.3605 65.812 58.6805 66.412C59.0005 67.004 59.1605 67.74 59.1605 68.62V68.86C59.1605 69.756 58.9965 70.512 58.6685 71.128C58.3405 71.744 57.8645 72.212 57.2405 72.532C56.6245 72.844 55.8845 73 55.0205 73H52.6805ZM53.8085 72.016H54.9005C55.5325 72.016 56.0765 71.908 56.5325 71.692C56.9885 71.476 57.3405 71.136 57.5885 70.672C57.8365 70.208 57.9605 69.604 57.9605 68.86V68.62C57.9605 67.9 57.8405 67.32 57.6005 66.88C57.3605 66.432 57.0205 66.104 56.5805 65.896C56.1405 65.688 55.6205 65.584 55.0205 65.584H53.8085V72.016ZM61.0828 73V64.6H64.0828C65.0828 64.6 65.8108 64.812 66.2668 65.236C66.7308 65.652 66.9628 66.188 66.9628 66.844C66.9628 67.276 66.8428 67.648 66.6028 67.96C66.3628 68.264 66.0668 68.484 65.7148 68.62C66.2108 68.732 66.6028 68.96 66.8908 69.304C67.1788 69.64 67.3228 70.08 67.3228 70.624C67.3228 71.08 67.2228 71.488 67.0228 71.848C66.8228 72.2 66.5028 72.48 66.0628 72.688C65.6228 72.896 65.0428 73 64.3228 73H61.0828ZM62.2108 72.016H64.3228C65.0428 72.016 65.5348 71.888 65.7988 71.632C66.0628 71.368 66.1948 71.02 66.1948 70.588C66.1948 70.148 66.0628 69.8 65.7988 69.544C65.5348 69.28 65.0388 69.148 64.3108 69.148H62.2108V72.016ZM62.2108 68.212H64.0828C64.7548 68.212 65.2148 68.088 65.4628 67.84C65.7108 67.592 65.8348 67.276 65.8348 66.892C65.8348 66.5 65.7108 66.184 65.4628 65.944C65.2148 65.704 64.7548 65.584 64.0828 65.584H62.2108V68.212Z" fill="#17171C"/>
<defs>
<clipPath id="clip0_190_863">
<rect width="40" height="40" fill="white" transform="translate(20 12)"/>
</clipPath>
<clipPath id="clip1_190_863">
<rect width="23.3332" height="39.9998" fill="white" transform="translate(28.333 11.167)"/>
</clipPath>
</defs>
</svg>
