<svg width="68" height="88" viewBox="0 0 68 88" fill="none" xmlns="http://www.w3.org/2000/svg">
<rect width="68" height="88" rx="12" fill="#F5F6F9"/>
<g clip-path="url(#clip0_190_800)">
<path d="M34.0235 48.373C33.8931 48.373 33.7637 48.3386 33.6494 48.2723L32.4585 47.5619C32.2806 47.4617 32.3674 47.4263 32.4261 47.4059C32.6632 47.3222 32.7114 47.3033 32.9645 47.1585C32.9911 47.1432 33.0259 47.1486 33.0532 47.1648L33.968 47.7117C34.0011 47.7297 34.048 47.7297 34.0786 47.7117L37.6458 45.6373C37.6788 45.6184 37.7003 45.5797 37.7003 45.5401V41.393C37.7003 41.3517 37.6788 41.3148 37.6451 41.2941L34.0793 39.2215C34.0463 39.2017 34.0025 39.2017 33.9695 39.2215L30.4044 41.2941C30.3699 41.3139 30.3479 41.3526 30.3479 41.3921V45.5392C30.3479 45.5788 30.3693 45.6166 30.4033 45.6355L31.3801 46.204C31.9105 46.4712 32.2346 46.1563 32.2346 45.8397V41.7466C32.2346 41.6881 32.2802 41.6431 32.3382 41.6431H32.79C32.8463 41.6431 32.8927 41.6881 32.8927 41.7466V45.8415C32.8927 46.554 32.507 46.9633 31.8364 46.9633C31.6301 46.9633 31.4676 46.9633 31.014 46.7384L30.0782 46.195C29.847 46.0601 29.7041 45.8082 29.7041 45.5392V41.3921C29.7041 41.1223 29.847 40.8704 30.0782 40.7372L33.649 38.6619C33.8749 38.5333 34.1749 38.5333 34.3991 38.6619L37.9654 40.7382C38.1957 40.8722 38.3395 41.1232 38.3395 41.393V45.5401C38.3395 45.8091 38.1957 46.0601 37.9654 46.195L34.3991 48.2704C34.2848 48.3369 34.1553 48.3711 34.0231 48.3711" fill="#93929D"/>
<path d="M35.1254 45.5155C33.5646 45.5155 33.2373 44.7937 33.2373 44.1882C33.2373 44.1307 33.2834 44.0848 33.3406 44.0848H33.8014C33.8523 44.0848 33.8951 44.1221 33.9032 44.1728C33.9728 44.6458 34.18 44.8843 35.1238 44.8843C35.8756 44.8843 36.1953 44.7132 36.1953 44.3116C36.1953 44.0804 36.1042 43.9086 34.9363 43.7934C33.9594 43.6963 33.3558 43.4795 33.3558 42.6923C33.3558 41.9673 33.963 41.5355 34.98 41.5355C36.122 41.5355 36.6882 41.9349 36.7596 42.7931C36.7623 42.8228 36.7516 42.8515 36.7319 42.8731C36.7123 42.8938 36.6846 42.9064 36.656 42.9064H36.1926C36.1444 42.9064 36.1024 42.8722 36.0926 42.8255C35.981 42.328 35.7113 42.1688 34.9782 42.1688C34.1576 42.1688 34.0621 42.4566 34.0621 42.6725C34.0621 42.9343 34.1746 43.0108 35.2818 43.1583C36.3783 43.3049 36.8989 43.5118 36.8989 44.2882C36.8989 45.0708 36.2506 45.5197 35.1202 45.5197M39.4651 41.1216H39.5848C39.683 41.1216 39.7017 41.0524 39.7017 41.0119C39.7017 40.9057 39.6294 40.9057 39.5892 40.9057H39.466L39.4651 41.1216ZM39.3196 40.7816H39.5848C39.6758 40.7816 39.8544 40.7816 39.8544 40.9867C39.8544 41.1297 39.7634 41.1594 39.7089 41.1774C39.8151 41.1846 39.8223 41.2548 39.8366 41.3537C39.8437 41.4158 39.8553 41.5229 39.8768 41.5588H39.7134C39.7089 41.5229 39.6839 41.3249 39.6839 41.3142C39.6732 41.2701 39.658 41.2485 39.6035 41.2485H39.4687V41.5597H39.3196V40.7816ZM39.0008 41.1684C39.0008 41.4905 39.2589 41.7514 39.5758 41.7514C39.8955 41.7514 40.1536 41.4851 40.1536 41.1684C40.1536 40.8455 39.8919 40.5891 39.575 40.5891C39.2624 40.5891 38.9999 40.8419 38.9999 41.1675M40.2643 41.1702C40.2643 41.5516 39.9544 41.8629 39.5767 41.8629C39.2017 41.8629 38.8892 41.5552 38.8892 41.1702C38.8892 40.778 39.2089 40.4775 39.5767 40.4775C39.9473 40.4775 40.2634 40.7789 40.2634 41.1702" fill="#93929D"/>
<path fill-rule="evenodd" clip-rule="evenodd" d="M22.977 32.1462C22.977 31.9807 22.8904 31.8286 22.7486 31.7463L18.9665 29.5541C18.9027 29.5163 18.8312 29.4965 18.7587 29.4938H18.7196C18.6471 29.4965 18.5755 29.5163 18.5106 29.5541L14.7288 31.7463C14.5879 31.8291 14.5 31.9811 14.5 32.1467L14.5083 38.0515C14.5083 38.1334 14.5503 38.2098 14.6217 38.2503C14.6914 38.2935 14.7789 38.2935 14.8485 38.2503L17.0969 36.9531C17.2388 36.868 17.3255 36.7176 17.3255 36.5537V33.7951C17.3255 33.6305 17.4121 33.4785 17.5536 33.3966L18.5108 32.8412C18.5819 32.7998 18.6599 32.7793 18.7394 32.7793C18.8176 32.7793 18.8974 32.7997 18.9665 32.8411L19.9233 33.3964C20.0649 33.4782 20.1519 33.6302 20.1519 33.7949V36.5533C20.1519 36.717 20.2397 36.8681 20.3809 36.9527L22.6279 38.249C22.6984 38.2913 22.7862 38.2913 22.8564 38.249C22.9257 38.2085 22.9697 38.132 22.9697 38.0502L22.977 32.1462ZM40.8235 35.2206C40.8235 35.2617 40.8018 35.2998 40.7664 35.3201L39.4673 36.0745C39.4321 36.0949 39.3885 36.0949 39.3533 36.0745L38.0541 35.3201C38.0184 35.2997 37.997 35.2616 37.997 35.2206V33.7097C37.997 33.6685 38.0184 33.6305 38.0532 33.6098L39.3515 32.8542C39.3872 32.8335 39.431 32.8335 39.4667 32.8542L40.7659 33.6098C40.8016 33.6305 40.8231 33.6685 40.8231 33.7097L40.8235 35.2206ZM41.1744 24.0296C41.1035 23.9899 41.0173 23.9909 40.9473 24.032C40.8776 24.0734 40.8346 24.149 40.8346 24.2309V30.0781C40.8346 30.1357 40.8042 30.1888 40.7547 30.2176C40.7056 30.2464 40.6445 30.2464 40.5949 30.2176L39.6475 29.6678C39.5065 29.5856 39.3327 29.5856 39.1911 29.6678L35.4078 31.8676C35.2664 31.9495 35.1792 32.1015 35.1792 32.2652V36.666C35.1792 36.8306 35.2664 36.9817 35.4078 37.0645L39.1911 39.2658C39.3323 39.3476 39.5063 39.3476 39.648 39.2658L43.4313 37.0636C43.5723 36.9808 43.6598 36.8297 43.6598 36.6651V25.6974C43.6598 25.5304 43.5697 25.3768 43.425 25.2952L41.1744 24.0296ZM53.7728 33.6699C53.9134 33.5877 53.9999 33.4358 53.9999 33.2721V32.2056C53.9999 32.0415 53.9133 31.8901 53.7725 31.8075L50.0133 29.6089C49.8713 29.5262 49.6972 29.5262 49.5552 29.6089L45.7728 31.8084C45.6309 31.8912 45.5443 32.0423 45.5443 32.2069V36.6059C45.5443 36.7714 45.6327 36.9243 45.7746 37.0062L49.5329 39.1643C49.6713 39.2444 49.841 39.2453 49.9812 39.167L52.2545 37.8941C52.326 37.8536 52.3715 37.7772 52.3715 37.6944C52.3715 37.6116 52.3277 37.5343 52.2563 37.4938L48.4507 35.2934C48.3793 35.2529 48.3355 35.1765 48.3355 35.0946V33.7146C48.3355 33.6322 48.3784 33.5563 48.4498 33.5153L49.6338 32.8271C49.7043 32.7857 49.791 32.7857 49.8615 32.8271L51.0464 33.5153C51.1169 33.5558 51.1607 33.6322 51.1607 33.7141V34.799C51.1607 34.8808 51.2044 34.9573 51.275 34.9987C51.3455 35.0392 51.433 35.0392 51.5036 34.9978L53.7728 33.6699Z" fill="#93929D"/>
<path fill-rule="evenodd" clip-rule="evenodd" d="M49.7291 33.4641C49.7559 33.4482 49.7895 33.4482 49.8166 33.4641L50.5426 33.886C50.5697 33.9018 50.5863 33.931 50.5863 33.9625V34.8072C50.5863 34.8387 50.5697 34.8678 50.5426 34.8836L49.8166 35.3055C49.7895 35.3215 49.7559 35.3215 49.7291 35.3055L49.0036 34.8836C48.9759 34.8678 48.959 34.8387 48.959 34.8072V33.9625C48.959 33.931 48.9751 33.9018 49.0027 33.886L49.7291 33.4641Z" fill="#93929D"/>
<mask id="mask0_190_800" style="mask-type:luminance" maskUnits="userSpaceOnUse" x="24" y="29" width="10" height="11">
<path d="M28.8515 29.631L25.0896 31.8185C24.9487 31.9004 24.8623 32.0515 24.8623 32.2149V36.593C24.8623 36.7564 24.9487 36.9075 25.0896 36.9893L28.8518 39.1786C28.9924 39.2601 29.1658 39.2601 29.3063 39.1786L33.0677 36.9893C33.2079 36.9075 33.2946 36.7563 33.2946 36.593V32.2149C33.2946 32.0515 33.2079 31.9004 33.0669 31.8185L29.3059 29.631C29.2354 29.5902 29.1568 29.5698 29.0782 29.5698C28.9996 29.5698 28.9211 29.5902 28.8505 29.631" fill="white"/>
</mask>
<g mask="url(#mask0_190_800)">
<path d="M37.0969 31.4471L26.4967 26.2124L21.0615 37.3829L31.6615 42.6178L37.0969 31.4471Z" fill="#93929D"/>
</g>
<mask id="mask1_190_800" style="mask-type:luminance" maskUnits="userSpaceOnUse" x="24" y="29" width="10" height="11">
<path d="M24.9551 36.8709C24.9911 36.918 25.0361 36.9587 25.089 36.9893L28.316 38.8672L28.8535 39.1784C28.9339 39.2252 29.0255 39.245 29.1155 39.2383C29.1455 39.2358 29.1755 39.2302 29.2048 39.2218L33.1724 31.9028C33.142 31.8695 33.1065 31.8416 33.0667 31.8182L30.6035 30.3852L29.3014 29.6304C29.2645 29.6089 29.2244 29.5936 29.1836 29.5828L24.9551 36.8709Z" fill="white"/>
</mask>
<g mask="url(#mask1_190_800)">
<path d="M20.3721 32.9953L27.8569 43.2014L37.7558 35.8332L30.2705 25.6274L20.3721 32.9953Z" fill="#93929D"/>
</g>
<mask id="mask2_190_800" style="mask-type:luminance" maskUnits="userSpaceOnUse" x="25" y="29" width="9" height="11">
<path d="M29.0334 29.5723C28.9703 29.5786 28.9086 29.5984 28.8517 29.6309L25.1006 31.8121L29.1455 39.2346C29.2017 39.2265 29.2571 39.2076 29.3071 39.1785L33.069 36.9892C33.185 36.9214 33.2645 36.8066 33.2886 36.6765L29.1651 29.5797C29.1348 29.5737 29.1044 29.5706 29.0732 29.5706C29.0607 29.5706 29.0482 29.5712 29.0357 29.5724" fill="white"/>
</mask>
<g mask="url(#mask2_190_800)">
<path d="M25.1006 29.5706V39.2348H33.2871V29.5706H25.1006Z" fill="#93929D"/>
</g>
</g>
<path d="M13.2 73V64.6H14.304L18.816 71.14V64.6H19.92V73H18.816L14.304 66.46V73H13.2ZM24.7172 73.12C24.1812 73.12 23.6772 73.004 23.2052 72.772C22.7412 72.532 22.3652 72.172 22.0772 71.692C21.7972 71.212 21.6572 70.608 21.6572 69.88V69.64C21.6572 68.952 21.7972 68.376 22.0772 67.912C22.3652 67.448 22.7412 67.1 23.2052 66.868C23.6772 66.636 24.1812 66.52 24.7172 66.52C25.2612 66.52 25.7652 66.636 26.2292 66.868C26.6932 67.1 27.0652 67.448 27.3452 67.912C27.6332 68.376 27.7772 68.952 27.7772 69.64V69.88C27.7772 70.608 27.6332 71.212 27.3452 71.692C27.0652 72.172 26.6932 72.532 26.2292 72.772C25.7652 73.004 25.2612 73.12 24.7172 73.12ZM24.7172 72.16C25.0452 72.16 25.3572 72.088 25.6532 71.944C25.9572 71.792 26.2052 71.548 26.3972 71.212C26.5972 70.876 26.6972 70.432 26.6972 69.88V69.64C26.6972 69.128 26.5972 68.716 26.3972 68.404C26.2052 68.084 25.9572 67.852 25.6532 67.708C25.3572 67.556 25.0452 67.48 24.7172 67.48C24.3972 67.48 24.0852 67.556 23.7812 67.708C23.4772 67.852 23.2252 68.084 23.0252 68.404C22.8332 68.716 22.7372 69.128 22.7372 69.64V69.88C22.7372 70.432 22.8332 70.876 23.0252 71.212C23.2252 71.548 23.4772 71.792 23.7812 71.944C24.0852 72.088 24.3972 72.16 24.7172 72.16ZM31.4925 73.12C30.9725 73.12 30.5125 73 30.1125 72.76C29.7125 72.52 29.4005 72.16 29.1765 71.68C28.9605 71.2 28.8525 70.6 28.8525 69.88V69.64C28.8525 68.968 28.9645 68.4 29.1885 67.936C29.4205 67.472 29.7325 67.12 30.1245 66.88C30.5245 66.64 30.9805 66.52 31.4925 66.52C32.0045 66.52 32.4485 66.632 32.8245 66.856C33.2085 67.08 33.4925 67.388 33.6765 67.78V64.6H34.7325V73H33.7485V71.8C33.5885 72.192 33.3085 72.512 32.9085 72.76C32.5085 73 32.0365 73.12 31.4925 73.12ZM31.7325 72.184C32.1165 72.184 32.4525 72.104 32.7405 71.944C33.0365 71.776 33.2645 71.548 33.4245 71.26C33.5925 70.964 33.6765 70.624 33.6765 70.24V69.28C33.6765 68.936 33.5925 68.628 33.4245 68.356C33.2645 68.076 33.0365 67.856 32.7405 67.696C32.4525 67.536 32.1165 67.456 31.7325 67.456C31.2205 67.456 30.7885 67.648 30.4365 68.032C30.0845 68.408 29.9085 68.944 29.9085 69.64V69.88C29.9085 70.632 30.0845 71.204 30.4365 71.596C30.7885 71.988 31.2205 72.184 31.7325 72.184ZM39.2953 73.12C38.7593 73.12 38.2553 73.004 37.7833 72.772C37.3193 72.54 36.9433 72.184 36.6553 71.704C36.3753 71.224 36.2353 70.616 36.2353 69.88V69.64C36.2353 68.936 36.3713 68.356 36.6433 67.9C36.9153 67.436 37.2753 67.092 37.7233 66.868C38.1713 66.636 38.6553 66.52 39.1753 66.52C40.1113 66.52 40.8353 66.776 41.3473 67.288C41.8593 67.8 42.1153 68.524 42.1153 69.46V70.132H37.2913C37.2913 70.628 37.3913 71.024 37.5913 71.32C37.7993 71.616 38.0553 71.832 38.3593 71.968C38.6713 72.096 38.9833 72.16 39.2953 72.16C39.7753 72.16 40.1433 72.08 40.3993 71.92C40.6633 71.76 40.8513 71.54 40.9633 71.26H41.9953C41.8673 71.868 41.5513 72.332 41.0473 72.652C40.5513 72.964 39.9673 73.12 39.2953 73.12ZM39.2353 67.48C38.9073 67.48 38.5953 67.544 38.2993 67.672C38.0033 67.792 37.7593 67.984 37.5673 68.248C37.3833 68.512 37.2913 68.852 37.2913 69.268H41.1193C41.1113 68.828 41.0193 68.48 40.8433 68.224C40.6753 67.96 40.4513 67.772 40.1713 67.66C39.8913 67.54 39.5793 67.48 39.2353 67.48ZM44.2219 73.12C44.0699 73.12 43.9299 73.08 43.8019 73C43.6739 72.928 43.5699 72.828 43.4899 72.7C43.4179 72.572 43.3819 72.432 43.3819 72.28C43.3819 72.04 43.4619 71.84 43.6219 71.68C43.7899 71.52 43.9899 71.44 44.2219 71.44C44.4539 71.44 44.6499 71.52 44.8099 71.68C44.9779 71.84 45.0619 72.04 45.0619 72.28C45.0619 72.432 45.0219 72.572 44.9419 72.7C44.8699 72.828 44.7699 72.928 44.6419 73C44.5219 73.08 44.3819 73.12 44.2219 73.12ZM46.2355 75.52C46.1475 75.52 46.0475 75.516 45.9355 75.508C45.8235 75.508 45.7235 75.5 45.6355 75.484V74.524C45.6995 74.54 45.7715 74.548 45.8515 74.548C45.9235 74.556 45.9915 74.56 46.0555 74.56C46.3275 74.56 46.5395 74.516 46.6915 74.428C46.8435 74.348 46.9475 74.196 47.0035 73.972C47.0675 73.748 47.0995 73.424 47.0995 73V66.64H48.1555V73C48.1555 73.656 48.0915 74.168 47.9635 74.536C47.8435 74.904 47.6435 75.16 47.3635 75.304C47.0835 75.448 46.7075 75.52 46.2355 75.52ZM47.6275 65.8C47.4195 65.8 47.2475 65.732 47.1115 65.596C46.9755 65.46 46.9075 65.288 46.9075 65.08C46.9075 64.872 46.9755 64.7 47.1115 64.564C47.2475 64.428 47.4195 64.36 47.6275 64.36C47.8355 64.36 48.0075 64.428 48.1435 64.564C48.2795 64.7 48.3475 64.872 48.3475 65.08C48.3475 65.288 48.2795 65.46 48.1435 65.596C48.0075 65.732 47.8355 65.8 47.6275 65.8ZM52.4105 73.12C51.9865 73.12 51.6185 73.072 51.3065 72.976C50.9945 72.872 50.7345 72.736 50.5265 72.568C50.3185 72.4 50.1505 72.204 50.0225 71.98C49.9025 71.748 49.8185 71.508 49.7705 71.26H50.8265C50.8825 71.516 51.0305 71.74 51.2705 71.932C51.5185 72.116 51.8985 72.208 52.4105 72.208C53.0025 72.208 53.4145 72.116 53.6465 71.932C53.8785 71.74 53.9945 71.516 53.9945 71.26C53.9945 71.084 53.9425 70.932 53.8385 70.804C53.7425 70.668 53.5665 70.552 53.3105 70.456C53.0625 70.36 52.7065 70.28 52.2425 70.216C51.8905 70.168 51.5745 70.1 51.2945 70.012C51.0145 69.916 50.7745 69.792 50.5745 69.64C50.3745 69.488 50.2185 69.304 50.1065 69.088C50.0025 68.872 49.9505 68.616 49.9505 68.32C49.9505 68 50.0425 67.704 50.2265 67.432C50.4105 67.16 50.6865 66.94 51.0545 66.772C51.4225 66.604 51.8745 66.52 52.4105 66.52C52.9145 66.52 53.3305 66.608 53.6585 66.784C53.9945 66.952 54.2545 67.176 54.4385 67.456C54.6225 67.736 54.7465 68.044 54.8105 68.38H53.7545C53.6905 68.1 53.5545 67.872 53.3465 67.696C53.1385 67.52 52.8265 67.432 52.4105 67.432C51.8905 67.432 51.5265 67.52 51.3185 67.696C51.1105 67.864 51.0065 68.072 51.0065 68.32C51.0065 68.608 51.1185 68.824 51.3425 68.968C51.5745 69.112 51.9945 69.224 52.6025 69.304C52.9945 69.352 53.3425 69.424 53.6465 69.52C53.9505 69.608 54.2065 69.732 54.4145 69.892C54.6225 70.044 54.7785 70.232 54.8825 70.456C54.9945 70.68 55.0505 70.948 55.0505 71.26C55.0505 71.596 54.9545 71.904 54.7625 72.184C54.5705 72.464 54.2785 72.692 53.8865 72.868C53.5025 73.036 53.0105 73.12 52.4105 73.12Z" fill="#17171C"/>
<defs>
<clipPath id="clip0_190_800">
<rect width="39.5" height="24.3723" fill="white" transform="translate(14.5 24.0005)"/>
</clipPath>
</defs>
</svg>
