<svg width="71" height="88" viewBox="0 0 71 88" fill="none" xmlns="http://www.w3.org/2000/svg">
<rect width="71" height="88" rx="12" fill="#F5F6F9"/>
<g clip-path="url(#clip0_190_811)">
<path d="M35.4997 35.4909C37.4277 35.4909 38.9907 33.928 38.9907 32C38.9907 30.072 37.4277 28.509 35.4997 28.509C33.5717 28.509 32.0088 30.072 32.0088 32C32.0088 33.928 33.5717 35.4909 35.4997 35.4909Z" fill="#93929D"/>
<path d="M35.5 39.1522C45.8453 39.1522 54.2318 35.9501 54.2318 32.0001C54.2318 28.05 45.8453 24.8479 35.5 24.8479C25.1546 24.8479 16.7681 28.05 16.7681 32.0001C16.7681 35.9501 25.1546 39.1522 35.5 39.1522Z" stroke="#93929D" stroke-width="2.04348"/>
<path d="M29.3066 35.5761C34.4793 44.5354 41.4457 50.1973 44.8665 48.2223C48.2874 46.2473 46.8672 37.3833 41.6946 28.4239C36.5219 19.4646 29.5555 13.8027 26.1346 15.7777C22.7138 17.7528 24.134 26.6168 29.3066 35.5761Z" stroke="#93929D" stroke-width="2.04348"/>
<path d="M29.3067 28.4239C24.134 37.3832 22.7139 46.2472 26.1347 48.2222C29.5555 50.1973 36.5219 44.5354 41.6946 35.576C46.8673 26.6167 48.2874 17.7527 44.8666 15.7777C41.4458 13.8027 34.4793 19.4646 29.3067 28.4239Z" stroke="#93929D" stroke-width="2.04348"/>
</g>
<path d="M13.2 73V64.6H16.14C16.844 64.6 17.428 64.712 17.892 64.936C18.364 65.152 18.72 65.452 18.96 65.836C19.2 66.212 19.32 66.64 19.32 67.12C19.32 67.68 19.152 68.172 18.816 68.596C18.488 69.012 18 69.304 17.352 69.472L19.56 73H18.228L16.224 69.616H14.328V73H13.2ZM14.328 68.656H16.02C16.796 68.656 17.352 68.516 17.688 68.236C18.024 67.948 18.192 67.576 18.192 67.12C18.192 66.664 18.024 66.296 17.688 66.016C17.352 65.728 16.796 65.584 16.02 65.584H14.328V68.656ZM23.6391 73.12C23.1031 73.12 22.5991 73.004 22.1271 72.772C21.6631 72.54 21.2871 72.184 20.9991 71.704C20.7191 71.224 20.5791 70.616 20.5791 69.88V69.64C20.5791 68.936 20.7151 68.356 20.9871 67.9C21.2591 67.436 21.6191 67.092 22.0671 66.868C22.5151 66.636 22.9991 66.52 23.5191 66.52C24.4551 66.52 25.1791 66.776 25.6911 67.288C26.2031 67.8 26.4591 68.524 26.4591 69.46V70.132H21.6351C21.6351 70.628 21.7351 71.024 21.9351 71.32C22.1431 71.616 22.3991 71.832 22.7031 71.968C23.0151 72.096 23.3271 72.16 23.6391 72.16C24.1191 72.16 24.4871 72.08 24.7431 71.92C25.0071 71.76 25.1951 71.54 25.3071 71.26H26.3391C26.2111 71.868 25.8951 72.332 25.3911 72.652C24.8951 72.964 24.3111 73.12 23.6391 73.12ZM23.5791 67.48C23.2511 67.48 22.9391 67.544 22.6431 67.672C22.3471 67.792 22.1031 67.984 21.9111 68.248C21.7271 68.512 21.6351 68.852 21.6351 69.268H25.4631C25.4551 68.828 25.3631 68.48 25.1871 68.224C25.0191 67.96 24.7951 67.772 24.5151 67.66C24.2351 67.54 23.9231 67.48 23.5791 67.48ZM29.772 73.12C29.308 73.12 28.912 73.036 28.584 72.868C28.264 72.692 28.02 72.456 27.852 72.16C27.684 71.856 27.6 71.516 27.6 71.14C27.6 70.508 27.784 70.052 28.152 69.772C28.528 69.492 29.064 69.352 29.76 69.352H31.824V68.92C31.824 68.376 31.7 68 31.452 67.792C31.212 67.584 30.848 67.48 30.36 67.48C29.904 67.48 29.572 67.568 29.364 67.744C29.156 67.912 29.04 68.104 29.016 68.32H27.96C27.984 67.976 28.1 67.672 28.308 67.408C28.516 67.136 28.8 66.92 29.16 66.76C29.52 66.6 29.94 66.52 30.42 66.52C30.924 66.52 31.36 66.6 31.728 66.76C32.096 66.912 32.38 67.156 32.58 67.492C32.78 67.82 32.88 68.256 32.88 68.8V71.38C32.88 71.716 32.88 72.012 32.88 72.268C32.888 72.516 32.908 72.76 32.94 73H32.016C31.992 72.816 31.976 72.644 31.968 72.484C31.96 72.316 31.956 72.128 31.956 71.92C31.788 72.256 31.516 72.54 31.14 72.772C30.764 73.004 30.308 73.12 29.772 73.12ZM30 72.16C30.336 72.16 30.64 72.1 30.912 71.98C31.192 71.86 31.412 71.684 31.572 71.452C31.74 71.22 31.824 70.936 31.824 70.6V70.168H29.94C29.548 70.168 29.24 70.248 29.016 70.408C28.792 70.56 28.68 70.804 28.68 71.14C28.68 71.436 28.784 71.68 28.992 71.872C29.208 72.064 29.544 72.16 30 72.16ZM37.2052 73.12C36.6612 73.12 36.1692 73.004 35.7292 72.772C35.2972 72.532 34.9532 72.172 34.6972 71.692C34.4492 71.212 34.3252 70.608 34.3252 69.88V69.64C34.3252 68.952 34.4612 68.376 34.7332 67.912C35.0052 67.448 35.3612 67.1 35.8012 66.868C36.2412 66.636 36.7092 66.52 37.2052 66.52C37.7092 66.52 38.1412 66.612 38.5012 66.796C38.8692 66.972 39.1652 67.216 39.3892 67.528C39.6132 67.832 39.7652 68.176 39.8452 68.56H38.7652C38.6372 68.256 38.4572 68 38.2252 67.792C38.0012 67.584 37.6612 67.48 37.2052 67.48C36.8932 67.48 36.6012 67.556 36.3292 67.708C36.0572 67.852 35.8332 68.084 35.6572 68.404C35.4892 68.716 35.4052 69.128 35.4052 69.64V69.88C35.4052 70.424 35.4892 70.864 35.6572 71.2C35.8332 71.536 36.0572 71.78 36.3292 71.932C36.6012 72.084 36.8932 72.16 37.2052 72.16C37.5972 72.16 37.9252 72.064 38.1892 71.872C38.4612 71.68 38.6532 71.416 38.7652 71.08H39.8452C39.7492 71.496 39.5772 71.86 39.3292 72.172C39.0812 72.476 38.7772 72.712 38.4172 72.88C38.0572 73.04 37.6532 73.12 37.2052 73.12ZM43.6242 73.06C43.1762 73.06 42.8082 72.992 42.5202 72.856C42.2402 72.72 42.0322 72.516 41.8962 72.244C41.7682 71.964 41.7042 71.616 41.7042 71.2V67.576H40.7442V66.64H41.7042V65.2H42.7602V66.64H44.4642V67.576H42.7602V71.08C42.7602 71.44 42.8362 71.7 42.9882 71.86C43.1402 72.02 43.4322 72.1 43.8642 72.1C44.1042 72.1 44.3442 72.088 44.5842 72.064V73C44.4322 73.016 44.2802 73.028 44.1282 73.036C43.9762 73.052 43.8082 73.06 43.6242 73.06ZM47.2922 73.12C47.1402 73.12 47.0002 73.08 46.8722 73C46.7442 72.928 46.6402 72.828 46.5602 72.7C46.4882 72.572 46.4522 72.432 46.4522 72.28C46.4522 72.04 46.5322 71.84 46.6922 71.68C46.8602 71.52 47.0602 71.44 47.2922 71.44C47.5242 71.44 47.7202 71.52 47.8802 71.68C48.0482 71.84 48.1322 72.04 48.1322 72.28C48.1322 72.432 48.0922 72.572 48.0122 72.7C47.9402 72.828 47.8402 72.928 47.7122 73C47.5922 73.08 47.4522 73.12 47.2922 73.12ZM49.3058 75.52C49.2178 75.52 49.1178 75.516 49.0058 75.508C48.8938 75.508 48.7938 75.5 48.7058 75.484V74.524C48.7698 74.54 48.8418 74.548 48.9218 74.548C48.9938 74.556 49.0618 74.56 49.1258 74.56C49.3978 74.56 49.6098 74.516 49.7618 74.428C49.9138 74.348 50.0178 74.196 50.0738 73.972C50.1378 73.748 50.1698 73.424 50.1698 73V66.64H51.2258V73C51.2258 73.656 51.1618 74.168 51.0338 74.536C50.9138 74.904 50.7138 75.16 50.4338 75.304C50.1538 75.448 49.7778 75.52 49.3058 75.52ZM50.6978 65.8C50.4898 65.8 50.3178 65.732 50.1818 65.596C50.0458 65.46 49.9778 65.288 49.9778 65.08C49.9778 64.872 50.0458 64.7 50.1818 64.564C50.3178 64.428 50.4898 64.36 50.6978 64.36C50.9058 64.36 51.0778 64.428 51.2138 64.564C51.3498 64.7 51.4178 64.872 51.4178 65.08C51.4178 65.288 51.3498 65.46 51.2138 65.596C51.0778 65.732 50.9058 65.8 50.6978 65.8ZM55.4808 73.12C55.0568 73.12 54.6888 73.072 54.3768 72.976C54.0648 72.872 53.8048 72.736 53.5968 72.568C53.3888 72.4 53.2208 72.204 53.0928 71.98C52.9728 71.748 52.8888 71.508 52.8408 71.26H53.8968C53.9528 71.516 54.1008 71.74 54.3408 71.932C54.5888 72.116 54.9688 72.208 55.4808 72.208C56.0728 72.208 56.4848 72.116 56.7168 71.932C56.9488 71.74 57.0648 71.516 57.0648 71.26C57.0648 71.084 57.0128 70.932 56.9088 70.804C56.8128 70.668 56.6368 70.552 56.3808 70.456C56.1328 70.36 55.7768 70.28 55.3128 70.216C54.9608 70.168 54.6448 70.1 54.3648 70.012C54.0848 69.916 53.8448 69.792 53.6448 69.64C53.4448 69.488 53.2888 69.304 53.1768 69.088C53.0728 68.872 53.0208 68.616 53.0208 68.32C53.0208 68 53.1128 67.704 53.2968 67.432C53.4808 67.16 53.7568 66.94 54.1248 66.772C54.4928 66.604 54.9448 66.52 55.4808 66.52C55.9848 66.52 56.4008 66.608 56.7288 66.784C57.0648 66.952 57.3248 67.176 57.5088 67.456C57.6928 67.736 57.8168 68.044 57.8808 68.38H56.8248C56.7608 68.1 56.6248 67.872 56.4168 67.696C56.2088 67.52 55.8968 67.432 55.4808 67.432C54.9608 67.432 54.5968 67.52 54.3888 67.696C54.1808 67.864 54.0768 68.072 54.0768 68.32C54.0768 68.608 54.1888 68.824 54.4128 68.968C54.6448 69.112 55.0648 69.224 55.6728 69.304C56.0648 69.352 56.4128 69.424 56.7168 69.52C57.0208 69.608 57.2768 69.732 57.4848 69.892C57.6928 70.044 57.8488 70.232 57.9528 70.456C58.0648 70.68 58.1208 70.948 58.1208 71.26C58.1208 71.596 58.0248 71.904 57.8328 72.184C57.6408 72.464 57.3488 72.692 56.9568 72.868C56.5728 73.036 56.0808 73.12 55.4808 73.12Z" fill="#17171C"/>
<defs>
<clipPath id="clip0_190_811">
<rect width="40" height="40" fill="white" transform="translate(15.5 12)"/>
</clipPath>
</defs>
</svg>
