<svg width="40" height="40" viewBox="0 0 40 40" fill="none" xmlns="http://www.w3.org/2000/svg">
<g clip-path="url(#clip0_225_2338)">
<rect width="40" height="40" rx="8" fill="#FFE9E6"/>
<path d="M13.6826 29.5366C12.0268 29.5366 10.685 28.9656 9.65731 27.8237C8.62958 26.6247 8.11572 24.8833 8.11572 22.5994C8.11572 20.0872 8.80087 17.8319 10.1712 15.8336C11.5986 13.7781 13.6255 11.9796 16.2519 10.438L17.0227 11.3801C15.4811 12.6933 14.4248 14.0065 13.8538 15.3197C13.2829 16.5758 12.8786 18.1745 12.8786 19.7732C12.8786 20.3441 13.026 20.8295 13.083 21.5717C13.1401 22.2569 13.2258 22.9991 13.34 23.7984L9.82859 19.7732H14.0251C15.4525 19.7732 16.623 20.2585 17.5365 21.2291C18.5071 22.1427 18.9925 23.2846 18.9925 24.6549C18.9925 26.0252 18.4786 27.1956 17.4509 28.1663C16.4802 29.0798 15.2241 29.5366 13.6826 29.5366Z" fill="#FC8475"/>
<path d="M26.4018 29.5366C24.746 29.5366 23.4043 28.9656 22.3765 27.8237C21.3488 26.6247 20.835 24.8833 20.835 22.5994C20.835 20.0872 21.5201 17.8319 22.8904 15.8336C24.3178 13.7781 26.3447 11.9796 28.9711 10.438L29.7419 11.3801C28.2003 12.6933 27.144 14.0065 26.5731 15.3197C26.028 16.519 25.5962 18.2295 25.5583 19.7732H26.7444C28.1718 19.7732 29.5154 20.2702 30.4289 21.2409C31.3996 22.1544 31.7117 23.2846 31.7117 24.6549C31.7117 26.0252 31.1978 27.1956 30.1701 28.1663C29.1995 29.0798 27.9434 29.5366 26.4018 29.5366Z" fill="#F62727"/>
</g>
<rect x="0.5" y="0.5" width="39" height="39" rx="7.5" stroke="#FFD5CF"/>
<defs>
<clipPath id="clip0_225_2338">
<rect width="40" height="40" rx="8" fill="white"/>
</clipPath>
</defs>
</svg>
